<ttFont>
    <TTGlyph name="A" xMin="16" yMin="0" xMax="657" yMax="710">
      <contour>
        <pt x="322" y="710" on="1"/>
        <pt x="352" y="710" on="1"/>
        <pt x="657" y="0" on="1"/>
        <pt x="620" y="0" on="1"/>
        <pt x="515" y="245" on="1"/>
        <pt x="159" y="245" on="1"/>
        <pt x="54" y="0" on="1"/>
        <pt x="16" y="0" on="1"/>
      </contour>
      <contour>
        <pt x="504" y="275" on="1"/>
        <pt x="337" y="666" on="1"/>
        <pt x="169" y="275" on="1"/>
      </contour>
    </TTGlyph>
    <TTGlyph name="A.sc" xMin="25" yMin="0" xMax="556" yMax="542">
      <contour>
        <pt x="25" y="0" on="1"/>
        <pt x="277" y="542" on="1"/>
        <pt x="305" y="542" on="1"/>
        <pt x="556" y="0" on="1"/>
        <pt x="521" y="0" on="1"/>
        <pt x="436" y="183" on="1"/>
        <pt x="146" y="183" on="1"/>
        <pt x="60" y="0" on="1"/>
      </contour>
      <contour>
        <pt x="291" y="500" on="1"/>
        <pt x="155" y="212" on="1"/>
        <pt x="425" y="212" on="1"/>
      </contour>
    </TTGlyph>
    <TTGlyph name="AE" xMin="-28" yMin="0" xMax="913" yMax="710">
      <contour>
        <pt x="437" y="710" on="1"/>
        <pt x="904" y="710" on="1"/>
        <pt x="904" y="678" on="1"/>
        <pt x="480" y="678" on="1"/>
        <pt x="480" y="379" on="1"/>
        <pt x="850" y="379" on="1"/>
        <pt x="850" y="347" on="1"/>
        <pt x="480" y="347" on="1"/>
        <pt x="480" y="32" on="1"/>
        <pt x="913" y="32" on="1"/>
        <pt x="913" y="0" on="1"/>
        <pt x="446" y="0" on="1"/>
        <pt x="446" y="245" on="1"/>
        <pt x="171" y="245" on="1"/>
        <pt x="12" y="0" on="1"/>
        <pt x="-28" y="0" on="1"/>
      </contour>
      <contour>
        <pt x="444" y="277" on="1"/>
        <pt x="444" y="663" on="1"/>
        <pt x="189" y="277" on="1"/>
      </contour>
    </TTGlyph>
    <TTGlyph name="AEacute" xMin="-28" yMin="0" xMax="913" yMax="918">
      <contour>
        <pt x="470" y="826" on="1"/>
        <pt x="446" y="839" on="1"/>
        <pt x="508" y="918" on="1"/>
        <pt x="553" y="918" on="1"/>
      </contour>
      <contour>
        <pt x="437" y="710" on="1"/>
        <pt x="904" y="710" on="1"/>
        <pt x="904" y="678" on="1"/>
        <pt x="480" y="678" on="1"/>
        <pt x="480" y="379" on="1"/>
        <pt x="850" y="379" on="1"/>
        <pt x="850" y="347" on="1"/>
        <pt x="480" y="347" on="1"/>
        <pt x="480" y="32" on="1"/>
        <pt x="913" y="32" on="1"/>
        <pt x="913" y="0" on="1"/>
        <pt x="446" y="0" on="1"/>
        <pt x="446" y="245" on="1"/>
        <pt x="171" y="245" on="1"/>
        <pt x="12" y="0" on="1"/>
        <pt x="-28" y="0" on="1"/>
      </contour>
      <contour>
        <pt x="444" y="277" on="1"/>
        <pt x="444" y="663" on="1"/>
        <pt x="189" y="277" on="1"/>
      </contour>
    </TTGlyph>
    <TTGlyph name="Aacute" xMin="16" yMin="0" xMax="657" yMax="918">
      <contour>
        <pt x="322" y="710" on="1"/>
        <pt x="352" y="710" on="1"/>
        <pt x="657" y="0" on="1"/>
        <pt x="620" y="0" on="1"/>
        <pt x="515" y="245" on="1"/>
        <pt x="159" y="245" on="1"/>
        <pt x="54" y="0" on="1"/>
        <pt x="16" y="0" on="1"/>
      </contour>
      <contour>
        <pt x="504" y="275" on="1"/>
        <pt x="337" y="666" on="1"/>
        <pt x="169" y="275" on="1"/>
      </contour>
      <contour>
        <pt x="329" y="826" on="1"/>
        <pt x="305" y="839" on="1"/>
        <pt x="367" y="918" on="1"/>
        <pt x="412" y="918" on="1"/>
      </contour>
    </TTGlyph>
    <TTGlyph name="Abreve" xMin="16" yMin="0" xMax="657" yMax="918">
      <contour>
        <pt x="322" y="710" on="1"/>
        <pt x="352" y="710" on="1"/>
        <pt x="657" y="0" on="1"/>
        <pt x="620" y="0" on="1"/>
        <pt x="515" y="245" on="1"/>
        <pt x="159" y="245" on="1"/>
        <pt x="54" y="0" on="1"/>
        <pt x="16" y="0" on="1"/>
      </contour>
      <contour>
        <pt x="504" y="275" on="1"/>
        <pt x="337" y="666" on="1"/>
        <pt x="169" y="275" on="1"/>
      </contour>
      <contour>
        <pt x="337" y="856" on="1"/>
        <pt x="357" y="856" on="0"/>
        <pt x="390" y="892" on="0"/>
        <pt x="393" y="918" on="1"/>
        <pt x="418" y="918" on="1"/>
        <pt x="418" y="901" on="0"/>
        <pt x="405" y="870" on="0"/>
        <pt x="382" y="847" on="0"/>
        <pt x="353" y="834" on="0"/>
        <pt x="337" y="834" on="1"/>
        <pt x="320" y="834" on="0"/>
        <pt x="291" y="847" on="0"/>
        <pt x="269" y="870" on="0"/>
        <pt x="256" y="901" on="0"/>
        <pt x="256" y="918" on="1"/>
        <pt x="282" y="918" on="1"/>
        <pt x="282" y="895" on="0"/>
        <pt x="316" y="856" on="0"/>
      </contour>
    </TTGlyph>
    <TTGlyph name="Acircumflex" xMin="16" yMin="0" xMax="657" yMax="918">
      <contour>
        <pt x="322" y="710" on="1"/>
        <pt x="352" y="710" on="1"/>
        <pt x="657" y="0" on="1"/>
        <pt x="620" y="0" on="1"/>
        <pt x="515" y="245" on="1"/>
        <pt x="159" y="245" on="1"/>
        <pt x="54" y="0" on="1"/>
        <pt x="16" y="0" on="1"/>
      </contour>
      <contour>
        <pt x="504" y="275" on="1"/>
        <pt x="337" y="666" on="1"/>
        <pt x="169" y="275" on="1"/>
      </contour>
      <contour>
        <pt x="230" y="841" on="1"/>
        <pt x="324" y="918" on="1"/>
        <pt x="350" y="918" on="1"/>
        <pt x="445" y="841" on="1"/>
        <pt x="422" y="826" on="1"/>
        <pt x="337" y="889" on="1"/>
        <pt x="252" y="826" on="1"/>
      </contour>
    </TTGlyph>
    <TTGlyph name="Adblgrave" xMin="16" yMin="0" xMax="657" yMax="918">
      <contour>
        <pt x="322" y="710" on="1"/>
        <pt x="352" y="710" on="1"/>
        <pt x="657" y="0" on="1"/>
        <pt x="620" y="0" on="1"/>
        <pt x="515" y="245" on="1"/>
        <pt x="159" y="245" on="1"/>
        <pt x="54" y="0" on="1"/>
        <pt x="16" y="0" on="1"/>
      </contour>
      <contour>
        <pt x="504" y="275" on="1"/>
        <pt x="337" y="666" on="1"/>
        <pt x="169" y="275" on="1"/>
      </contour>
      <contour>
        <pt x="303" y="918" on="1"/>
        <pt x="345" y="918" on="1"/>
        <pt x="407" y="839" on="1"/>
        <pt x="385" y="826" on="1"/>
      </contour>
      <contour>
        <pt x="195" y="918" on="1"/>
        <pt x="238" y="918" on="1"/>
        <pt x="300" y="839" on="1"/>
        <pt x="278" y="826" on="1"/>
      </contour>
    </TTGlyph>
    <TTGlyph name="Adieresis" xMin="16" yMin="0" xMax="657" yMax="917">
      <contour>
        <pt x="322" y="710" on="1"/>
        <pt x="352" y="710" on="1"/>
        <pt x="657" y="0" on="1"/>
        <pt x="620" y="0" on="1"/>
        <pt x="515" y="245" on="1"/>
        <pt x="159" y="245" on="1"/>
        <pt x="54" y="0" on="1"/>
        <pt x="16" y="0" on="1"/>
      </contour>
      <contour>
        <pt x="504" y="275" on="1"/>
        <pt x="337" y="666" on="1"/>
        <pt x="169" y="275" on="1"/>
      </contour>
      <contour>
        <pt x="259" y="835" on="1"/>
        <pt x="259" y="917" on="1"/>
        <pt x="290" y="917" on="1"/>
        <pt x="290" y="835" on="1"/>
      </contour>
      <contour>
        <pt x="385" y="835" on="1"/>
        <pt x="385" y="917" on="1"/>
        <pt x="416" y="917" on="1"/>
        <pt x="416" y="835" on="1"/>
      </contour>
    </TTGlyph>
    <TTGlyph name="Agrave" xMin="16" yMin="0" xMax="657" yMax="918">
      <contour>
        <pt x="322" y="710" on="1"/>
        <pt x="352" y="710" on="1"/>
        <pt x="657" y="0" on="1"/>
        <pt x="620" y="0" on="1"/>
        <pt x="515" y="245" on="1"/>
        <pt x="159" y="245" on="1"/>
        <pt x="54" y="0" on="1"/>
        <pt x="16" y="0" on="1"/>
      </contour>
      <contour>
        <pt x="504" y="275" on="1"/>
        <pt x="337" y="666" on="1"/>
        <pt x="169" y="275" on="1"/>
      </contour>
      <contour>
        <pt x="262" y="918" on="1"/>
        <pt x="306" y="918" on="1"/>
        <pt x="369" y="839" on="1"/>
        <pt x="345" y="826" on="1"/>
      </contour>
    </TTGlyph>
    <TTGlyph name="Ainvertedbreve" xMin="16" yMin="0" xMax="657" yMax="918">
      <contour>
        <pt x="322" y="710" on="1"/>
        <pt x="352" y="710" on="1"/>
        <pt x="657" y="0" on="1"/>
        <pt x="620" y="0" on="1"/>
        <pt x="515" y="245" on="1"/>
        <pt x="159" y="245" on="1"/>
        <pt x="54" y="0" on="1"/>
        <pt x="16" y="0" on="1"/>
      </contour>
      <contour>
        <pt x="504" y="275" on="1"/>
        <pt x="337" y="666" on="1"/>
        <pt x="169" y="275" on="1"/>
      </contour>
      <contour>
        <pt x="337" y="896" on="1"/>
        <pt x="316" y="896" on="0"/>
        <pt x="282" y="857" on="0"/>
        <pt x="282" y="834" on="1"/>
        <pt x="256" y="834" on="1"/>
        <pt x="256" y="851" on="0"/>
        <pt x="269" y="882" on="0"/>
        <pt x="291" y="905" on="0"/>
        <pt x="320" y="918" on="0"/>
        <pt x="337" y="918" on="1"/>
        <pt x="353" y="918" on="0"/>
        <pt x="382" y="905" on="0"/>
        <pt x="405" y="882" on="0"/>
        <pt x="418" y="851" on="0"/>
        <pt x="418" y="834" on="1"/>
        <pt x="393" y="834" on="1"/>
        <pt x="390" y="860" on="0"/>
        <pt x="357" y="896" on="0"/>
      </contour>
    </TTGlyph>
    <TTGlyph name="Amacron" xMin="16" yMin="0" xMax="657" yMax="895">
      <contour>
        <pt x="322" y="710" on="1"/>
        <pt x="352" y="710" on="1"/>
        <pt x="657" y="0" on="1"/>
        <pt x="620" y="0" on="1"/>
        <pt x="515" y="245" on="1"/>
        <pt x="159" y="245" on="1"/>
        <pt x="54" y="0" on="1"/>
        <pt x="16" y="0" on="1"/>
      </contour>
      <contour>
        <pt x="504" y="275" on="1"/>
        <pt x="337" y="666" on="1"/>
        <pt x="169" y="275" on="1"/>
      </contour>
      <contour>
        <pt x="196" y="867" on="1"/>
        <pt x="196" y="895" on="1"/>
        <pt x="479" y="895" on="1"/>
        <pt x="479" y="867" on="1"/>
      </contour>
    </TTGlyph>
    <TTGlyph name="Aogonek" xMin="15" yMin="-164" xMax="656" yMax="710">
      <contour>
        <pt x="607" y="-164" on="1"/>
        <pt x="578" y="-157" on="0"/>
        <pt x="548" y="-123" on="0"/>
        <pt x="548" y="-99" on="1"/>
        <pt x="548" y="-75" on="0"/>
        <pt x="581" y="-28" on="0"/>
        <pt x="619" y="0" on="1"/>
        <pt x="514" y="245" on="1"/>
        <pt x="158" y="245" on="1"/>
        <pt x="53" y="0" on="1"/>
        <pt x="15" y="0" on="1"/>
        <pt x="321" y="710" on="1"/>
        <pt x="351" y="710" on="1"/>
        <pt x="656" y="0" on="1"/>
        <pt x="611" y="-30" on="0"/>
        <pt x="574" y="-72" on="0"/>
        <pt x="574" y="-94" on="1"/>
        <pt x="574" y="-132" on="0"/>
        <pt x="621" y="-141" on="1"/>
      </contour>
      <contour>
        <pt x="503" y="275" on="1"/>
        <pt x="336" y="666" on="1"/>
        <pt x="168" y="275" on="1"/>
      </contour>
    </TTGlyph>
    <TTGlyph name="Aring" xMin="16" yMin="0" xMax="657" yMax="918">
      <contour>
        <pt x="322" y="710" on="1"/>
        <pt x="352" y="710" on="1"/>
        <pt x="657" y="0" on="1"/>
        <pt x="620" y="0" on="1"/>
        <pt x="515" y="245" on="1"/>
        <pt x="159" y="245" on="1"/>
        <pt x="54" y="0" on="1"/>
        <pt x="16" y="0" on="1"/>
      </contour>
      <contour>
        <pt x="504" y="275" on="1"/>
        <pt x="337" y="666" on="1"/>
        <pt x="169" y="275" on="1"/>
      </contour>
      <contour>
        <pt x="276" y="859" on="1"/>
        <pt x="276" y="885" on="0"/>
        <pt x="311" y="918" on="0"/>
        <pt x="337" y="918" on="1"/>
        <pt x="364" y="918" on="0"/>
        <pt x="399" y="885" on="0"/>
        <pt x="399" y="859" on="1"/>
        <pt x="399" y="833" on="0"/>
        <pt x="364" y="799" on="0"/>
        <pt x="337" y="799" on="1"/>
        <pt x="311" y="799" on="0"/>
        <pt x="276" y="833" on="0"/>
      </contour>
      <contour>
        <pt x="337" y="899" on="1"/>
        <pt x="320" y="899" on="0"/>
        <pt x="297" y="877" on="0"/>
        <pt x="297" y="859" on="1"/>
        <pt x="297" y="842" on="0"/>
        <pt x="320" y="818" on="0"/>
        <pt x="337" y="818" on="1"/>
        <pt x="353" y="818" on="0"/>
        <pt x="378" y="841" on="0"/>
        <pt x="378" y="859" on="1"/>
        <pt x="378" y="877" on="0"/>
        <pt x="354" y="899" on="0"/>
      </contour>
    </TTGlyph>
    <TTGlyph name="Aringacute" xMin="16" yMin="0" xMax="657" yMax="918">
      <contour>
        <pt x="276" y="751" on="1"/>
        <pt x="276" y="777" on="0"/>
        <pt x="311" y="810" on="0"/>
        <pt x="337" y="810" on="1"/>
        <pt x="364" y="810" on="0"/>
        <pt x="399" y="777" on="0"/>
        <pt x="399" y="751" on="1"/>
        <pt x="399" y="730" on="0"/>
        <pt x="377" y="700" on="0"/>
        <pt x="359" y="694" on="1"/>
        <pt x="657" y="0" on="1"/>
        <pt x="620" y="0" on="1"/>
        <pt x="515" y="245" on="1"/>
        <pt x="159" y="245" on="1"/>
        <pt x="54" y="0" on="1"/>
        <pt x="16" y="0" on="1"/>
        <pt x="315" y="694" on="1"/>
        <pt x="297" y="700" on="0"/>
        <pt x="276" y="731" on="0"/>
      </contour>
      <contour>
        <pt x="504" y="275" on="1"/>
        <pt x="337" y="666" on="1"/>
        <pt x="169" y="275" on="1"/>
      </contour>
      <contour>
        <pt x="337" y="791" on="1"/>
        <pt x="320" y="791" on="0"/>
        <pt x="297" y="769" on="0"/>
        <pt x="297" y="751" on="1"/>
        <pt x="297" y="734" on="0"/>
        <pt x="320" y="710" on="0"/>
        <pt x="337" y="710" on="1"/>
        <pt x="353" y="710" on="0"/>
        <pt x="378" y="733" on="0"/>
        <pt x="378" y="751" on="1"/>
        <pt x="378" y="769" on="0"/>
        <pt x="354" y="791" on="0"/>
      </contour>
      <contour>
        <pt x="330" y="827" on="1"/>
        <pt x="306" y="840" on="1"/>
        <pt x="368" y="918" on="1"/>
        <pt x="413" y="918" on="1"/>
      </contour>
    </TTGlyph>
    <TTGlyph name="Atilde" xMin="16" yMin="0" xMax="657" yMax="918">
      <contour>
        <pt x="322" y="710" on="1"/>
        <pt x="352" y="710" on="1"/>
        <pt x="657" y="0" on="1"/>
        <pt x="620" y="0" on="1"/>
        <pt x="515" y="245" on="1"/>
        <pt x="159" y="245" on="1"/>
        <pt x="54" y="0" on="1"/>
        <pt x="16" y="0" on="1"/>
      </contour>
      <contour>
        <pt x="504" y="275" on="1"/>
        <pt x="337" y="666" on="1"/>
        <pt x="169" y="275" on="1"/>
      </contour>
      <contour>
        <pt x="398" y="844" on="1"/>
        <pt x="376" y="844" on="0"/>
        <pt x="343" y="856" on="0"/>
        <pt x="314" y="870" on="0"/>
        <pt x="288" y="882" on="0"/>
        <pt x="272" y="882" on="1"/>
        <pt x="256" y="882" on="0"/>
        <pt x="236" y="869" on="0"/>
        <pt x="226" y="852" on="0"/>
        <pt x="222" y="836" on="0"/>
        <pt x="222" y="834" on="1"/>
        <pt x="195" y="834" on="1"/>
        <pt x="195" y="837" on="0"/>
        <pt x="200" y="862" on="0"/>
        <pt x="217" y="888" on="0"/>
        <pt x="248" y="909" on="0"/>
        <pt x="274" y="909" on="1"/>
        <pt x="294" y="909" on="0"/>
        <pt x="324" y="897" on="0"/>
        <pt x="351" y="882" on="0"/>
        <pt x="380" y="870" on="0"/>
        <pt x="399" y="870" on="1"/>
        <pt x="420" y="870" on="0"/>
        <pt x="443" y="884" on="0"/>
        <pt x="455" y="901" on="0"/>
        <pt x="458" y="916" on="0"/>
        <pt x="458" y="918" on="1"/>
        <pt x="484" y="918" on="1"/>
        <pt x="484" y="914" on="0"/>
        <pt x="478" y="890" on="0"/>
        <pt x="460" y="864" on="0"/>
        <pt x="426" y="844" on="0"/>
      </contour>
    </TTGlyph>
    <TTGlyph name="B" xMin="96" yMin="0" xMax="610" yMax="710">
      <contour>
        <pt x="610" y="184" on="1"/>
        <pt x="610" y="146" on="0"/>
        <pt x="581" y="79" on="0"/>
        <pt x="531" y="29" on="0"/>
        <pt x="464" y="0" on="0"/>
        <pt x="427" y="0" on="1"/>
        <pt x="96" y="0" on="1"/>
        <pt x="96" y="710" on="1"/>
        <pt x="418" y="710" on="1"/>
        <pt x="455" y="710" on="0"/>
        <pt x="515" y="678" on="0"/>
        <pt x="557" y="627" on="0"/>
        <pt x="580" y="562" on="0"/>
        <pt x="580" y="529" on="1"/>
        <pt x="580" y="475" on="0"/>
        <pt x="526" y="385" on="0"/>
        <pt x="478" y="364" on="1"/>
        <pt x="508" y="355" on="0"/>
        <pt x="557" y="320" on="0"/>
        <pt x="592" y="272" on="0"/>
        <pt x="610" y="215" on="0"/>
      </contour>
      <contour>
        <pt x="576" y="187" on="1"/>
        <pt x="576" y="217" on="0"/>
        <pt x="554" y="274" on="0"/>
        <pt x="516" y="317" on="0"/>
        <pt x="464" y="343" on="0"/>
        <pt x="434" y="343" on="1"/>
        <pt x="131" y="343" on="1"/>
        <pt x="131" y="32" on="1"/>
        <pt x="427" y="32" on="1"/>
        <pt x="458" y="32" on="0"/>
        <pt x="512" y="58" on="0"/>
        <pt x="553" y="102" on="0"/>
        <pt x="576" y="158" on="0"/>
      </contour>
      <contour>
        <pt x="131" y="678" on="1"/>
        <pt x="131" y="374" on="1"/>
        <pt x="406" y="374" on="1"/>
        <pt x="437" y="374" on="0"/>
        <pt x="488" y="400" on="0"/>
        <pt x="525" y="443" on="0"/>
        <pt x="546" y="497" on="0"/>
        <pt x="546" y="526" on="1"/>
        <pt x="546" y="556" on="0"/>
        <pt x="526" y="611" on="0"/>
        <pt x="491" y="653" on="0"/>
        <pt x="442" y="678" on="0"/>
        <pt x="412" y="678" on="1"/>
      </contour>
    </TTGlyph>
    <TTGlyph name="B.sc" xMin="92" yMin="0" xMax="518" yMax="542">
      <contour>
        <pt x="518" y="140" on="1"/>
        <pt x="518" y="111" on="0"/>
        <pt x="494" y="60" on="0"/>
        <pt x="452" y="22" on="0"/>
        <pt x="396" y="0" on="0"/>
        <pt x="365" y="0" on="1"/>
        <pt x="92" y="0" on="1"/>
        <pt x="92" y="542" on="1"/>
        <pt x="360" y="542" on="1"/>
        <pt x="391" y="542" on="0"/>
        <pt x="440" y="518" on="0"/>
        <pt x="475" y="479" on="0"/>
        <pt x="493" y="429" on="0"/>
        <pt x="493" y="404" on="1"/>
        <pt x="493" y="362" on="0"/>
        <pt x="448" y="294" on="0"/>
        <pt x="410" y="278" on="1"/>
        <pt x="460" y="264" on="0"/>
        <pt x="518" y="188" on="0"/>
      </contour>
      <contour>
        <pt x="486" y="144" on="1"/>
        <pt x="486" y="166" on="0"/>
        <pt x="468" y="208" on="0"/>
        <pt x="437" y="241" on="0"/>
        <pt x="395" y="260" on="0"/>
        <pt x="371" y="260" on="1"/>
        <pt x="124" y="260" on="1"/>
        <pt x="124" y="29" on="1"/>
        <pt x="365" y="29" on="1"/>
        <pt x="390" y="29" on="0"/>
        <pt x="434" y="49" on="0"/>
        <pt x="467" y="81" on="0"/>
        <pt x="486" y="122" on="0"/>
      </contour>
      <contour>
        <pt x="124" y="512" on="1"/>
        <pt x="124" y="288" on="1"/>
        <pt x="348" y="288" on="1"/>
        <pt x="373" y="288" on="0"/>
        <pt x="414" y="307" on="0"/>
        <pt x="444" y="338" on="0"/>
        <pt x="461" y="379" on="0"/>
        <pt x="461" y="400" on="1"/>
        <pt x="461" y="422" on="0"/>
        <pt x="445" y="463" on="0"/>
        <pt x="417" y="494" on="0"/>
        <pt x="377" y="512" on="0"/>
        <pt x="353" y="512" on="1"/>
      </contour>
    </TTGlyph>
    <TTGlyph name="C" xMin="46" yMin="-6" xMax="658" yMax="714">
      <contour>
        <pt x="46" y="360" on="1"/>
        <pt x="46" y="424" on="0"/>
        <pt x="91" y="550" on="0"/>
        <pt x="177" y="651" on="0"/>
        <pt x="302" y="714" on="0"/>
        <pt x="382" y="714" on="1"/>
        <pt x="477" y="714" on="0"/>
        <pt x="610" y="627" on="0"/>
        <pt x="642" y="559" on="1"/>
        <pt x="612" y="545" on="1"/>
        <pt x="592" y="583" on="0"/>
        <pt x="539" y="635" on="0"/>
        <pt x="477" y="667" on="0"/>
        <pt x="411" y="681" on="0"/>
        <pt x="378" y="681" on="1"/>
        <pt x="307" y="681" on="0"/>
        <pt x="196" y="624" on="0"/>
        <pt x="120" y="532" on="0"/>
        <pt x="81" y="416" on="0"/>
        <pt x="81" y="357" on="1"/>
        <pt x="81" y="292" on="0"/>
        <pt x="127" y="172" on="0"/>
        <pt x="208" y="81" on="0"/>
        <pt x="318" y="27" on="0"/>
        <pt x="381" y="27" on="1"/>
        <pt x="415" y="27" on="0"/>
        <pt x="485" y="44" on="0"/>
        <pt x="551" y="79" on="0"/>
        <pt x="607" y="133" on="0"/>
        <pt x="627" y="171" on="1"/>
        <pt x="658" y="159" on="1"/>
        <pt x="640" y="119" on="0"/>
        <pt x="578" y="57" on="0"/>
        <pt x="502" y="15" on="0"/>
        <pt x="417" y="-6" on="0"/>
        <pt x="377" y="-6" on="1"/>
        <pt x="304" y="-6" on="0"/>
        <pt x="183" y="58" on="0"/>
        <pt x="95" y="161" on="0"/>
        <pt x="46" y="292" on="0"/>
      </contour>
    </TTGlyph>
    <TTGlyph name="C.sc" xMin="50" yMin="-5" xMax="555" yMax="545">
      <contour>
        <pt x="50" y="275" on="1"/>
        <pt x="50" y="324" on="0"/>
        <pt x="87" y="420" on="0"/>
        <pt x="158" y="497" on="0"/>
        <pt x="261" y="545" on="0"/>
        <pt x="327" y="545" on="1"/>
        <pt x="405" y="545" on="0"/>
        <pt x="515" y="478" on="0"/>
        <pt x="543" y="427" on="1"/>
        <pt x="515" y="412" on="1"/>
        <pt x="499" y="441" on="0"/>
        <pt x="455" y="480" on="0"/>
        <pt x="405" y="504" on="0"/>
        <pt x="351" y="515" on="0"/>
        <pt x="324" y="515" on="1"/>
        <pt x="266" y="515" on="0"/>
        <pt x="176" y="472" on="0"/>
        <pt x="114" y="403" on="0"/>
        <pt x="82" y="316" on="0"/>
        <pt x="82" y="272" on="1"/>
        <pt x="82" y="223" on="0"/>
        <pt x="120" y="134" on="0"/>
        <pt x="186" y="66" on="0"/>
        <pt x="275" y="26" on="0"/>
        <pt x="326" y="26" on="1"/>
        <pt x="353" y="26" on="0"/>
        <pt x="411" y="38" on="0"/>
        <pt x="465" y="65" on="0"/>
        <pt x="511" y="105" on="0"/>
        <pt x="527" y="134" on="1"/>
        <pt x="555" y="121" on="1"/>
        <pt x="540" y="91" on="0"/>
        <pt x="489" y="44" on="0"/>
        <pt x="426" y="12" on="0"/>
        <pt x="356" y="-5" on="0"/>
        <pt x="323" y="-5" on="1"/>
        <pt x="263" y="-5" on="0"/>
        <pt x="163" y="44" on="0"/>
        <pt x="90" y="123" on="0"/>
        <pt x="50" y="223" on="0"/>
      </contour>
    </TTGlyph>
    <TTGlyph name="Cacute" xMin="46" yMin="-6" xMax="658" yMax="918">
      <contour>
        <pt x="372" y="826" on="1"/>
        <pt x="348" y="839" on="1"/>
        <pt x="410" y="918" on="1"/>
        <pt x="455" y="918" on="1"/>
      </contour>
      <contour>
        <pt x="46" y="360" on="1"/>
        <pt x="46" y="424" on="0"/>
        <pt x="91" y="550" on="0"/>
        <pt x="177" y="651" on="0"/>
        <pt x="302" y="714" on="0"/>
        <pt x="382" y="714" on="1"/>
        <pt x="477" y="714" on="0"/>
        <pt x="610" y="627" on="0"/>
        <pt x="642" y="559" on="1"/>
        <pt x="612" y="545" on="1"/>
        <pt x="592" y="583" on="0"/>
        <pt x="539" y="635" on="0"/>
        <pt x="477" y="667" on="0"/>
        <pt x="411" y="681" on="0"/>
        <pt x="378" y="681" on="1"/>
        <pt x="307" y="681" on="0"/>
        <pt x="196" y="624" on="0"/>
        <pt x="120" y="532" on="0"/>
        <pt x="81" y="416" on="0"/>
        <pt x="81" y="357" on="1"/>
        <pt x="81" y="292" on="0"/>
        <pt x="127" y="172" on="0"/>
        <pt x="208" y="81" on="0"/>
        <pt x="318" y="27" on="0"/>
        <pt x="381" y="27" on="1"/>
        <pt x="415" y="27" on="0"/>
        <pt x="485" y="44" on="0"/>
        <pt x="551" y="79" on="0"/>
        <pt x="607" y="133" on="0"/>
        <pt x="627" y="171" on="1"/>
        <pt x="658" y="159" on="1"/>
        <pt x="640" y="119" on="0"/>
        <pt x="578" y="57" on="0"/>
        <pt x="502" y="15" on="0"/>
        <pt x="417" y="-6" on="0"/>
        <pt x="377" y="-6" on="1"/>
        <pt x="304" y="-6" on="0"/>
        <pt x="183" y="58" on="0"/>
        <pt x="95" y="161" on="0"/>
        <pt x="46" y="292" on="0"/>
      </contour>
    </TTGlyph>
    <TTGlyph name="Ccaron" xMin="46" yMin="-6" xMax="658" yMax="918">
      <contour>
        <pt x="295" y="918" on="1"/>
        <pt x="380" y="855" on="1"/>
        <pt x="465" y="918" on="1"/>
        <pt x="488" y="904" on="1"/>
        <pt x="393" y="826" on="1"/>
        <pt x="367" y="826" on="1"/>
        <pt x="273" y="904" on="1"/>
      </contour>
      <contour>
        <pt x="46" y="360" on="1"/>
        <pt x="46" y="424" on="0"/>
        <pt x="91" y="550" on="0"/>
        <pt x="177" y="651" on="0"/>
        <pt x="302" y="714" on="0"/>
        <pt x="382" y="714" on="1"/>
        <pt x="477" y="714" on="0"/>
        <pt x="610" y="627" on="0"/>
        <pt x="642" y="559" on="1"/>
        <pt x="612" y="545" on="1"/>
        <pt x="592" y="583" on="0"/>
        <pt x="539" y="635" on="0"/>
        <pt x="477" y="667" on="0"/>
        <pt x="411" y="681" on="0"/>
        <pt x="378" y="681" on="1"/>
        <pt x="307" y="681" on="0"/>
        <pt x="196" y="624" on="0"/>
        <pt x="120" y="532" on="0"/>
        <pt x="81" y="416" on="0"/>
        <pt x="81" y="357" on="1"/>
        <pt x="81" y="292" on="0"/>
        <pt x="127" y="172" on="0"/>
        <pt x="208" y="81" on="0"/>
        <pt x="318" y="27" on="0"/>
        <pt x="381" y="27" on="1"/>
        <pt x="415" y="27" on="0"/>
        <pt x="485" y="44" on="0"/>
        <pt x="551" y="79" on="0"/>
        <pt x="607" y="133" on="0"/>
        <pt x="627" y="171" on="1"/>
        <pt x="658" y="159" on="1"/>
        <pt x="640" y="119" on="0"/>
        <pt x="578" y="57" on="0"/>
        <pt x="502" y="15" on="0"/>
        <pt x="417" y="-6" on="0"/>
        <pt x="377" y="-6" on="1"/>
        <pt x="304" y="-6" on="0"/>
        <pt x="183" y="58" on="0"/>
        <pt x="95" y="161" on="0"/>
        <pt x="46" y="292" on="0"/>
      </contour>
    </TTGlyph>
    <TTGlyph name="Ccedilla" xMin="42" yMin="-166" xMax="654" yMax="714">
      <contour>
        <pt x="299" y="-125" on="1"/>
        <pt x="313" y="-132" on="0"/>
        <pt x="360" y="-143" on="0"/>
        <pt x="386" y="-143" on="1"/>
        <pt x="415" y="-143" on="0"/>
        <pt x="444" y="-126" on="0"/>
        <pt x="444" y="-106" on="1"/>
        <pt x="444" y="-85" on="0"/>
        <pt x="417" y="-69" on="0"/>
        <pt x="395" y="-69" on="1"/>
        <pt x="374" y="-69" on="0"/>
        <pt x="328" y="-79" on="0"/>
        <pt x="314" y="-84" on="1"/>
        <pt x="358" y="-5" on="1"/>
        <pt x="288" y="-2" on="0"/>
        <pt x="172" y="63" on="0"/>
        <pt x="88" y="166" on="0"/>
        <pt x="42" y="294" on="0"/>
        <pt x="42" y="360" on="1"/>
        <pt x="42" y="424" on="0"/>
        <pt x="87" y="550" on="0"/>
        <pt x="173" y="651" on="0"/>
        <pt x="298" y="714" on="0"/>
        <pt x="378" y="714" on="1"/>
        <pt x="473" y="714" on="0"/>
        <pt x="606" y="627" on="0"/>
        <pt x="638" y="559" on="1"/>
        <pt x="608" y="545" on="1"/>
        <pt x="588" y="583" on="0"/>
        <pt x="535" y="635" on="0"/>
        <pt x="473" y="667" on="0"/>
        <pt x="407" y="681" on="0"/>
        <pt x="374" y="681" on="1"/>
        <pt x="303" y="681" on="0"/>
        <pt x="192" y="624" on="0"/>
        <pt x="116" y="532" on="0"/>
        <pt x="77" y="416" on="0"/>
        <pt x="77" y="357" on="1"/>
        <pt x="77" y="292" on="0"/>
        <pt x="123" y="172" on="0"/>
        <pt x="204" y="81" on="0"/>
        <pt x="314" y="27" on="0"/>
        <pt x="377" y="27" on="1"/>
        <pt x="411" y="27" on="0"/>
        <pt x="481" y="44" on="0"/>
        <pt x="547" y="79" on="0"/>
        <pt x="603" y="133" on="0"/>
        <pt x="623" y="171" on="1"/>
        <pt x="654" y="159" on="1"/>
        <pt x="637" y="121" on="0"/>
        <pt x="579" y="61" on="0"/>
        <pt x="507" y="20" on="0"/>
        <pt x="427" y="-3" on="0"/>
        <pt x="388" y="-5" on="1"/>
        <pt x="358" y="-55" on="1"/>
        <pt x="368" y="-51" on="0"/>
        <pt x="391" y="-49" on="0"/>
        <pt x="399" y="-49" on="1"/>
        <pt x="469" y="-49" on="0"/>
        <pt x="469" y="-105" on="1"/>
        <pt x="469" y="-137" on="0"/>
        <pt x="424" y="-166" on="0"/>
        <pt x="382" y="-166" on="1"/>
        <pt x="355" y="-166" on="0"/>
        <pt x="306" y="-155" on="0"/>
        <pt x="287" y="-147" on="1"/>
      </contour>
    </TTGlyph>
    <TTGlyph name="Ccircumflex" xMin="46" yMin="-6" xMax="658" yMax="918">
      <contour>
        <pt x="273" y="841" on="1"/>
        <pt x="367" y="918" on="1"/>
        <pt x="393" y="918" on="1"/>
        <pt x="488" y="841" on="1"/>
        <pt x="465" y="826" on="1"/>
        <pt x="380" y="889" on="1"/>
        <pt x="295" y="826" on="1"/>
      </contour>
      <contour>
        <pt x="46" y="360" on="1"/>
        <pt x="46" y="424" on="0"/>
        <pt x="91" y="550" on="0"/>
        <pt x="177" y="651" on="0"/>
        <pt x="302" y="714" on="0"/>
        <pt x="382" y="714" on="1"/>
        <pt x="477" y="714" on="0"/>
        <pt x="610" y="627" on="0"/>
        <pt x="642" y="559" on="1"/>
        <pt x="612" y="545" on="1"/>
        <pt x="592" y="583" on="0"/>
        <pt x="539" y="635" on="0"/>
        <pt x="477" y="667" on="0"/>
        <pt x="411" y="681" on="0"/>
        <pt x="378" y="681" on="1"/>
        <pt x="307" y="681" on="0"/>
        <pt x="196" y="624" on="0"/>
        <pt x="120" y="532" on="0"/>
        <pt x="81" y="416" on="0"/>
        <pt x="81" y="357" on="1"/>
        <pt x="81" y="292" on="0"/>
        <pt x="127" y="172" on="0"/>
        <pt x="208" y="81" on="0"/>
        <pt x="318" y="27" on="0"/>
        <pt x="381" y="27" on="1"/>
        <pt x="415" y="27" on="0"/>
        <pt x="485" y="44" on="0"/>
        <pt x="551" y="79" on="0"/>
        <pt x="607" y="133" on="0"/>
        <pt x="627" y="171" on="1"/>
        <pt x="658" y="159" on="1"/>
        <pt x="640" y="119" on="0"/>
        <pt x="578" y="57" on="0"/>
        <pt x="502" y="15" on="0"/>
        <pt x="417" y="-6" on="0"/>
        <pt x="377" y="-6" on="1"/>
        <pt x="304" y="-6" on="0"/>
        <pt x="183" y="58" on="0"/>
        <pt x="95" y="161" on="0"/>
        <pt x="46" y="292" on="0"/>
      </contour>
    </TTGlyph>
    <TTGlyph name="Cdotaccent" xMin="46" yMin="-6" xMax="658" yMax="918">
      <contour>
        <pt x="46" y="360" on="1"/>
        <pt x="46" y="424" on="0"/>
        <pt x="91" y="550" on="0"/>
        <pt x="177" y="651" on="0"/>
        <pt x="302" y="714" on="0"/>
        <pt x="382" y="714" on="1"/>
        <pt x="477" y="714" on="0"/>
        <pt x="610" y="627" on="0"/>
        <pt x="642" y="559" on="1"/>
        <pt x="612" y="545" on="1"/>
        <pt x="592" y="583" on="0"/>
        <pt x="539" y="635" on="0"/>
        <pt x="477" y="667" on="0"/>
        <pt x="411" y="681" on="0"/>
        <pt x="378" y="681" on="1"/>
        <pt x="307" y="681" on="0"/>
        <pt x="196" y="624" on="0"/>
        <pt x="120" y="532" on="0"/>
        <pt x="81" y="416" on="0"/>
        <pt x="81" y="357" on="1"/>
        <pt x="81" y="292" on="0"/>
        <pt x="127" y="172" on="0"/>
        <pt x="208" y="81" on="0"/>
        <pt x="318" y="27" on="0"/>
        <pt x="381" y="27" on="1"/>
        <pt x="415" y="27" on="0"/>
        <pt x="485" y="44" on="0"/>
        <pt x="551" y="79" on="0"/>
        <pt x="607" y="133" on="0"/>
        <pt x="627" y="171" on="1"/>
        <pt x="658" y="159" on="1"/>
        <pt x="640" y="119" on="0"/>
        <pt x="578" y="57" on="0"/>
        <pt x="502" y="15" on="0"/>
        <pt x="417" y="-6" on="0"/>
        <pt x="377" y="-6" on="1"/>
        <pt x="304" y="-6" on="0"/>
        <pt x="183" y="58" on="0"/>
        <pt x="95" y="161" on="0"/>
        <pt x="46" y="292" on="0"/>
      </contour>
      <contour>
        <pt x="364" y="835" on="1"/>
        <pt x="364" y="918" on="1"/>
        <pt x="396" y="918" on="1"/>
        <pt x="396" y="835" on="1"/>
      </contour>
    </TTGlyph>
    <TTGlyph name="D" xMin="96" yMin="0" xMax="663" yMax="710">
      <contour>
        <pt x="96" y="0" on="1"/>
        <pt x="96" y="710" on="1"/>
        <pt x="328" y="710" on="1"/>
        <pt x="412" y="710" on="0"/>
        <pt x="538" y="654" on="0"/>
        <pt x="621" y="558" on="0"/>
        <pt x="663" y="429" on="0"/>
        <pt x="663" y="356" on="1"/>
        <pt x="663" y="275" on="0"/>
        <pt x="616" y="144" on="0"/>
        <pt x="529" y="51" on="0"/>
        <pt x="405" y="0" on="0"/>
        <pt x="328" y="0" on="1"/>
      </contour>
      <contour>
        <pt x="628" y="356" on="1"/>
        <pt x="628" y="426" on="0"/>
        <pt x="589" y="544" on="0"/>
        <pt x="512" y="630" on="0"/>
        <pt x="400" y="678" on="0"/>
        <pt x="328" y="678" on="1"/>
        <pt x="131" y="678" on="1"/>
        <pt x="131" y="32" on="1"/>
        <pt x="328" y="32" on="1"/>
        <pt x="402" y="32" on="0"/>
        <pt x="514" y="81" on="0"/>
        <pt x="590" y="168" on="0"/>
        <pt x="628" y="287" on="0"/>
      </contour>
    </TTGlyph>
    <TTGlyph name="D.sc" xMin="92" yMin="0" xMax="562" yMax="542">
      <contour>
        <pt x="92" y="0" on="1"/>
        <pt x="92" y="542" on="1"/>
        <pt x="284" y="542" on="1"/>
        <pt x="354" y="542" on="0"/>
        <pt x="458" y="500" on="0"/>
        <pt x="527" y="427" on="0"/>
        <pt x="562" y="328" on="0"/>
        <pt x="562" y="272" on="1"/>
        <pt x="562" y="210" on="0"/>
        <pt x="523" y="110" on="0"/>
        <pt x="450" y="39" on="0"/>
        <pt x="347" y="0" on="0"/>
        <pt x="284" y="0" on="1"/>
      </contour>
      <contour>
        <pt x="529" y="272" on="1"/>
        <pt x="529" y="324" on="0"/>
        <pt x="497" y="413" on="0"/>
        <pt x="435" y="476" on="0"/>
        <pt x="343" y="512" on="0"/>
        <pt x="284" y="512" on="1"/>
        <pt x="124" y="512" on="1"/>
        <pt x="124" y="30" on="1"/>
        <pt x="284" y="30" on="1"/>
        <pt x="344" y="30" on="0"/>
        <pt x="436" y="67" on="0"/>
        <pt x="498" y="132" on="0"/>
        <pt x="529" y="220" on="0"/>
      </contour>
    </TTGlyph>
    <TTGlyph name="Dcaron" xMin="96" yMin="0" xMax="663" yMax="918">
      <contour>
        <pt x="265" y="918" on="1"/>
        <pt x="350" y="855" on="1"/>
        <pt x="435" y="918" on="1"/>
        <pt x="458" y="904" on="1"/>
        <pt x="363" y="826" on="1"/>
        <pt x="337" y="826" on="1"/>
        <pt x="243" y="904" on="1"/>
      </contour>
      <contour>
        <pt x="96" y="0" on="1"/>
        <pt x="96" y="710" on="1"/>
        <pt x="328" y="710" on="1"/>
        <pt x="412" y="710" on="0"/>
        <pt x="538" y="654" on="0"/>
        <pt x="621" y="558" on="0"/>
        <pt x="663" y="429" on="0"/>
        <pt x="663" y="356" on="1"/>
        <pt x="663" y="275" on="0"/>
        <pt x="616" y="144" on="0"/>
        <pt x="529" y="51" on="0"/>
        <pt x="405" y="0" on="0"/>
        <pt x="328" y="0" on="1"/>
      </contour>
      <contour>
        <pt x="628" y="356" on="1"/>
        <pt x="628" y="426" on="0"/>
        <pt x="589" y="544" on="0"/>
        <pt x="512" y="630" on="0"/>
        <pt x="400" y="678" on="0"/>
        <pt x="328" y="678" on="1"/>
        <pt x="131" y="678" on="1"/>
        <pt x="131" y="32" on="1"/>
        <pt x="328" y="32" on="1"/>
        <pt x="402" y="32" on="0"/>
        <pt x="514" y="81" on="0"/>
        <pt x="590" y="168" on="0"/>
        <pt x="628" y="287" on="0"/>
      </contour>
    </TTGlyph>
    <TTGlyph name="Dcroat" xMin="35" yMin="0" xMax="670" yMax="710">
      <contour>
        <pt x="103" y="0" on="1"/>
        <pt x="103" y="342" on="1"/>
        <pt x="35" y="342" on="1"/>
        <pt x="35" y="372" on="1"/>
        <pt x="103" y="372" on="1"/>
        <pt x="103" y="710" on="1"/>
        <pt x="335" y="710" on="1"/>
        <pt x="419" y="710" on="0"/>
        <pt x="545" y="654" on="0"/>
        <pt x="628" y="558" on="0"/>
        <pt x="670" y="429" on="0"/>
        <pt x="670" y="356" on="1"/>
        <pt x="670" y="275" on="0"/>
        <pt x="623" y="144" on="0"/>
        <pt x="536" y="51" on="0"/>
        <pt x="412" y="0" on="0"/>
        <pt x="335" y="0" on="1"/>
      </contour>
      <contour>
        <pt x="635" y="356" on="1"/>
        <pt x="635" y="426" on="0"/>
        <pt x="596" y="544" on="0"/>
        <pt x="519" y="630" on="0"/>
        <pt x="407" y="678" on="0"/>
        <pt x="335" y="678" on="1"/>
        <pt x="138" y="678" on="1"/>
        <pt x="138" y="372" on="1"/>
        <pt x="323" y="372" on="1"/>
        <pt x="323" y="342" on="1"/>
        <pt x="138" y="342" on="1"/>
        <pt x="138" y="32" on="1"/>
        <pt x="335" y="32" on="1"/>
        <pt x="409" y="32" on="0"/>
        <pt x="521" y="81" on="0"/>
        <pt x="597" y="168" on="0"/>
        <pt x="635" y="287" on="0"/>
      </contour>
    </TTGlyph>
    <TTGlyph name="Ddotbelow" xMin="96" yMin="-138" xMax="663" yMax="710">
      <contour>
        <pt x="322" y="-138" on="1"/>
        <pt x="322" y="-55" on="1"/>
        <pt x="354" y="-55" on="1"/>
        <pt x="354" y="-138" on="1"/>
      </contour>
      <contour>
        <pt x="96" y="0" on="1"/>
        <pt x="96" y="710" on="1"/>
        <pt x="328" y="710" on="1"/>
        <pt x="412" y="710" on="0"/>
        <pt x="538" y="654" on="0"/>
        <pt x="621" y="558" on="0"/>
        <pt x="663" y="429" on="0"/>
        <pt x="663" y="356" on="1"/>
        <pt x="663" y="275" on="0"/>
        <pt x="616" y="144" on="0"/>
        <pt x="529" y="51" on="0"/>
        <pt x="405" y="0" on="0"/>
        <pt x="328" y="0" on="1"/>
      </contour>
      <contour>
        <pt x="628" y="356" on="1"/>
        <pt x="628" y="426" on="0"/>
        <pt x="589" y="544" on="0"/>
        <pt x="512" y="630" on="0"/>
        <pt x="400" y="678" on="0"/>
        <pt x="328" y="678" on="1"/>
        <pt x="131" y="678" on="1"/>
        <pt x="131" y="32" on="1"/>
        <pt x="328" y="32" on="1"/>
        <pt x="402" y="32" on="0"/>
        <pt x="514" y="81" on="0"/>
        <pt x="590" y="168" on="0"/>
        <pt x="628" y="287" on="0"/>
      </contour>
    </TTGlyph>
    <TTGlyph name="Delta" xMin="4" yMin="0" xMax="604" yMax="710">
      <contour>
        <pt x="604" y="30" on="1"/>
        <pt x="604" y="0" on="1"/>
        <pt x="5" y="0" on="1"/>
        <pt x="4" y="30" on="1"/>
        <pt x="290" y="710" on="1"/>
        <pt x="319" y="710" on="1"/>
      </contour>
      <contour>
        <pt x="566" y="32" on="1"/>
        <pt x="304" y="666" on="1"/>
        <pt x="42" y="32" on="1"/>
      </contour>
    </TTGlyph>
    <TTGlyph name="E" xMin="96" yMin="0" xMax="565" yMax="710">
      <contour>
        <pt x="565" y="32" on="1"/>
        <pt x="565" y="0" on="1"/>
        <pt x="96" y="0" on="1"/>
        <pt x="96" y="710" on="1"/>
        <pt x="556" y="710" on="1"/>
        <pt x="556" y="678" on="1"/>
        <pt x="131" y="678" on="1"/>
        <pt x="131" y="379" on="1"/>
        <pt x="503" y="379" on="1"/>
        <pt x="503" y="347" on="1"/>
        <pt x="131" y="347" on="1"/>
        <pt x="131" y="32" on="1"/>
      </contour>
    </TTGlyph>
    <TTGlyph name="E.sc" xMin="92" yMin="0" xMax="481" yMax="542">
      <contour>
        <pt x="481" y="30" on="1"/>
        <pt x="481" y="0" on="1"/>
        <pt x="92" y="0" on="1"/>
        <pt x="92" y="542" on="1"/>
        <pt x="473" y="542" on="1"/>
        <pt x="473" y="512" on="1"/>
        <pt x="124" y="512" on="1"/>
        <pt x="124" y="291" on="1"/>
        <pt x="430" y="291" on="1"/>
        <pt x="430" y="262" on="1"/>
        <pt x="124" y="262" on="1"/>
        <pt x="124" y="30" on="1"/>
      </contour>
    </TTGlyph>
    <TTGlyph name="Eacute" xMin="96" yMin="0" xMax="565" yMax="918">
      <contour>
        <pt x="334" y="826" on="1"/>
        <pt x="310" y="839" on="1"/>
        <pt x="372" y="918" on="1"/>
        <pt x="417" y="918" on="1"/>
      </contour>
      <contour>
        <pt x="565" y="32" on="1"/>
        <pt x="565" y="0" on="1"/>
        <pt x="96" y="0" on="1"/>
        <pt x="96" y="710" on="1"/>
        <pt x="556" y="710" on="1"/>
        <pt x="556" y="678" on="1"/>
        <pt x="131" y="678" on="1"/>
        <pt x="131" y="379" on="1"/>
        <pt x="503" y="379" on="1"/>
        <pt x="503" y="347" on="1"/>
        <pt x="131" y="347" on="1"/>
        <pt x="131" y="32" on="1"/>
      </contour>
    </TTGlyph>
    <TTGlyph name="Ebreve" xMin="96" yMin="0" xMax="565" yMax="918">
      <contour>
        <pt x="565" y="32" on="1"/>
        <pt x="565" y="0" on="1"/>
        <pt x="96" y="0" on="1"/>
        <pt x="96" y="710" on="1"/>
        <pt x="556" y="710" on="1"/>
        <pt x="556" y="678" on="1"/>
        <pt x="131" y="678" on="1"/>
        <pt x="131" y="379" on="1"/>
        <pt x="503" y="379" on="1"/>
        <pt x="503" y="347" on="1"/>
        <pt x="131" y="347" on="1"/>
        <pt x="131" y="32" on="1"/>
      </contour>
      <contour>
        <pt x="342" y="856" on="1"/>
        <pt x="362" y="856" on="0"/>
        <pt x="395" y="892" on="0"/>
        <pt x="398" y="918" on="1"/>
        <pt x="423" y="918" on="1"/>
        <pt x="423" y="901" on="0"/>
        <pt x="410" y="870" on="0"/>
        <pt x="387" y="847" on="0"/>
        <pt x="358" y="834" on="0"/>
        <pt x="342" y="834" on="1"/>
        <pt x="325" y="834" on="0"/>
        <pt x="296" y="847" on="0"/>
        <pt x="274" y="870" on="0"/>
        <pt x="261" y="901" on="0"/>
        <pt x="261" y="918" on="1"/>
        <pt x="287" y="918" on="1"/>
        <pt x="287" y="895" on="0"/>
        <pt x="321" y="856" on="0"/>
      </contour>
    </TTGlyph>
    <TTGlyph name="Ecaron" xMin="96" yMin="0" xMax="565" yMax="918">
      <contour>
        <pt x="257" y="918" on="1"/>
        <pt x="342" y="855" on="1"/>
        <pt x="427" y="918" on="1"/>
        <pt x="450" y="904" on="1"/>
        <pt x="355" y="826" on="1"/>
        <pt x="329" y="826" on="1"/>
        <pt x="235" y="904" on="1"/>
      </contour>
      <contour>
        <pt x="565" y="32" on="1"/>
        <pt x="565" y="0" on="1"/>
        <pt x="96" y="0" on="1"/>
        <pt x="96" y="710" on="1"/>
        <pt x="556" y="710" on="1"/>
        <pt x="556" y="678" on="1"/>
        <pt x="131" y="678" on="1"/>
        <pt x="131" y="379" on="1"/>
        <pt x="503" y="379" on="1"/>
        <pt x="503" y="347" on="1"/>
        <pt x="131" y="347" on="1"/>
        <pt x="131" y="32" on="1"/>
      </contour>
    </TTGlyph>
    <TTGlyph name="Ecircumflex" xMin="96" yMin="0" xMax="565" yMax="918">
      <contour>
        <pt x="235" y="841" on="1"/>
        <pt x="329" y="918" on="1"/>
        <pt x="355" y="918" on="1"/>
        <pt x="450" y="841" on="1"/>
        <pt x="427" y="826" on="1"/>
        <pt x="342" y="889" on="1"/>
        <pt x="257" y="826" on="1"/>
      </contour>
      <contour>
        <pt x="565" y="32" on="1"/>
        <pt x="565" y="0" on="1"/>
        <pt x="96" y="0" on="1"/>
        <pt x="96" y="710" on="1"/>
        <pt x="556" y="710" on="1"/>
        <pt x="556" y="678" on="1"/>
        <pt x="131" y="678" on="1"/>
        <pt x="131" y="379" on="1"/>
        <pt x="503" y="379" on="1"/>
        <pt x="503" y="347" on="1"/>
        <pt x="131" y="347" on="1"/>
        <pt x="131" y="32" on="1"/>
      </contour>
    </TTGlyph>
    <TTGlyph name="Edblgrave" xMin="96" yMin="0" xMax="565" yMax="918">
      <contour>
        <pt x="305" y="918" on="1"/>
        <pt x="347" y="918" on="1"/>
        <pt x="409" y="839" on="1"/>
        <pt x="387" y="826" on="1"/>
      </contour>
      <contour>
        <pt x="197" y="918" on="1"/>
        <pt x="240" y="918" on="1"/>
        <pt x="302" y="839" on="1"/>
        <pt x="280" y="826" on="1"/>
      </contour>
      <contour>
        <pt x="565" y="32" on="1"/>
        <pt x="565" y="0" on="1"/>
        <pt x="96" y="0" on="1"/>
        <pt x="96" y="710" on="1"/>
        <pt x="556" y="710" on="1"/>
        <pt x="556" y="678" on="1"/>
        <pt x="131" y="678" on="1"/>
        <pt x="131" y="379" on="1"/>
        <pt x="503" y="379" on="1"/>
        <pt x="503" y="347" on="1"/>
        <pt x="131" y="347" on="1"/>
        <pt x="131" y="32" on="1"/>
      </contour>
    </TTGlyph>
    <TTGlyph name="Edieresis" xMin="96" yMin="0" xMax="565" yMax="917">
      <contour>
        <pt x="263" y="835" on="1"/>
        <pt x="263" y="917" on="1"/>
        <pt x="294" y="917" on="1"/>
        <pt x="294" y="835" on="1"/>
      </contour>
      <contour>
        <pt x="389" y="835" on="1"/>
        <pt x="389" y="917" on="1"/>
        <pt x="420" y="917" on="1"/>
        <pt x="420" y="835" on="1"/>
      </contour>
      <contour>
        <pt x="565" y="32" on="1"/>
        <pt x="565" y="0" on="1"/>
        <pt x="96" y="0" on="1"/>
        <pt x="96" y="710" on="1"/>
        <pt x="556" y="710" on="1"/>
        <pt x="556" y="678" on="1"/>
        <pt x="131" y="678" on="1"/>
        <pt x="131" y="379" on="1"/>
        <pt x="503" y="379" on="1"/>
        <pt x="503" y="347" on="1"/>
        <pt x="131" y="347" on="1"/>
        <pt x="131" y="32" on="1"/>
      </contour>
    </TTGlyph>
    <TTGlyph name="Edotaccent" xMin="96" yMin="0" xMax="565" yMax="918">
      <contour>
        <pt x="565" y="32" on="1"/>
        <pt x="565" y="0" on="1"/>
        <pt x="96" y="0" on="1"/>
        <pt x="96" y="710" on="1"/>
        <pt x="556" y="710" on="1"/>
        <pt x="556" y="678" on="1"/>
        <pt x="131" y="678" on="1"/>
        <pt x="131" y="379" on="1"/>
        <pt x="503" y="379" on="1"/>
        <pt x="503" y="347" on="1"/>
        <pt x="131" y="347" on="1"/>
        <pt x="131" y="32" on="1"/>
      </contour>
      <contour>
        <pt x="326" y="835" on="1"/>
        <pt x="326" y="918" on="1"/>
        <pt x="358" y="918" on="1"/>
        <pt x="358" y="835" on="1"/>
      </contour>
    </TTGlyph>
    <TTGlyph name="Edotbelow" xMin="96" yMin="-138" xMax="565" yMax="710">
      <contour>
        <pt x="565" y="32" on="1"/>
        <pt x="565" y="0" on="1"/>
        <pt x="96" y="0" on="1"/>
        <pt x="96" y="710" on="1"/>
        <pt x="556" y="710" on="1"/>
        <pt x="556" y="678" on="1"/>
        <pt x="131" y="678" on="1"/>
        <pt x="131" y="379" on="1"/>
        <pt x="503" y="379" on="1"/>
        <pt x="503" y="347" on="1"/>
        <pt x="131" y="347" on="1"/>
        <pt x="131" y="32" on="1"/>
      </contour>
      <contour>
        <pt x="319" y="-138" on="1"/>
        <pt x="319" y="-55" on="1"/>
        <pt x="351" y="-55" on="1"/>
        <pt x="351" y="-138" on="1"/>
      </contour>
    </TTGlyph>
    <TTGlyph name="Egrave" xMin="96" yMin="0" xMax="565" yMax="918">
      <contour>
        <pt x="565" y="32" on="1"/>
        <pt x="565" y="0" on="1"/>
        <pt x="96" y="0" on="1"/>
        <pt x="96" y="710" on="1"/>
        <pt x="556" y="710" on="1"/>
        <pt x="556" y="678" on="1"/>
        <pt x="131" y="678" on="1"/>
        <pt x="131" y="379" on="1"/>
        <pt x="503" y="379" on="1"/>
        <pt x="503" y="347" on="1"/>
        <pt x="131" y="347" on="1"/>
        <pt x="131" y="32" on="1"/>
      </contour>
      <contour>
        <pt x="267" y="918" on="1"/>
        <pt x="311" y="918" on="1"/>
        <pt x="374" y="839" on="1"/>
        <pt x="350" y="826" on="1"/>
      </contour>
    </TTGlyph>
    <TTGlyph name="Einvertedbreve" xMin="96" yMin="0" xMax="565" yMax="918">
      <contour>
        <pt x="330" y="896" on="1"/>
        <pt x="309" y="896" on="0"/>
        <pt x="275" y="857" on="0"/>
        <pt x="275" y="834" on="1"/>
        <pt x="249" y="834" on="1"/>
        <pt x="249" y="851" on="0"/>
        <pt x="262" y="882" on="0"/>
        <pt x="284" y="905" on="0"/>
        <pt x="313" y="918" on="0"/>
        <pt x="330" y="918" on="1"/>
        <pt x="346" y="918" on="0"/>
        <pt x="375" y="905" on="0"/>
        <pt x="398" y="882" on="0"/>
        <pt x="411" y="851" on="0"/>
        <pt x="411" y="834" on="1"/>
        <pt x="386" y="834" on="1"/>
        <pt x="383" y="860" on="0"/>
        <pt x="350" y="896" on="0"/>
      </contour>
      <contour>
        <pt x="565" y="32" on="1"/>
        <pt x="565" y="0" on="1"/>
        <pt x="96" y="0" on="1"/>
        <pt x="96" y="710" on="1"/>
        <pt x="556" y="710" on="1"/>
        <pt x="556" y="678" on="1"/>
        <pt x="131" y="678" on="1"/>
        <pt x="131" y="379" on="1"/>
        <pt x="503" y="379" on="1"/>
        <pt x="503" y="347" on="1"/>
        <pt x="131" y="347" on="1"/>
        <pt x="131" y="32" on="1"/>
      </contour>
    </TTGlyph>
    <TTGlyph name="Emacron" xMin="96" yMin="0" xMax="565" yMax="895">
      <contour>
        <pt x="565" y="32" on="1"/>
        <pt x="565" y="0" on="1"/>
        <pt x="96" y="0" on="1"/>
        <pt x="96" y="710" on="1"/>
        <pt x="556" y="710" on="1"/>
        <pt x="556" y="678" on="1"/>
        <pt x="131" y="678" on="1"/>
        <pt x="131" y="379" on="1"/>
        <pt x="503" y="379" on="1"/>
        <pt x="503" y="347" on="1"/>
        <pt x="131" y="347" on="1"/>
        <pt x="131" y="32" on="1"/>
      </contour>
      <contour>
        <pt x="201" y="867" on="1"/>
        <pt x="201" y="895" on="1"/>
        <pt x="484" y="895" on="1"/>
        <pt x="484" y="867" on="1"/>
      </contour>
    </TTGlyph>
    <TTGlyph name="Eng" xMin="96" yMin="-173" xMax="677" yMax="710">
      <contour>
        <pt x="131" y="644" on="1"/>
        <pt x="131" y="0" on="1"/>
        <pt x="96" y="0" on="1"/>
        <pt x="96" y="710" on="1"/>
        <pt x="122" y="710" on="1"/>
        <pt x="643" y="56" on="1"/>
        <pt x="643" y="709" on="1"/>
        <pt x="677" y="709" on="1"/>
        <pt x="677" y="-33" on="1"/>
        <pt x="677" y="-64" on="0"/>
        <pt x="652" y="-115" on="0"/>
        <pt x="612" y="-152" on="0"/>
        <pt x="563" y="-173" on="0"/>
        <pt x="538" y="-173" on="1"/>
        <pt x="508" y="-173" on="0"/>
        <pt x="454" y="-158" on="0"/>
        <pt x="434" y="-138" on="1"/>
        <pt x="455" y="-116" on="1"/>
        <pt x="472" y="-131" on="0"/>
        <pt x="515" y="-141" on="0"/>
        <pt x="535" y="-141" on="1"/>
        <pt x="555" y="-141" on="0"/>
        <pt x="594" y="-124" on="0"/>
        <pt x="624" y="-95" on="0"/>
        <pt x="643" y="-56" on="0"/>
        <pt x="643" y="-33" on="1"/>
        <pt x="643" y="0" on="1"/>
      </contour>
    </TTGlyph>
    <TTGlyph name="Eogonek" xMin="96" yMin="-164" xMax="565" yMax="710">
      <contour>
        <pt x="565" y="32" on="1"/>
        <pt x="565" y="0" on="1"/>
        <pt x="520" y="-30" on="0"/>
        <pt x="483" y="-72" on="0"/>
        <pt x="483" y="-94" on="1"/>
        <pt x="483" y="-132" on="0"/>
        <pt x="530" y="-141" on="1"/>
        <pt x="516" y="-164" on="1"/>
        <pt x="487" y="-157" on="0"/>
        <pt x="457" y="-123" on="0"/>
        <pt x="457" y="-99" on="1"/>
        <pt x="457" y="-75" on="0"/>
        <pt x="491" y="-28" on="0"/>
        <pt x="529" y="0" on="1"/>
        <pt x="96" y="0" on="1"/>
        <pt x="96" y="710" on="1"/>
        <pt x="556" y="710" on="1"/>
        <pt x="556" y="678" on="1"/>
        <pt x="131" y="678" on="1"/>
        <pt x="131" y="379" on="1"/>
        <pt x="503" y="379" on="1"/>
        <pt x="503" y="347" on="1"/>
        <pt x="131" y="347" on="1"/>
        <pt x="131" y="32" on="1"/>
      </contour>
    </TTGlyph>
    <TTGlyph name="Eth" xMin="35" yMin="0" xMax="670" yMax="710">
      <contour>
        <pt x="103" y="0" on="1"/>
        <pt x="103" y="342" on="1"/>
        <pt x="35" y="342" on="1"/>
        <pt x="35" y="372" on="1"/>
        <pt x="103" y="372" on="1"/>
        <pt x="103" y="710" on="1"/>
        <pt x="335" y="710" on="1"/>
        <pt x="419" y="710" on="0"/>
        <pt x="545" y="654" on="0"/>
        <pt x="628" y="558" on="0"/>
        <pt x="670" y="429" on="0"/>
        <pt x="670" y="356" on="1"/>
        <pt x="670" y="275" on="0"/>
        <pt x="623" y="144" on="0"/>
        <pt x="536" y="51" on="0"/>
        <pt x="412" y="0" on="0"/>
        <pt x="335" y="0" on="1"/>
      </contour>
      <contour>
        <pt x="635" y="356" on="1"/>
        <pt x="635" y="426" on="0"/>
        <pt x="596" y="544" on="0"/>
        <pt x="519" y="630" on="0"/>
        <pt x="407" y="678" on="0"/>
        <pt x="335" y="678" on="1"/>
        <pt x="138" y="678" on="1"/>
        <pt x="138" y="372" on="1"/>
        <pt x="323" y="372" on="1"/>
        <pt x="323" y="342" on="1"/>
        <pt x="138" y="342" on="1"/>
        <pt x="138" y="32" on="1"/>
        <pt x="335" y="32" on="1"/>
        <pt x="409" y="32" on="0"/>
        <pt x="521" y="81" on="0"/>
        <pt x="597" y="168" on="0"/>
        <pt x="635" y="287" on="0"/>
      </contour>
    </TTGlyph>
    <TTGlyph name="Etilde" xMin="96" yMin="0" xMax="565" yMax="918">
      <contour>
        <pt x="565" y="32" on="1"/>
        <pt x="565" y="0" on="1"/>
        <pt x="96" y="0" on="1"/>
        <pt x="96" y="710" on="1"/>
        <pt x="556" y="710" on="1"/>
        <pt x="556" y="678" on="1"/>
        <pt x="131" y="678" on="1"/>
        <pt x="131" y="379" on="1"/>
        <pt x="503" y="379" on="1"/>
        <pt x="503" y="347" on="1"/>
        <pt x="131" y="347" on="1"/>
        <pt x="131" y="32" on="1"/>
      </contour>
      <contour>
        <pt x="403" y="844" on="1"/>
        <pt x="381" y="844" on="0"/>
        <pt x="348" y="856" on="0"/>
        <pt x="319" y="870" on="0"/>
        <pt x="293" y="882" on="0"/>
        <pt x="277" y="882" on="1"/>
        <pt x="261" y="882" on="0"/>
        <pt x="241" y="869" on="0"/>
        <pt x="231" y="852" on="0"/>
        <pt x="227" y="836" on="0"/>
        <pt x="227" y="834" on="1"/>
        <pt x="200" y="834" on="1"/>
        <pt x="200" y="837" on="0"/>
        <pt x="205" y="862" on="0"/>
        <pt x="222" y="888" on="0"/>
        <pt x="253" y="909" on="0"/>
        <pt x="279" y="909" on="1"/>
        <pt x="299" y="909" on="0"/>
        <pt x="329" y="897" on="0"/>
        <pt x="356" y="882" on="0"/>
        <pt x="385" y="870" on="0"/>
        <pt x="404" y="870" on="1"/>
        <pt x="425" y="870" on="0"/>
        <pt x="448" y="884" on="0"/>
        <pt x="460" y="901" on="0"/>
        <pt x="463" y="916" on="0"/>
        <pt x="463" y="918" on="1"/>
        <pt x="489" y="918" on="1"/>
        <pt x="489" y="914" on="0"/>
        <pt x="483" y="890" on="0"/>
        <pt x="465" y="864" on="0"/>
        <pt x="431" y="844" on="0"/>
      </contour>
    </TTGlyph>
    <TTGlyph name="Euro" xMin="33" yMin="-6" xMax="757" yMax="714">
      <contour>
        <pt x="148" y="405" on="1"/>
        <pt x="155" y="463" on="0"/>
        <pt x="206" y="575" on="0"/>
        <pt x="291" y="661" on="0"/>
        <pt x="408" y="714" on="0"/>
        <pt x="481" y="714" on="1"/>
        <pt x="576" y="714" on="0"/>
        <pt x="709" y="627" on="0"/>
        <pt x="741" y="559" on="1"/>
        <pt x="711" y="545" on="1"/>
        <pt x="691" y="583" on="0"/>
        <pt x="638" y="635" on="0"/>
        <pt x="576" y="667" on="0"/>
        <pt x="510" y="681" on="0"/>
        <pt x="477" y="681" on="1"/>
        <pt x="413" y="681" on="0"/>
        <pt x="310" y="635" on="0"/>
        <pt x="236" y="558" on="0"/>
        <pt x="190" y="458" on="0"/>
        <pt x="183" y="405" on="1"/>
        <pt x="561" y="405" on="1"/>
        <pt x="549" y="379" on="1"/>
        <pt x="181" y="379" on="1"/>
        <pt x="180" y="373" on="0"/>
        <pt x="180" y="362" on="0"/>
        <pt x="180" y="357" on="1"/>
        <pt x="180" y="333" on="0"/>
        <pt x="183" y="311" on="1"/>
        <pt x="522" y="311" on="1"/>
        <pt x="510" y="284" on="1"/>
        <pt x="188" y="284" on="1"/>
        <pt x="199" y="230" on="0"/>
        <pt x="253" y="137" on="0"/>
        <pt x="330" y="67" on="0"/>
        <pt x="426" y="27" on="0"/>
        <pt x="480" y="27" on="1"/>
        <pt x="514" y="27" on="0"/>
        <pt x="584" y="44" on="0"/>
        <pt x="650" y="79" on="0"/>
        <pt x="706" y="133" on="0"/>
        <pt x="726" y="171" on="1"/>
        <pt x="757" y="159" on="1"/>
        <pt x="739" y="119" on="0"/>
        <pt x="677" y="57" on="0"/>
        <pt x="601" y="15" on="0"/>
        <pt x="516" y="-6" on="0"/>
        <pt x="476" y="-6" on="1"/>
        <pt x="413" y="-6" on="0"/>
        <pt x="306" y="42" on="0"/>
        <pt x="222" y="122" on="0"/>
        <pt x="165" y="227" on="0"/>
        <pt x="153" y="284" on="1"/>
        <pt x="33" y="284" on="1"/>
        <pt x="45" y="311" on="1"/>
        <pt x="148" y="311" on="1"/>
        <pt x="145" y="335" on="0"/>
        <pt x="145" y="360" on="1"/>
        <pt x="145" y="379" on="1"/>
        <pt x="70" y="379" on="1"/>
        <pt x="82" y="405" on="1"/>
      </contour>
    </TTGlyph>
    <TTGlyph name="F" xMin="96" yMin="0" xMax="556" yMax="710">
      <contour>
        <pt x="96" y="0" on="1"/>
        <pt x="96" y="710" on="1"/>
        <pt x="556" y="710" on="1"/>
        <pt x="556" y="678" on="1"/>
        <pt x="131" y="678" on="1"/>
        <pt x="131" y="378" on="1"/>
        <pt x="492" y="378" on="1"/>
        <pt x="492" y="347" on="1"/>
        <pt x="131" y="347" on="1"/>
        <pt x="131" y="0" on="1"/>
      </contour>
    </TTGlyph>
    <TTGlyph name="F.sc" xMin="92" yMin="0" xMax="472" yMax="542">
      <contour>
        <pt x="92" y="0" on="1"/>
        <pt x="92" y="542" on="1"/>
        <pt x="472" y="542" on="1"/>
        <pt x="472" y="512" on="1"/>
        <pt x="124" y="512" on="1"/>
        <pt x="124" y="291" on="1"/>
        <pt x="420" y="291" on="1"/>
        <pt x="420" y="261" on="1"/>
        <pt x="124" y="261" on="1"/>
        <pt x="124" y="0" on="1"/>
      </contour>
    </TTGlyph>
    <TTGlyph name="G" xMin="46" yMin="-5" xMax="660" yMax="715">
      <contour>
        <pt x="628" y="116" on="1"/>
        <pt x="520" y="-5" on="0"/>
        <pt x="380" y="-5" on="1"/>
        <pt x="307" y="-5" on="0"/>
        <pt x="184" y="58" on="0"/>
        <pt x="96" y="160" on="0"/>
        <pt x="46" y="289" on="0"/>
        <pt x="46" y="355" on="1"/>
        <pt x="46" y="425" on="0"/>
        <pt x="94" y="555" on="0"/>
        <pt x="181" y="655" on="0"/>
        <pt x="300" y="715" on="0"/>
        <pt x="371" y="715" on="1"/>
        <pt x="425" y="715" on="0"/>
        <pt x="511" y="692" on="0"/>
        <pt x="577" y="651" on="0"/>
        <pt x="625" y="594" on="0"/>
        <pt x="642" y="560" on="1"/>
        <pt x="613" y="545" on="1"/>
        <pt x="574" y="618" on="0"/>
        <pt x="450" y="682" on="0"/>
        <pt x="370" y="682" on="1"/>
        <pt x="303" y="682" on="0"/>
        <pt x="196" y="625" on="0"/>
        <pt x="121" y="533" on="0"/>
        <pt x="81" y="416" on="0"/>
        <pt x="81" y="355" on="1"/>
        <pt x="81" y="290" on="0"/>
        <pt x="128" y="172" on="0"/>
        <pt x="209" y="82" on="0"/>
        <pt x="319" y="28" on="0"/>
        <pt x="382" y="28" on="1"/>
        <pt x="449" y="28" on="0"/>
        <pt x="570" y="90" on="0"/>
        <pt x="628" y="157" on="1"/>
        <pt x="628" y="311" on="1"/>
        <pt x="464" y="311" on="1"/>
        <pt x="464" y="341" on="1"/>
        <pt x="660" y="341" on="1"/>
        <pt x="660" y="0" on="1"/>
        <pt x="628" y="0" on="1"/>
      </contour>
    </TTGlyph>
    <TTGlyph name="G.alt" xMin="46" yMin="-5" xMax="707" yMax="715">
      <contour>
        <pt x="378" y="-5" on="1"/>
        <pt x="306" y="-5" on="0"/>
        <pt x="184" y="56" on="0"/>
        <pt x="95" y="157" on="0"/>
        <pt x="46" y="287" on="0"/>
        <pt x="46" y="356" on="1"/>
        <pt x="46" y="426" on="0"/>
        <pt x="97" y="556" on="0"/>
        <pt x="186" y="656" on="0"/>
        <pt x="308" y="715" on="0"/>
        <pt x="379" y="715" on="1"/>
        <pt x="423" y="715" on="0"/>
        <pt x="502" y="692" on="0"/>
        <pt x="571" y="650" on="0"/>
        <pt x="628" y="593" on="0"/>
        <pt x="649" y="559" on="1"/>
        <pt x="623" y="536" on="1"/>
        <pt x="604" y="567" on="0"/>
        <pt x="553" y="621" on="0"/>
        <pt x="490" y="660" on="0"/>
        <pt x="417" y="682" on="0"/>
        <pt x="377" y="682" on="1"/>
        <pt x="311" y="682" on="0"/>
        <pt x="202" y="625" on="0"/>
        <pt x="124" y="533" on="0"/>
        <pt x="81" y="414" on="0"/>
        <pt x="81" y="353" on="1"/>
        <pt x="81" y="291" on="0"/>
        <pt x="125" y="174" on="0"/>
        <pt x="204" y="83" on="0"/>
        <pt x="313" y="28" on="0"/>
        <pt x="378" y="28" on="1"/>
        <pt x="438" y="28" on="0"/>
        <pt x="538" y="74" on="0"/>
        <pt x="614" y="150" on="0"/>
        <pt x="662" y="249" on="0"/>
        <pt x="670" y="302" on="1"/>
        <pt x="435" y="302" on="1"/>
        <pt x="435" y="335" on="1"/>
        <pt x="707" y="335" on="1"/>
        <pt x="707" y="330" on="0"/>
        <pt x="706" y="314" on="0"/>
        <pt x="705" y="308" on="1"/>
        <pt x="697" y="246" on="0"/>
        <pt x="643" y="133" on="0"/>
        <pt x="557" y="46" on="0"/>
        <pt x="444" y="-5" on="0"/>
      </contour>
    </TTGlyph>
    <TTGlyph name="G.sc" xMin="50" yMin="-4" xMax="557" yMax="545">
      <contour>
        <pt x="527" y="86" on="1"/>
        <pt x="440" y="-4" on="0"/>
        <pt x="325" y="-4" on="1"/>
        <pt x="265" y="-4" on="0"/>
        <pt x="164" y="44" on="0"/>
        <pt x="91" y="122" on="0"/>
        <pt x="50" y="221" on="0"/>
        <pt x="50" y="272" on="1"/>
        <pt x="50" y="325" on="0"/>
        <pt x="90" y="424" on="0"/>
        <pt x="161" y="500" on="0"/>
        <pt x="259" y="545" on="0"/>
        <pt x="318" y="545" on="1"/>
        <pt x="407" y="545" on="0"/>
        <pt x="514" y="479" on="0"/>
        <pt x="542" y="428" on="1"/>
        <pt x="514" y="412" on="1"/>
        <pt x="483" y="467" on="0"/>
        <pt x="382" y="516" on="0"/>
        <pt x="317" y="516" on="1"/>
        <pt x="263" y="516" on="0"/>
        <pt x="176" y="474" on="0"/>
        <pt x="115" y="405" on="0"/>
        <pt x="82" y="317" on="0"/>
        <pt x="82" y="271" on="1"/>
        <pt x="82" y="222" on="0"/>
        <pt x="120" y="134" on="0"/>
        <pt x="186" y="67" on="0"/>
        <pt x="276" y="27" on="0"/>
        <pt x="327" y="27" on="1"/>
        <pt x="381" y="27" on="0"/>
        <pt x="480" y="73" on="0"/>
        <pt x="527" y="123" on="1"/>
        <pt x="527" y="234" on="1"/>
        <pt x="392" y="234" on="1"/>
        <pt x="392" y="262" on="1"/>
        <pt x="557" y="262" on="1"/>
        <pt x="557" y="0" on="1"/>
        <pt x="527" y="0" on="1"/>
      </contour>
    </TTGlyph>
    <TTGlyph name="Gacute" xMin="46" yMin="-5" xMax="660" yMax="918">
      <contour>
        <pt x="362" y="826" on="1"/>
        <pt x="338" y="839" on="1"/>
        <pt x="400" y="918" on="1"/>
        <pt x="445" y="918" on="1"/>
      </contour>
      <contour>
        <pt x="628" y="116" on="1"/>
        <pt x="520" y="-5" on="0"/>
        <pt x="380" y="-5" on="1"/>
        <pt x="307" y="-5" on="0"/>
        <pt x="184" y="58" on="0"/>
        <pt x="96" y="160" on="0"/>
        <pt x="46" y="289" on="0"/>
        <pt x="46" y="355" on="1"/>
        <pt x="46" y="425" on="0"/>
        <pt x="94" y="555" on="0"/>
        <pt x="181" y="655" on="0"/>
        <pt x="300" y="715" on="0"/>
        <pt x="371" y="715" on="1"/>
        <pt x="425" y="715" on="0"/>
        <pt x="511" y="692" on="0"/>
        <pt x="577" y="651" on="0"/>
        <pt x="625" y="594" on="0"/>
        <pt x="642" y="560" on="1"/>
        <pt x="613" y="545" on="1"/>
        <pt x="574" y="618" on="0"/>
        <pt x="450" y="682" on="0"/>
        <pt x="370" y="682" on="1"/>
        <pt x="303" y="682" on="0"/>
        <pt x="196" y="625" on="0"/>
        <pt x="121" y="533" on="0"/>
        <pt x="81" y="416" on="0"/>
        <pt x="81" y="355" on="1"/>
        <pt x="81" y="290" on="0"/>
        <pt x="128" y="172" on="0"/>
        <pt x="209" y="82" on="0"/>
        <pt x="319" y="28" on="0"/>
        <pt x="382" y="28" on="1"/>
        <pt x="449" y="28" on="0"/>
        <pt x="570" y="90" on="0"/>
        <pt x="628" y="157" on="1"/>
        <pt x="628" y="311" on="1"/>
        <pt x="464" y="311" on="1"/>
        <pt x="464" y="341" on="1"/>
        <pt x="660" y="341" on="1"/>
        <pt x="660" y="0" on="1"/>
        <pt x="628" y="0" on="1"/>
      </contour>
    </TTGlyph>
    <TTGlyph name="Gbreve" xMin="46" yMin="-5" xMax="660" yMax="918">
      <contour>
        <pt x="628" y="116" on="1"/>
        <pt x="520" y="-5" on="0"/>
        <pt x="380" y="-5" on="1"/>
        <pt x="307" y="-5" on="0"/>
        <pt x="184" y="58" on="0"/>
        <pt x="96" y="160" on="0"/>
        <pt x="46" y="289" on="0"/>
        <pt x="46" y="355" on="1"/>
        <pt x="46" y="425" on="0"/>
        <pt x="94" y="555" on="0"/>
        <pt x="181" y="655" on="0"/>
        <pt x="300" y="715" on="0"/>
        <pt x="371" y="715" on="1"/>
        <pt x="425" y="715" on="0"/>
        <pt x="511" y="692" on="0"/>
        <pt x="577" y="651" on="0"/>
        <pt x="625" y="594" on="0"/>
        <pt x="642" y="560" on="1"/>
        <pt x="613" y="545" on="1"/>
        <pt x="574" y="618" on="0"/>
        <pt x="450" y="682" on="0"/>
        <pt x="370" y="682" on="1"/>
        <pt x="303" y="682" on="0"/>
        <pt x="196" y="625" on="0"/>
        <pt x="121" y="533" on="0"/>
        <pt x="81" y="416" on="0"/>
        <pt x="81" y="355" on="1"/>
        <pt x="81" y="290" on="0"/>
        <pt x="128" y="172" on="0"/>
        <pt x="209" y="82" on="0"/>
        <pt x="319" y="28" on="0"/>
        <pt x="382" y="28" on="1"/>
        <pt x="449" y="28" on="0"/>
        <pt x="570" y="90" on="0"/>
        <pt x="628" y="157" on="1"/>
        <pt x="628" y="311" on="1"/>
        <pt x="464" y="311" on="1"/>
        <pt x="464" y="341" on="1"/>
        <pt x="660" y="341" on="1"/>
        <pt x="660" y="0" on="1"/>
        <pt x="628" y="0" on="1"/>
      </contour>
      <contour>
        <pt x="370" y="856" on="1"/>
        <pt x="390" y="856" on="0"/>
        <pt x="423" y="892" on="0"/>
        <pt x="426" y="918" on="1"/>
        <pt x="451" y="918" on="1"/>
        <pt x="451" y="901" on="0"/>
        <pt x="438" y="870" on="0"/>
        <pt x="415" y="847" on="0"/>
        <pt x="386" y="834" on="0"/>
        <pt x="370" y="834" on="1"/>
        <pt x="353" y="834" on="0"/>
        <pt x="324" y="847" on="0"/>
        <pt x="302" y="870" on="0"/>
        <pt x="289" y="901" on="0"/>
        <pt x="289" y="918" on="1"/>
        <pt x="315" y="918" on="1"/>
        <pt x="315" y="895" on="0"/>
        <pt x="349" y="856" on="0"/>
      </contour>
    </TTGlyph>
    <TTGlyph name="Gcircumflex" xMin="46" yMin="-5" xMax="660" yMax="918">
      <contour>
        <pt x="263" y="841" on="1"/>
        <pt x="357" y="918" on="1"/>
        <pt x="383" y="918" on="1"/>
        <pt x="478" y="841" on="1"/>
        <pt x="455" y="826" on="1"/>
        <pt x="370" y="889" on="1"/>
        <pt x="285" y="826" on="1"/>
      </contour>
      <contour>
        <pt x="628" y="116" on="1"/>
        <pt x="520" y="-5" on="0"/>
        <pt x="380" y="-5" on="1"/>
        <pt x="307" y="-5" on="0"/>
        <pt x="184" y="58" on="0"/>
        <pt x="96" y="160" on="0"/>
        <pt x="46" y="289" on="0"/>
        <pt x="46" y="355" on="1"/>
        <pt x="46" y="425" on="0"/>
        <pt x="94" y="555" on="0"/>
        <pt x="181" y="655" on="0"/>
        <pt x="300" y="715" on="0"/>
        <pt x="371" y="715" on="1"/>
        <pt x="425" y="715" on="0"/>
        <pt x="511" y="692" on="0"/>
        <pt x="577" y="651" on="0"/>
        <pt x="625" y="594" on="0"/>
        <pt x="642" y="560" on="1"/>
        <pt x="613" y="545" on="1"/>
        <pt x="574" y="618" on="0"/>
        <pt x="450" y="682" on="0"/>
        <pt x="370" y="682" on="1"/>
        <pt x="303" y="682" on="0"/>
        <pt x="196" y="625" on="0"/>
        <pt x="121" y="533" on="0"/>
        <pt x="81" y="416" on="0"/>
        <pt x="81" y="355" on="1"/>
        <pt x="81" y="290" on="0"/>
        <pt x="128" y="172" on="0"/>
        <pt x="209" y="82" on="0"/>
        <pt x="319" y="28" on="0"/>
        <pt x="382" y="28" on="1"/>
        <pt x="449" y="28" on="0"/>
        <pt x="570" y="90" on="0"/>
        <pt x="628" y="157" on="1"/>
        <pt x="628" y="311" on="1"/>
        <pt x="464" y="311" on="1"/>
        <pt x="464" y="341" on="1"/>
        <pt x="660" y="341" on="1"/>
        <pt x="660" y="0" on="1"/>
        <pt x="628" y="0" on="1"/>
      </contour>
    </TTGlyph>
    <TTGlyph name="Gcommaaccent" xMin="46" yMin="-176" xMax="660" yMax="715">
      <contour>
        <pt x="359" y="-176" on="1"/>
        <pt x="371" y="-114" on="1"/>
        <pt x="359" y="-114" on="1"/>
        <pt x="359" y="-50" on="1"/>
        <pt x="396" y="-50" on="1"/>
        <pt x="396" y="-114" on="1"/>
        <pt x="379" y="-176" on="1"/>
      </contour>
      <contour>
        <pt x="628" y="116" on="1"/>
        <pt x="520" y="-5" on="0"/>
        <pt x="380" y="-5" on="1"/>
        <pt x="307" y="-5" on="0"/>
        <pt x="184" y="58" on="0"/>
        <pt x="96" y="160" on="0"/>
        <pt x="46" y="289" on="0"/>
        <pt x="46" y="355" on="1"/>
        <pt x="46" y="425" on="0"/>
        <pt x="94" y="555" on="0"/>
        <pt x="181" y="655" on="0"/>
        <pt x="300" y="715" on="0"/>
        <pt x="371" y="715" on="1"/>
        <pt x="425" y="715" on="0"/>
        <pt x="511" y="692" on="0"/>
        <pt x="577" y="651" on="0"/>
        <pt x="625" y="594" on="0"/>
        <pt x="642" y="560" on="1"/>
        <pt x="613" y="545" on="1"/>
        <pt x="574" y="618" on="0"/>
        <pt x="450" y="682" on="0"/>
        <pt x="370" y="682" on="1"/>
        <pt x="303" y="682" on="0"/>
        <pt x="196" y="625" on="0"/>
        <pt x="121" y="533" on="0"/>
        <pt x="81" y="416" on="0"/>
        <pt x="81" y="355" on="1"/>
        <pt x="81" y="290" on="0"/>
        <pt x="128" y="172" on="0"/>
        <pt x="209" y="82" on="0"/>
        <pt x="319" y="28" on="0"/>
        <pt x="382" y="28" on="1"/>
        <pt x="449" y="28" on="0"/>
        <pt x="570" y="90" on="0"/>
        <pt x="628" y="157" on="1"/>
        <pt x="628" y="311" on="1"/>
        <pt x="464" y="311" on="1"/>
        <pt x="464" y="341" on="1"/>
        <pt x="660" y="341" on="1"/>
        <pt x="660" y="0" on="1"/>
        <pt x="628" y="0" on="1"/>
      </contour>
    </TTGlyph>
    <TTGlyph name="Gdotaccent" xMin="46" yMin="-5" xMax="660" yMax="918">
      <contour>
        <pt x="628" y="116" on="1"/>
        <pt x="520" y="-5" on="0"/>
        <pt x="380" y="-5" on="1"/>
        <pt x="307" y="-5" on="0"/>
        <pt x="184" y="58" on="0"/>
        <pt x="96" y="160" on="0"/>
        <pt x="46" y="289" on="0"/>
        <pt x="46" y="355" on="1"/>
        <pt x="46" y="425" on="0"/>
        <pt x="94" y="555" on="0"/>
        <pt x="181" y="655" on="0"/>
        <pt x="300" y="715" on="0"/>
        <pt x="371" y="715" on="1"/>
        <pt x="425" y="715" on="0"/>
        <pt x="511" y="692" on="0"/>
        <pt x="577" y="651" on="0"/>
        <pt x="625" y="594" on="0"/>
        <pt x="642" y="560" on="1"/>
        <pt x="613" y="545" on="1"/>
        <pt x="574" y="618" on="0"/>
        <pt x="450" y="682" on="0"/>
        <pt x="370" y="682" on="1"/>
        <pt x="303" y="682" on="0"/>
        <pt x="196" y="625" on="0"/>
        <pt x="121" y="533" on="0"/>
        <pt x="81" y="416" on="0"/>
        <pt x="81" y="355" on="1"/>
        <pt x="81" y="290" on="0"/>
        <pt x="128" y="172" on="0"/>
        <pt x="209" y="82" on="0"/>
        <pt x="319" y="28" on="0"/>
        <pt x="382" y="28" on="1"/>
        <pt x="449" y="28" on="0"/>
        <pt x="570" y="90" on="0"/>
        <pt x="628" y="157" on="1"/>
        <pt x="628" y="311" on="1"/>
        <pt x="464" y="311" on="1"/>
        <pt x="464" y="341" on="1"/>
        <pt x="660" y="341" on="1"/>
        <pt x="660" y="0" on="1"/>
        <pt x="628" y="0" on="1"/>
      </contour>
      <contour>
        <pt x="354" y="835" on="1"/>
        <pt x="354" y="918" on="1"/>
        <pt x="386" y="918" on="1"/>
        <pt x="386" y="835" on="1"/>
      </contour>
    </TTGlyph>
    <TTGlyph name="H" xMin="96" yMin="0" xMax="637" yMax="710">
      <contour>
        <pt x="637" y="710" on="1"/>
        <pt x="637" y="0" on="1"/>
        <pt x="603" y="0" on="1"/>
        <pt x="603" y="347" on="1"/>
        <pt x="131" y="347" on="1"/>
        <pt x="131" y="0" on="1"/>
        <pt x="96" y="0" on="1"/>
        <pt x="96" y="710" on="1"/>
        <pt x="131" y="710" on="1"/>
        <pt x="131" y="379" on="1"/>
        <pt x="603" y="379" on="1"/>
        <pt x="603" y="710" on="1"/>
      </contour>
    </TTGlyph>
    <TTGlyph name="H.sc" xMin="92" yMin="0" xMax="541" yMax="542">
      <contour>
        <pt x="541" y="542" on="1"/>
        <pt x="541" y="0" on="1"/>
        <pt x="508" y="0" on="1"/>
        <pt x="508" y="262" on="1"/>
        <pt x="124" y="262" on="1"/>
        <pt x="124" y="0" on="1"/>
        <pt x="92" y="0" on="1"/>
        <pt x="92" y="542" on="1"/>
        <pt x="124" y="542" on="1"/>
        <pt x="124" y="293" on="1"/>
        <pt x="508" y="293" on="1"/>
        <pt x="508" y="542" on="1"/>
      </contour>
    </TTGlyph>
    <TTGlyph name="Hbar" xMin="51" yMin="0" xMax="692" yMax="710">
      <contour>
        <pt x="642" y="710" on="1"/>
        <pt x="642" y="578" on="1"/>
        <pt x="692" y="578" on="1"/>
        <pt x="692" y="553" on="1"/>
        <pt x="642" y="553" on="1"/>
        <pt x="642" y="0" on="1"/>
        <pt x="608" y="0" on="1"/>
        <pt x="608" y="347" on="1"/>
        <pt x="136" y="347" on="1"/>
        <pt x="136" y="0" on="1"/>
        <pt x="101" y="0" on="1"/>
        <pt x="101" y="553" on="1"/>
        <pt x="51" y="553" on="1"/>
        <pt x="51" y="578" on="1"/>
        <pt x="101" y="578" on="1"/>
        <pt x="101" y="710" on="1"/>
        <pt x="136" y="710" on="1"/>
        <pt x="136" y="578" on="1"/>
        <pt x="608" y="578" on="1"/>
        <pt x="608" y="710" on="1"/>
      </contour>
      <contour>
        <pt x="608" y="379" on="1"/>
        <pt x="608" y="553" on="1"/>
        <pt x="136" y="553" on="1"/>
        <pt x="136" y="379" on="1"/>
      </contour>
    </TTGlyph>
    <TTGlyph name="Hcircumflex" xMin="96" yMin="0" xMax="637" yMax="918">
      <contour>
        <pt x="261" y="841" on="1"/>
        <pt x="355" y="918" on="1"/>
        <pt x="381" y="918" on="1"/>
        <pt x="476" y="841" on="1"/>
        <pt x="453" y="826" on="1"/>
        <pt x="368" y="889" on="1"/>
        <pt x="283" y="826" on="1"/>
      </contour>
      <contour>
        <pt x="637" y="710" on="1"/>
        <pt x="637" y="0" on="1"/>
        <pt x="603" y="0" on="1"/>
        <pt x="603" y="347" on="1"/>
        <pt x="131" y="347" on="1"/>
        <pt x="131" y="0" on="1"/>
        <pt x="96" y="0" on="1"/>
        <pt x="96" y="710" on="1"/>
        <pt x="131" y="710" on="1"/>
        <pt x="131" y="379" on="1"/>
        <pt x="603" y="379" on="1"/>
        <pt x="603" y="710" on="1"/>
      </contour>
    </TTGlyph>
    <TTGlyph name="Hdotbelow" xMin="96" yMin="-138" xMax="637" yMax="710">
      <contour>
        <pt x="637" y="710" on="1"/>
        <pt x="637" y="0" on="1"/>
        <pt x="603" y="0" on="1"/>
        <pt x="603" y="347" on="1"/>
        <pt x="131" y="347" on="1"/>
        <pt x="131" y="0" on="1"/>
        <pt x="96" y="0" on="1"/>
        <pt x="96" y="710" on="1"/>
        <pt x="131" y="710" on="1"/>
        <pt x="131" y="379" on="1"/>
        <pt x="603" y="379" on="1"/>
        <pt x="603" y="710" on="1"/>
      </contour>
      <contour>
        <pt x="355" y="-138" on="1"/>
        <pt x="355" y="-55" on="1"/>
        <pt x="387" y="-55" on="1"/>
        <pt x="387" y="-138" on="1"/>
      </contour>
    </TTGlyph>
    <TTGlyph name="I" xMin="96" yMin="0" xMax="131" yMax="710">
      <contour>
        <pt x="96" y="0" on="1"/>
        <pt x="96" y="710" on="1"/>
        <pt x="131" y="710" on="1"/>
        <pt x="131" y="0" on="1"/>
      </contour>
    </TTGlyph>
    <TTGlyph name="I.sc" xMin="92" yMin="0" xMax="124" yMax="541">
      <contour>
        <pt x="92" y="0" on="1"/>
        <pt x="92" y="541" on="1"/>
        <pt x="124" y="541" on="1"/>
        <pt x="124" y="0" on="1"/>
      </contour>
    </TTGlyph>
    <TTGlyph name="IJ" xMin="96" yMin="-11" xMax="615" yMax="710">
      <contour>
        <pt x="96" y="0" on="1"/>
        <pt x="96" y="710" on="1"/>
        <pt x="131" y="710" on="1"/>
        <pt x="131" y="0" on="1"/>
      </contour>
      <contour>
        <pt x="258" y="61" on="1"/>
        <pt x="314" y="22" on="0"/>
        <pt x="399" y="22" on="1"/>
        <pt x="460" y="22" on="0"/>
        <pt x="532" y="66" on="0"/>
        <pt x="570" y="150" on="0"/>
        <pt x="581" y="272" on="0"/>
        <pt x="581" y="349" on="1"/>
        <pt x="581" y="710" on="1"/>
        <pt x="615" y="710" on="1"/>
        <pt x="615" y="349" on="1"/>
        <pt x="615" y="268" on="0"/>
        <pt x="601" y="135" on="0"/>
        <pt x="556" y="41" on="0"/>
        <pt x="471" y="-11" on="0"/>
        <pt x="399" y="-11" on="1"/>
        <pt x="309" y="-11" on="0"/>
        <pt x="245" y="33" on="1"/>
      </contour>
    </TTGlyph>
    <TTGlyph name="Iacute" xMin="81" yMin="0" xMax="188" yMax="918">
      <contour>
        <pt x="96" y="0" on="1"/>
        <pt x="96" y="710" on="1"/>
        <pt x="131" y="710" on="1"/>
        <pt x="131" y="0" on="1"/>
      </contour>
      <contour>
        <pt x="105" y="826" on="1"/>
        <pt x="81" y="839" on="1"/>
        <pt x="143" y="918" on="1"/>
        <pt x="188" y="918" on="1"/>
      </contour>
    </TTGlyph>
    <TTGlyph name="Ibreve" xMin="32" yMin="0" xMax="194" yMax="918">
      <contour>
        <pt x="96" y="0" on="1"/>
        <pt x="96" y="710" on="1"/>
        <pt x="131" y="710" on="1"/>
        <pt x="131" y="0" on="1"/>
      </contour>
      <contour>
        <pt x="113" y="856" on="1"/>
        <pt x="133" y="856" on="0"/>
        <pt x="166" y="892" on="0"/>
        <pt x="169" y="918" on="1"/>
        <pt x="194" y="918" on="1"/>
        <pt x="194" y="901" on="0"/>
        <pt x="181" y="870" on="0"/>
        <pt x="158" y="847" on="0"/>
        <pt x="129" y="834" on="0"/>
        <pt x="113" y="834" on="1"/>
        <pt x="96" y="834" on="0"/>
        <pt x="67" y="847" on="0"/>
        <pt x="45" y="870" on="0"/>
        <pt x="32" y="901" on="0"/>
        <pt x="32" y="918" on="1"/>
        <pt x="58" y="918" on="1"/>
        <pt x="58" y="895" on="0"/>
        <pt x="92" y="856" on="0"/>
      </contour>
    </TTGlyph>
    <TTGlyph name="Icircumflex" xMin="6" yMin="0" xMax="221" yMax="918">
      <contour>
        <pt x="96" y="0" on="1"/>
        <pt x="96" y="710" on="1"/>
        <pt x="131" y="710" on="1"/>
        <pt x="131" y="0" on="1"/>
      </contour>
      <contour>
        <pt x="6" y="841" on="1"/>
        <pt x="100" y="918" on="1"/>
        <pt x="126" y="918" on="1"/>
        <pt x="221" y="841" on="1"/>
        <pt x="198" y="826" on="1"/>
        <pt x="113" y="889" on="1"/>
        <pt x="28" y="826" on="1"/>
      </contour>
    </TTGlyph>
    <TTGlyph name="Idblgrave" xMin="-20" yMin="0" xMax="192" yMax="918">
      <contour>
        <pt x="96" y="0" on="1"/>
        <pt x="96" y="710" on="1"/>
        <pt x="131" y="710" on="1"/>
        <pt x="131" y="0" on="1"/>
      </contour>
      <contour>
        <pt x="88" y="918" on="1"/>
        <pt x="130" y="918" on="1"/>
        <pt x="192" y="839" on="1"/>
        <pt x="170" y="826" on="1"/>
      </contour>
      <contour>
        <pt x="-20" y="918" on="1"/>
        <pt x="23" y="918" on="1"/>
        <pt x="85" y="839" on="1"/>
        <pt x="63" y="826" on="1"/>
      </contour>
    </TTGlyph>
    <TTGlyph name="Idieresis" xMin="35" yMin="0" xMax="192" yMax="917">
      <contour>
        <pt x="96" y="0" on="1"/>
        <pt x="96" y="710" on="1"/>
        <pt x="131" y="710" on="1"/>
        <pt x="131" y="0" on="1"/>
      </contour>
      <contour>
        <pt x="35" y="835" on="1"/>
        <pt x="35" y="917" on="1"/>
        <pt x="66" y="917" on="1"/>
        <pt x="66" y="835" on="1"/>
      </contour>
      <contour>
        <pt x="161" y="835" on="1"/>
        <pt x="161" y="917" on="1"/>
        <pt x="192" y="917" on="1"/>
        <pt x="192" y="835" on="1"/>
      </contour>
    </TTGlyph>
    <TTGlyph name="Idotaccent" xMin="96" yMin="0" xMax="131" yMax="918">
      <contour>
        <pt x="96" y="0" on="1"/>
        <pt x="96" y="710" on="1"/>
        <pt x="131" y="710" on="1"/>
        <pt x="131" y="0" on="1"/>
      </contour>
      <contour>
        <pt x="97" y="835" on="1"/>
        <pt x="97" y="918" on="1"/>
        <pt x="129" y="918" on="1"/>
        <pt x="129" y="835" on="1"/>
      </contour>
    </TTGlyph>
    <TTGlyph name="Idotbelow" xMin="96" yMin="-138" xMax="131" yMax="710">
      <contour>
        <pt x="96" y="0" on="1"/>
        <pt x="96" y="710" on="1"/>
        <pt x="131" y="710" on="1"/>
        <pt x="131" y="0" on="1"/>
      </contour>
      <contour>
        <pt x="97" y="-138" on="1"/>
        <pt x="97" y="-55" on="1"/>
        <pt x="129" y="-55" on="1"/>
        <pt x="129" y="-138" on="1"/>
      </contour>
    </TTGlyph>
    <TTGlyph name="Igrave" xMin="38" yMin="0" xMax="145" yMax="918">
      <contour>
        <pt x="96" y="0" on="1"/>
        <pt x="96" y="710" on="1"/>
        <pt x="131" y="710" on="1"/>
        <pt x="131" y="0" on="1"/>
      </contour>
      <contour>
        <pt x="38" y="918" on="1"/>
        <pt x="82" y="918" on="1"/>
        <pt x="145" y="839" on="1"/>
        <pt x="121" y="826" on="1"/>
      </contour>
    </TTGlyph>
    <TTGlyph name="Iinvertedbreve" xMin="32" yMin="0" xMax="194" yMax="918">
      <contour>
        <pt x="96" y="0" on="1"/>
        <pt x="96" y="710" on="1"/>
        <pt x="131" y="710" on="1"/>
        <pt x="131" y="0" on="1"/>
      </contour>
      <contour>
        <pt x="113" y="896" on="1"/>
        <pt x="92" y="896" on="0"/>
        <pt x="58" y="857" on="0"/>
        <pt x="58" y="834" on="1"/>
        <pt x="32" y="834" on="1"/>
        <pt x="32" y="851" on="0"/>
        <pt x="45" y="882" on="0"/>
        <pt x="67" y="905" on="0"/>
        <pt x="96" y="918" on="0"/>
        <pt x="113" y="918" on="1"/>
        <pt x="129" y="918" on="0"/>
        <pt x="158" y="905" on="0"/>
        <pt x="181" y="882" on="0"/>
        <pt x="194" y="851" on="0"/>
        <pt x="194" y="834" on="1"/>
        <pt x="169" y="834" on="1"/>
        <pt x="166" y="860" on="0"/>
        <pt x="133" y="896" on="0"/>
      </contour>
    </TTGlyph>
    <TTGlyph name="Imacron" xMin="-28" yMin="0" xMax="255" yMax="895">
      <contour>
        <pt x="96" y="0" on="1"/>
        <pt x="96" y="710" on="1"/>
        <pt x="131" y="710" on="1"/>
        <pt x="131" y="0" on="1"/>
      </contour>
      <contour>
        <pt x="-28" y="867" on="1"/>
        <pt x="-28" y="895" on="1"/>
        <pt x="255" y="895" on="1"/>
        <pt x="255" y="867" on="1"/>
      </contour>
    </TTGlyph>
    <TTGlyph name="Iogonek" xMin="23" yMin="-164" xMax="131" yMax="710">
      <contour>
        <pt x="82" y="-164" on="1"/>
        <pt x="53" y="-157" on="0"/>
        <pt x="23" y="-123" on="0"/>
        <pt x="23" y="-99" on="1"/>
        <pt x="23" y="-75" on="0"/>
        <pt x="57" y="-29" on="0"/>
        <pt x="96" y="0" on="1"/>
        <pt x="96" y="710" on="1"/>
        <pt x="131" y="710" on="1"/>
        <pt x="131" y="0" on="1"/>
        <pt x="86" y="-30" on="0"/>
        <pt x="49" y="-72" on="0"/>
        <pt x="49" y="-94" on="1"/>
        <pt x="49" y="-132" on="0"/>
        <pt x="96" y="-141" on="1"/>
        <pt x="82" y="-164" on="1"/>
      </contour>
    </TTGlyph>
    <TTGlyph name="Itilde" xMin="-29" yMin="0" xMax="260" yMax="918">
      <contour>
        <pt x="96" y="0" on="1"/>
        <pt x="96" y="710" on="1"/>
        <pt x="131" y="710" on="1"/>
        <pt x="131" y="0" on="1"/>
      </contour>
      <contour>
        <pt x="174" y="844" on="1"/>
        <pt x="152" y="844" on="0"/>
        <pt x="119" y="856" on="0"/>
        <pt x="90" y="870" on="0"/>
        <pt x="64" y="882" on="0"/>
        <pt x="48" y="882" on="1"/>
        <pt x="32" y="882" on="0"/>
        <pt x="12" y="869" on="0"/>
        <pt x="2" y="852" on="0"/>
        <pt x="-2" y="836" on="0"/>
        <pt x="-2" y="834" on="1"/>
        <pt x="-29" y="834" on="1"/>
        <pt x="-29" y="837" on="0"/>
        <pt x="-24" y="862" on="0"/>
        <pt x="-7" y="888" on="0"/>
        <pt x="24" y="909" on="0"/>
        <pt x="50" y="909" on="1"/>
        <pt x="70" y="909" on="0"/>
        <pt x="100" y="897" on="0"/>
        <pt x="127" y="882" on="0"/>
        <pt x="156" y="870" on="0"/>
        <pt x="175" y="870" on="1"/>
        <pt x="196" y="870" on="0"/>
        <pt x="219" y="884" on="0"/>
        <pt x="231" y="901" on="0"/>
        <pt x="234" y="916" on="0"/>
        <pt x="234" y="918" on="1"/>
        <pt x="260" y="918" on="1"/>
        <pt x="260" y="914" on="0"/>
        <pt x="254" y="890" on="0"/>
        <pt x="236" y="864" on="0"/>
        <pt x="202" y="844" on="0"/>
      </contour>
    </TTGlyph>
    <TTGlyph name="J" xMin="18" yMin="-11" xMax="388" yMax="710">
      <contour>
        <pt x="31" y="61" on="1"/>
        <pt x="87" y="22" on="0"/>
        <pt x="172" y="22" on="1"/>
        <pt x="233" y="22" on="0"/>
        <pt x="305" y="66" on="0"/>
        <pt x="343" y="150" on="0"/>
        <pt x="354" y="272" on="0"/>
        <pt x="354" y="349" on="1"/>
        <pt x="354" y="710" on="1"/>
        <pt x="388" y="710" on="1"/>
        <pt x="388" y="349" on="1"/>
        <pt x="388" y="268" on="0"/>
        <pt x="374" y="135" on="0"/>
        <pt x="329" y="41" on="0"/>
        <pt x="244" y="-11" on="0"/>
        <pt x="172" y="-11" on="1"/>
        <pt x="82" y="-11" on="0"/>
        <pt x="18" y="33" on="1"/>
      </contour>
    </TTGlyph>
    <TTGlyph name="J.sc" xMin="25" yMin="-8" xMax="333" yMax="541">
      <contour>
        <pt x="37" y="51" on="1"/>
        <pt x="59" y="38" on="0"/>
        <pt x="117" y="22" on="0"/>
        <pt x="152" y="22" on="1"/>
        <pt x="202" y="22" on="0"/>
        <pt x="261" y="55" on="0"/>
        <pt x="292" y="118" on="0"/>
        <pt x="301" y="208" on="0"/>
        <pt x="301" y="266" on="1"/>
        <pt x="301" y="541" on="1"/>
        <pt x="333" y="541" on="1"/>
        <pt x="333" y="266" on="1"/>
        <pt x="333" y="204" on="0"/>
        <pt x="322" y="103" on="0"/>
        <pt x="284" y="31" on="0"/>
        <pt x="213" y="-8" on="0"/>
        <pt x="152" y="-8" on="1"/>
        <pt x="77" y="-8" on="0"/>
        <pt x="25" y="25" on="1"/>
      </contour>
    </TTGlyph>
    <TTGlyph name="Jcircumflex" xMin="18" yMin="-11" xMax="479" yMax="918">
      <contour>
        <pt x="264" y="841" on="1"/>
        <pt x="358" y="918" on="1"/>
        <pt x="384" y="918" on="1"/>
        <pt x="479" y="841" on="1"/>
        <pt x="456" y="826" on="1"/>
        <pt x="371" y="889" on="1"/>
        <pt x="286" y="826" on="1"/>
      </contour>
      <contour>
        <pt x="31" y="61" on="1"/>
        <pt x="87" y="22" on="0"/>
        <pt x="172" y="22" on="1"/>
        <pt x="233" y="22" on="0"/>
        <pt x="305" y="66" on="0"/>
        <pt x="343" y="150" on="0"/>
        <pt x="354" y="272" on="0"/>
        <pt x="354" y="349" on="1"/>
        <pt x="354" y="710" on="1"/>
        <pt x="388" y="710" on="1"/>
        <pt x="388" y="349" on="1"/>
        <pt x="388" y="268" on="0"/>
        <pt x="374" y="135" on="0"/>
        <pt x="329" y="41" on="0"/>
        <pt x="244" y="-11" on="0"/>
        <pt x="172" y="-11" on="1"/>
        <pt x="82" y="-11" on="0"/>
        <pt x="18" y="33" on="1"/>
      </contour>
    </TTGlyph>
    <TTGlyph name="K" xMin="96" yMin="0" xMax="622" yMax="710">
      <contour>
        <pt x="96" y="0" on="1"/>
        <pt x="96" y="710" on="1"/>
        <pt x="131" y="710" on="1"/>
        <pt x="131" y="263" on="1"/>
        <pt x="565" y="710" on="1"/>
        <pt x="608" y="710" on="1"/>
        <pt x="309" y="399" on="1"/>
        <pt x="622" y="0" on="1"/>
        <pt x="581" y="0" on="1"/>
        <pt x="285" y="378" on="1"/>
        <pt x="131" y="220" on="1"/>
        <pt x="131" y="0" on="1"/>
      </contour>
    </TTGlyph>
    <TTGlyph name="K.sc" xMin="92" yMin="0" xMax="529" yMax="542">
      <contour>
        <pt x="92" y="0" on="1"/>
        <pt x="92" y="541" on="1"/>
        <pt x="124" y="541" on="1"/>
        <pt x="124" y="207" on="1"/>
        <pt x="478" y="542" on="1"/>
        <pt x="518" y="542" on="1"/>
        <pt x="271" y="305" on="1"/>
        <pt x="529" y="0" on="1"/>
        <pt x="492" y="0" on="1"/>
        <pt x="250" y="284" on="1"/>
        <pt x="124" y="168" on="1"/>
        <pt x="124" y="0" on="1"/>
      </contour>
    </TTGlyph>
    <TTGlyph name="Kcommaaccent" xMin="96" yMin="-176" xMax="622" yMax="710">
      <contour>
        <pt x="298" y="-176" on="1"/>
        <pt x="310" y="-114" on="1"/>
        <pt x="298" y="-114" on="1"/>
        <pt x="298" y="-50" on="1"/>
        <pt x="335" y="-50" on="1"/>
        <pt x="335" y="-114" on="1"/>
        <pt x="318" y="-176" on="1"/>
      </contour>
      <contour>
        <pt x="96" y="0" on="1"/>
        <pt x="96" y="710" on="1"/>
        <pt x="131" y="710" on="1"/>
        <pt x="131" y="263" on="1"/>
        <pt x="565" y="710" on="1"/>
        <pt x="608" y="710" on="1"/>
        <pt x="309" y="399" on="1"/>
        <pt x="622" y="0" on="1"/>
        <pt x="581" y="0" on="1"/>
        <pt x="285" y="378" on="1"/>
        <pt x="131" y="220" on="1"/>
        <pt x="131" y="0" on="1"/>
      </contour>
    </TTGlyph>
    <TTGlyph name="L" xMin="96" yMin="0" xMax="566" yMax="710">
      <contour>
        <pt x="96" y="0" on="1"/>
        <pt x="96" y="710" on="1"/>
        <pt x="131" y="710" on="1"/>
        <pt x="131" y="32" on="1"/>
        <pt x="566" y="32" on="1"/>
        <pt x="566" y="0" on="1"/>
      </contour>
    </TTGlyph>
    <TTGlyph name="L.sc" xMin="92" yMin="0" xMax="478" yMax="542">
      <contour>
        <pt x="92" y="0" on="1"/>
        <pt x="92" y="542" on="1"/>
        <pt x="124" y="542" on="1"/>
        <pt x="124" y="30" on="1"/>
        <pt x="478" y="30" on="1"/>
        <pt x="478" y="0" on="1"/>
      </contour>
    </TTGlyph>
    <TTGlyph name="Lacute" xMin="96" yMin="0" xMax="566" yMax="918">
      <contour>
        <pt x="326" y="826" on="1"/>
        <pt x="302" y="839" on="1"/>
        <pt x="364" y="918" on="1"/>
        <pt x="409" y="918" on="1"/>
      </contour>
      <contour>
        <pt x="96" y="0" on="1"/>
        <pt x="96" y="710" on="1"/>
        <pt x="131" y="710" on="1"/>
        <pt x="131" y="32" on="1"/>
        <pt x="566" y="32" on="1"/>
        <pt x="566" y="0" on="1"/>
      </contour>
    </TTGlyph>
    <TTGlyph name="Lcaron" xMin="96" yMin="0" xMax="566" yMax="730">
      <contour>
        <pt x="363" y="638" on="1"/>
        <pt x="339" y="651" on="1"/>
        <pt x="401" y="730" on="1"/>
        <pt x="446" y="730" on="1"/>
      </contour>
      <contour>
        <pt x="96" y="0" on="1"/>
        <pt x="96" y="710" on="1"/>
        <pt x="131" y="710" on="1"/>
        <pt x="131" y="32" on="1"/>
        <pt x="566" y="32" on="1"/>
        <pt x="566" y="0" on="1"/>
      </contour>
    </TTGlyph>
    <TTGlyph name="Lcommaaccent" xMin="96" yMin="-176" xMax="566" yMax="710">
      <contour>
        <pt x="310" y="-176" on="1"/>
        <pt x="322" y="-114" on="1"/>
        <pt x="310" y="-114" on="1"/>
        <pt x="310" y="-50" on="1"/>
        <pt x="347" y="-50" on="1"/>
        <pt x="347" y="-114" on="1"/>
        <pt x="330" y="-176" on="1"/>
      </contour>
      <contour>
        <pt x="96" y="0" on="1"/>
        <pt x="96" y="710" on="1"/>
        <pt x="131" y="710" on="1"/>
        <pt x="131" y="32" on="1"/>
        <pt x="566" y="32" on="1"/>
        <pt x="566" y="0" on="1"/>
      </contour>
    </TTGlyph>
    <TTGlyph name="Ldot" xMin="96" yMin="0" xMax="566" yMax="710">
      <contour>
        <pt x="96" y="0" on="1"/>
        <pt x="96" y="710" on="1"/>
        <pt x="131" y="710" on="1"/>
        <pt x="131" y="32" on="1"/>
        <pt x="566" y="32" on="1"/>
        <pt x="566" y="0" on="1"/>
      </contour>
      <contour>
        <pt x="366" y="357" on="1"/>
        <pt x="366" y="448" on="1"/>
        <pt x="397" y="448" on="1"/>
        <pt x="397" y="357" on="1"/>
      </contour>
    </TTGlyph>
    <TTGlyph name="Lslash" xMin="25" yMin="0" xMax="573" yMax="710">
      <contour>
        <pt x="103" y="0" on="1"/>
        <pt x="103" y="281" on="1"/>
        <pt x="42" y="223" on="1"/>
        <pt x="25" y="246" on="1"/>
        <pt x="103" y="319" on="1"/>
        <pt x="103" y="710" on="1"/>
        <pt x="138" y="710" on="1"/>
        <pt x="138" y="352" on="1"/>
        <pt x="316" y="521" on="1"/>
        <pt x="332" y="499" on="1"/>
        <pt x="138" y="314" on="1"/>
        <pt x="138" y="32" on="1"/>
        <pt x="573" y="32" on="1"/>
        <pt x="573" y="0" on="1"/>
      </contour>
    </TTGlyph>
    <TTGlyph name="M" xMin="96" yMin="0" xMax="786" yMax="710">
      <contour>
        <pt x="751" y="0" on="1"/>
        <pt x="751" y="642" on="1"/>
        <pt x="453" y="138" on="1"/>
        <pt x="429" y="138" on="1"/>
        <pt x="131" y="642" on="1"/>
        <pt x="131" y="0" on="1"/>
        <pt x="96" y="0" on="1"/>
        <pt x="96" y="710" on="1"/>
        <pt x="128" y="710" on="1"/>
        <pt x="441" y="181" on="1"/>
        <pt x="754" y="710" on="1"/>
        <pt x="786" y="710" on="1"/>
        <pt x="786" y="0" on="1"/>
      </contour>
    </TTGlyph>
    <TTGlyph name="M.sc" xMin="92" yMin="0" xMax="663" yMax="542">
      <contour>
        <pt x="630" y="0" on="1"/>
        <pt x="630" y="480" on="1"/>
        <pt x="388" y="104" on="1"/>
        <pt x="367" y="104" on="1"/>
        <pt x="124" y="480" on="1"/>
        <pt x="124" y="0" on="1"/>
        <pt x="92" y="0" on="1"/>
        <pt x="92" y="542" on="1"/>
        <pt x="123" y="542" on="1"/>
        <pt x="378" y="146" on="1"/>
        <pt x="632" y="542" on="1"/>
        <pt x="663" y="542" on="1"/>
        <pt x="663" y="0" on="1"/>
      </contour>
    </TTGlyph>
    <TTGlyph name="N" xMin="96" yMin="0" xMax="679" yMax="710">
      <contour>
        <pt x="131" y="644" on="1"/>
        <pt x="131" y="0" on="1"/>
        <pt x="96" y="0" on="1"/>
        <pt x="96" y="710" on="1"/>
        <pt x="122" y="710" on="1"/>
        <pt x="644" y="55" on="1"/>
        <pt x="644" y="710" on="1"/>
        <pt x="679" y="710" on="1"/>
        <pt x="679" y="0" on="1"/>
        <pt x="645" y="0" on="1"/>
      </contour>
    </TTGlyph>
    <TTGlyph name="N.sc" xMin="92" yMin="0" xMax="574" yMax="542">
      <contour>
        <pt x="124" y="481" on="1"/>
        <pt x="124" y="0" on="1"/>
        <pt x="92" y="0" on="1"/>
        <pt x="92" y="542" on="1"/>
        <pt x="116" y="542" on="1"/>
        <pt x="542" y="54" on="1"/>
        <pt x="542" y="541" on="1"/>
        <pt x="574" y="541" on="1"/>
        <pt x="574" y="0" on="1"/>
        <pt x="543" y="0" on="1"/>
      </contour>
    </TTGlyph>
    <TTGlyph name="Nacute" xMin="96" yMin="0" xMax="679" yMax="918">
      <contour>
        <pt x="384" y="826" on="1"/>
        <pt x="360" y="839" on="1"/>
        <pt x="422" y="918" on="1"/>
        <pt x="467" y="918" on="1"/>
      </contour>
      <contour>
        <pt x="131" y="644" on="1"/>
        <pt x="131" y="0" on="1"/>
        <pt x="96" y="0" on="1"/>
        <pt x="96" y="710" on="1"/>
        <pt x="122" y="710" on="1"/>
        <pt x="644" y="55" on="1"/>
        <pt x="644" y="710" on="1"/>
        <pt x="679" y="710" on="1"/>
        <pt x="679" y="0" on="1"/>
        <pt x="645" y="0" on="1"/>
      </contour>
    </TTGlyph>
    <TTGlyph name="Ncaron" xMin="96" yMin="0" xMax="679" yMax="918">
      <contour>
        <pt x="307" y="918" on="1"/>
        <pt x="392" y="855" on="1"/>
        <pt x="477" y="918" on="1"/>
        <pt x="500" y="904" on="1"/>
        <pt x="405" y="826" on="1"/>
        <pt x="379" y="826" on="1"/>
        <pt x="285" y="904" on="1"/>
      </contour>
      <contour>
        <pt x="131" y="644" on="1"/>
        <pt x="131" y="0" on="1"/>
        <pt x="96" y="0" on="1"/>
        <pt x="96" y="710" on="1"/>
        <pt x="122" y="710" on="1"/>
        <pt x="644" y="55" on="1"/>
        <pt x="644" y="710" on="1"/>
        <pt x="679" y="710" on="1"/>
        <pt x="679" y="0" on="1"/>
        <pt x="645" y="0" on="1"/>
      </contour>
    </TTGlyph>
    <TTGlyph name="Ncommaaccent" xMin="96" yMin="-176" xMax="679" yMax="710">
      <contour>
        <pt x="371" y="-176" on="1"/>
        <pt x="383" y="-114" on="1"/>
        <pt x="371" y="-114" on="1"/>
        <pt x="371" y="-50" on="1"/>
        <pt x="408" y="-50" on="1"/>
        <pt x="408" y="-114" on="1"/>
        <pt x="391" y="-176" on="1"/>
      </contour>
      <contour>
        <pt x="131" y="644" on="1"/>
        <pt x="131" y="0" on="1"/>
        <pt x="96" y="0" on="1"/>
        <pt x="96" y="710" on="1"/>
        <pt x="122" y="710" on="1"/>
        <pt x="644" y="55" on="1"/>
        <pt x="644" y="710" on="1"/>
        <pt x="679" y="710" on="1"/>
        <pt x="679" y="0" on="1"/>
        <pt x="645" y="0" on="1"/>
      </contour>
    </TTGlyph>
    <TTGlyph name="Ndotaccent" xMin="96" yMin="0" xMax="679" yMax="918">
      <contour>
        <pt x="376" y="835" on="1"/>
        <pt x="376" y="918" on="1"/>
        <pt x="408" y="918" on="1"/>
        <pt x="408" y="835" on="1"/>
      </contour>
      <contour>
        <pt x="131" y="644" on="1"/>
        <pt x="131" y="0" on="1"/>
        <pt x="96" y="0" on="1"/>
        <pt x="96" y="710" on="1"/>
        <pt x="122" y="710" on="1"/>
        <pt x="644" y="55" on="1"/>
        <pt x="644" y="710" on="1"/>
        <pt x="679" y="710" on="1"/>
        <pt x="679" y="0" on="1"/>
        <pt x="645" y="0" on="1"/>
      </contour>
    </TTGlyph>
    <TTGlyph name="Ntilde" xMin="96" yMin="0" xMax="679" yMax="918">
      <contour>
        <pt x="131" y="644" on="1"/>
        <pt x="131" y="0" on="1"/>
        <pt x="96" y="0" on="1"/>
        <pt x="96" y="710" on="1"/>
        <pt x="122" y="710" on="1"/>
        <pt x="644" y="55" on="1"/>
        <pt x="644" y="710" on="1"/>
        <pt x="679" y="710" on="1"/>
        <pt x="679" y="0" on="1"/>
        <pt x="645" y="0" on="1"/>
      </contour>
      <contour>
        <pt x="453" y="844" on="1"/>
        <pt x="431" y="844" on="0"/>
        <pt x="398" y="856" on="0"/>
        <pt x="369" y="870" on="0"/>
        <pt x="343" y="882" on="0"/>
        <pt x="327" y="882" on="1"/>
        <pt x="311" y="882" on="0"/>
        <pt x="291" y="869" on="0"/>
        <pt x="281" y="852" on="0"/>
        <pt x="277" y="836" on="0"/>
        <pt x="277" y="834" on="1"/>
        <pt x="250" y="834" on="1"/>
        <pt x="250" y="837" on="0"/>
        <pt x="255" y="862" on="0"/>
        <pt x="272" y="888" on="0"/>
        <pt x="303" y="909" on="0"/>
        <pt x="329" y="909" on="1"/>
        <pt x="349" y="909" on="0"/>
        <pt x="379" y="897" on="0"/>
        <pt x="406" y="882" on="0"/>
        <pt x="435" y="870" on="0"/>
        <pt x="454" y="870" on="1"/>
        <pt x="475" y="870" on="0"/>
        <pt x="498" y="884" on="0"/>
        <pt x="510" y="901" on="0"/>
        <pt x="513" y="916" on="0"/>
        <pt x="513" y="918" on="1"/>
        <pt x="539" y="918" on="1"/>
        <pt x="539" y="914" on="0"/>
        <pt x="533" y="890" on="0"/>
        <pt x="515" y="864" on="0"/>
        <pt x="481" y="844" on="0"/>
      </contour>
    </TTGlyph>
    <TTGlyph name="O" xMin="46" yMin="-5" xMax="709" yMax="715">
      <contour>
        <pt x="378" y="-5" on="1"/>
        <pt x="304" y="-5" on="0"/>
        <pt x="182" y="57" on="0"/>
        <pt x="94" y="157" on="0"/>
        <pt x="46" y="287" on="0"/>
        <pt x="46" y="355" on="1"/>
        <pt x="46" y="426" on="0"/>
        <pt x="97" y="556" on="0"/>
        <pt x="186" y="656" on="0"/>
        <pt x="307" y="715" on="0"/>
        <pt x="378" y="715" on="1"/>
        <pt x="452" y="715" on="0"/>
        <pt x="574" y="652" on="0"/>
        <pt x="661" y="550" on="0"/>
        <pt x="709" y="421" on="0"/>
        <pt x="709" y="355" on="1"/>
        <pt x="709" y="283" on="0"/>
        <pt x="658" y="153" on="0"/>
        <pt x="569" y="54" on="0"/>
        <pt x="448" y="-5" on="0"/>
      </contour>
      <contour>
        <pt x="81" y="355" on="1"/>
        <pt x="81" y="291" on="0"/>
        <pt x="125" y="173" on="0"/>
        <pt x="204" y="82" on="0"/>
        <pt x="313" y="28" on="0"/>
        <pt x="378" y="28" on="1"/>
        <pt x="445" y="28" on="0"/>
        <pt x="554" y="85" on="0"/>
        <pt x="632" y="177" on="0"/>
        <pt x="674" y="295" on="0"/>
        <pt x="674" y="355" on="1"/>
        <pt x="674" y="419" on="0"/>
        <pt x="629" y="537" on="0"/>
        <pt x="550" y="628" on="0"/>
        <pt x="441" y="682" on="0"/>
        <pt x="378" y="682" on="1"/>
        <pt x="311" y="682" on="0"/>
        <pt x="202" y="625" on="0"/>
        <pt x="124" y="533" on="0"/>
        <pt x="81" y="416" on="0"/>
      </contour>
    </TTGlyph>
    <TTGlyph name="O.sc" xMin="50" yMin="-4" xMax="597" yMax="545">
      <contour>
        <pt x="324" y="-4" on="1"/>
        <pt x="263" y="-4" on="0"/>
        <pt x="162" y="43" on="0"/>
        <pt x="90" y="120" on="0"/>
        <pt x="50" y="219" on="0"/>
        <pt x="50" y="271" on="1"/>
        <pt x="50" y="325" on="0"/>
        <pt x="92" y="424" on="0"/>
        <pt x="165" y="500" on="0"/>
        <pt x="265" y="545" on="0"/>
        <pt x="324" y="545" on="1"/>
        <pt x="385" y="545" on="0"/>
        <pt x="486" y="497" on="0"/>
        <pt x="558" y="420" on="0"/>
        <pt x="597" y="322" on="0"/>
        <pt x="597" y="271" on="1"/>
        <pt x="597" y="217" on="0"/>
        <pt x="555" y="117" on="0"/>
        <pt x="482" y="41" on="0"/>
        <pt x="382" y="-4" on="0"/>
      </contour>
      <contour>
        <pt x="82" y="271" on="1"/>
        <pt x="82" y="223" on="0"/>
        <pt x="118" y="135" on="0"/>
        <pt x="182" y="68" on="0"/>
        <pt x="271" y="27" on="0"/>
        <pt x="324" y="27" on="1"/>
        <pt x="378" y="27" on="0"/>
        <pt x="467" y="69" on="0"/>
        <pt x="530" y="138" on="0"/>
        <pt x="565" y="226" on="0"/>
        <pt x="565" y="271" on="1"/>
        <pt x="565" y="319" on="0"/>
        <pt x="528" y="407" on="0"/>
        <pt x="464" y="474" on="0"/>
        <pt x="376" y="515" on="0"/>
        <pt x="324" y="515" on="1"/>
        <pt x="270" y="515" on="0"/>
        <pt x="180" y="472" on="0"/>
        <pt x="117" y="403" on="0"/>
        <pt x="82" y="316" on="0"/>
      </contour>
    </TTGlyph>
    <TTGlyph name="OE" xMin="46" yMin="-5" xMax="1142" yMax="715">
      <contour>
        <pt x="1142" y="32" on="1"/>
        <pt x="1142" y="0" on="1"/>
        <pt x="675" y="0" on="1"/>
        <pt x="675" y="218" on="1"/>
        <pt x="658" y="171" on="0"/>
        <pt x="599" y="90" on="0"/>
        <pt x="523" y="30" on="0"/>
        <pt x="431" y="-5" on="0"/>
        <pt x="380" y="-5" on="1"/>
        <pt x="306" y="-5" on="0"/>
        <pt x="183" y="56" on="0"/>
        <pt x="95" y="157" on="0"/>
        <pt x="46" y="287" on="0"/>
        <pt x="46" y="355" on="1"/>
        <pt x="46" y="426" on="0"/>
        <pt x="97" y="556" on="0"/>
        <pt x="186" y="656" on="0"/>
        <pt x="307" y="715" on="0"/>
        <pt x="378" y="715" on="1"/>
        <pt x="432" y="715" on="0"/>
        <pt x="525" y="680" on="0"/>
        <pt x="602" y="619" on="0"/>
        <pt x="658" y="537" on="0"/>
        <pt x="675" y="491" on="1"/>
        <pt x="675" y="710" on="1"/>
        <pt x="1133" y="710" on="1"/>
        <pt x="1133" y="678" on="1"/>
        <pt x="709" y="678" on="1"/>
        <pt x="709" y="379" on="1"/>
        <pt x="1079" y="379" on="1"/>
        <pt x="1079" y="347" on="1"/>
        <pt x="709" y="347" on="1"/>
        <pt x="709" y="32" on="1"/>
      </contour>
      <contour>
        <pt x="378" y="28" on="1"/>
        <pt x="445" y="28" on="0"/>
        <pt x="554" y="85" on="0"/>
        <pt x="632" y="177" on="0"/>
        <pt x="674" y="295" on="0"/>
        <pt x="674" y="356" on="1"/>
        <pt x="674" y="419" on="0"/>
        <pt x="629" y="537" on="0"/>
        <pt x="550" y="628" on="0"/>
        <pt x="441" y="682" on="0"/>
        <pt x="378" y="682" on="1"/>
        <pt x="311" y="682" on="0"/>
        <pt x="202" y="625" on="0"/>
        <pt x="124" y="533" on="0"/>
        <pt x="81" y="416" on="0"/>
        <pt x="81" y="355" on="1"/>
        <pt x="81" y="291" on="0"/>
        <pt x="125" y="173" on="0"/>
        <pt x="204" y="82" on="0"/>
        <pt x="313" y="28" on="0"/>
      </contour>
    </TTGlyph>
    <TTGlyph name="Oacute" xMin="46" yMin="-5" xMax="709" yMax="918">
      <contour>
        <pt x="370" y="826" on="1"/>
        <pt x="346" y="839" on="1"/>
        <pt x="408" y="918" on="1"/>
        <pt x="453" y="918" on="1"/>
      </contour>
      <contour>
        <pt x="378" y="-5" on="1"/>
        <pt x="304" y="-5" on="0"/>
        <pt x="182" y="57" on="0"/>
        <pt x="94" y="157" on="0"/>
        <pt x="46" y="287" on="0"/>
        <pt x="46" y="355" on="1"/>
        <pt x="46" y="426" on="0"/>
        <pt x="97" y="556" on="0"/>
        <pt x="186" y="656" on="0"/>
        <pt x="307" y="715" on="0"/>
        <pt x="378" y="715" on="1"/>
        <pt x="452" y="715" on="0"/>
        <pt x="574" y="652" on="0"/>
        <pt x="661" y="550" on="0"/>
        <pt x="709" y="421" on="0"/>
        <pt x="709" y="355" on="1"/>
        <pt x="709" y="283" on="0"/>
        <pt x="658" y="153" on="0"/>
        <pt x="569" y="54" on="0"/>
        <pt x="448" y="-5" on="0"/>
      </contour>
      <contour>
        <pt x="81" y="355" on="1"/>
        <pt x="81" y="291" on="0"/>
        <pt x="125" y="173" on="0"/>
        <pt x="204" y="82" on="0"/>
        <pt x="313" y="28" on="0"/>
        <pt x="378" y="28" on="1"/>
        <pt x="445" y="28" on="0"/>
        <pt x="554" y="85" on="0"/>
        <pt x="632" y="177" on="0"/>
        <pt x="674" y="295" on="0"/>
        <pt x="674" y="355" on="1"/>
        <pt x="674" y="419" on="0"/>
        <pt x="629" y="537" on="0"/>
        <pt x="550" y="628" on="0"/>
        <pt x="441" y="682" on="0"/>
        <pt x="378" y="682" on="1"/>
        <pt x="311" y="682" on="0"/>
        <pt x="202" y="625" on="0"/>
        <pt x="124" y="533" on="0"/>
        <pt x="81" y="416" on="0"/>
      </contour>
    </TTGlyph>
    <TTGlyph name="Obreve" xMin="46" yMin="-5" xMax="709" yMax="918">
      <contour>
        <pt x="378" y="-5" on="1"/>
        <pt x="304" y="-5" on="0"/>
        <pt x="182" y="57" on="0"/>
        <pt x="94" y="157" on="0"/>
        <pt x="46" y="287" on="0"/>
        <pt x="46" y="355" on="1"/>
        <pt x="46" y="426" on="0"/>
        <pt x="97" y="556" on="0"/>
        <pt x="186" y="656" on="0"/>
        <pt x="307" y="715" on="0"/>
        <pt x="378" y="715" on="1"/>
        <pt x="452" y="715" on="0"/>
        <pt x="574" y="652" on="0"/>
        <pt x="661" y="550" on="0"/>
        <pt x="709" y="421" on="0"/>
        <pt x="709" y="355" on="1"/>
        <pt x="709" y="283" on="0"/>
        <pt x="658" y="153" on="0"/>
        <pt x="569" y="54" on="0"/>
        <pt x="448" y="-5" on="0"/>
      </contour>
      <contour>
        <pt x="81" y="355" on="1"/>
        <pt x="81" y="291" on="0"/>
        <pt x="125" y="173" on="0"/>
        <pt x="204" y="82" on="0"/>
        <pt x="313" y="28" on="0"/>
        <pt x="378" y="28" on="1"/>
        <pt x="445" y="28" on="0"/>
        <pt x="554" y="85" on="0"/>
        <pt x="632" y="177" on="0"/>
        <pt x="674" y="295" on="0"/>
        <pt x="674" y="355" on="1"/>
        <pt x="674" y="419" on="0"/>
        <pt x="629" y="537" on="0"/>
        <pt x="550" y="628" on="0"/>
        <pt x="441" y="682" on="0"/>
        <pt x="378" y="682" on="1"/>
        <pt x="311" y="682" on="0"/>
        <pt x="202" y="625" on="0"/>
        <pt x="124" y="533" on="0"/>
        <pt x="81" y="416" on="0"/>
      </contour>
      <contour>
        <pt x="378" y="856" on="1"/>
        <pt x="398" y="856" on="0"/>
        <pt x="431" y="892" on="0"/>
        <pt x="434" y="918" on="1"/>
        <pt x="459" y="918" on="1"/>
        <pt x="459" y="901" on="0"/>
        <pt x="446" y="870" on="0"/>
        <pt x="423" y="847" on="0"/>
        <pt x="394" y="834" on="0"/>
        <pt x="378" y="834" on="1"/>
        <pt x="361" y="834" on="0"/>
        <pt x="332" y="847" on="0"/>
        <pt x="310" y="870" on="0"/>
        <pt x="297" y="901" on="0"/>
        <pt x="297" y="918" on="1"/>
        <pt x="323" y="918" on="1"/>
        <pt x="323" y="895" on="0"/>
        <pt x="357" y="856" on="0"/>
      </contour>
    </TTGlyph>
    <TTGlyph name="Ocircumflex" xMin="46" yMin="-5" xMax="709" yMax="918">
      <contour>
        <pt x="271" y="841" on="1"/>
        <pt x="365" y="918" on="1"/>
        <pt x="391" y="918" on="1"/>
        <pt x="486" y="841" on="1"/>
        <pt x="463" y="826" on="1"/>
        <pt x="378" y="889" on="1"/>
        <pt x="293" y="826" on="1"/>
      </contour>
      <contour>
        <pt x="378" y="-5" on="1"/>
        <pt x="304" y="-5" on="0"/>
        <pt x="182" y="57" on="0"/>
        <pt x="94" y="157" on="0"/>
        <pt x="46" y="287" on="0"/>
        <pt x="46" y="355" on="1"/>
        <pt x="46" y="426" on="0"/>
        <pt x="97" y="556" on="0"/>
        <pt x="186" y="656" on="0"/>
        <pt x="307" y="715" on="0"/>
        <pt x="378" y="715" on="1"/>
        <pt x="452" y="715" on="0"/>
        <pt x="574" y="652" on="0"/>
        <pt x="661" y="550" on="0"/>
        <pt x="709" y="421" on="0"/>
        <pt x="709" y="355" on="1"/>
        <pt x="709" y="283" on="0"/>
        <pt x="658" y="153" on="0"/>
        <pt x="569" y="54" on="0"/>
        <pt x="448" y="-5" on="0"/>
      </contour>
      <contour>
        <pt x="81" y="355" on="1"/>
        <pt x="81" y="291" on="0"/>
        <pt x="125" y="173" on="0"/>
        <pt x="204" y="82" on="0"/>
        <pt x="313" y="28" on="0"/>
        <pt x="378" y="28" on="1"/>
        <pt x="445" y="28" on="0"/>
        <pt x="554" y="85" on="0"/>
        <pt x="632" y="177" on="0"/>
        <pt x="674" y="295" on="0"/>
        <pt x="674" y="355" on="1"/>
        <pt x="674" y="419" on="0"/>
        <pt x="629" y="537" on="0"/>
        <pt x="550" y="628" on="0"/>
        <pt x="441" y="682" on="0"/>
        <pt x="378" y="682" on="1"/>
        <pt x="311" y="682" on="0"/>
        <pt x="202" y="625" on="0"/>
        <pt x="124" y="533" on="0"/>
        <pt x="81" y="416" on="0"/>
      </contour>
    </TTGlyph>
    <TTGlyph name="Odblgrave" xMin="46" yMin="-5" xMax="709" yMax="918">
      <contour>
        <pt x="350" y="918" on="1"/>
        <pt x="392" y="918" on="1"/>
        <pt x="454" y="839" on="1"/>
        <pt x="432" y="826" on="1"/>
      </contour>
      <contour>
        <pt x="242" y="918" on="1"/>
        <pt x="285" y="918" on="1"/>
        <pt x="347" y="839" on="1"/>
        <pt x="325" y="826" on="1"/>
      </contour>
      <contour>
        <pt x="378" y="-5" on="1"/>
        <pt x="304" y="-5" on="0"/>
        <pt x="182" y="57" on="0"/>
        <pt x="94" y="157" on="0"/>
        <pt x="46" y="287" on="0"/>
        <pt x="46" y="355" on="1"/>
        <pt x="46" y="426" on="0"/>
        <pt x="97" y="556" on="0"/>
        <pt x="186" y="656" on="0"/>
        <pt x="307" y="715" on="0"/>
        <pt x="378" y="715" on="1"/>
        <pt x="452" y="715" on="0"/>
        <pt x="574" y="652" on="0"/>
        <pt x="661" y="550" on="0"/>
        <pt x="709" y="421" on="0"/>
        <pt x="709" y="355" on="1"/>
        <pt x="709" y="283" on="0"/>
        <pt x="658" y="153" on="0"/>
        <pt x="569" y="54" on="0"/>
        <pt x="448" y="-5" on="0"/>
      </contour>
      <contour>
        <pt x="81" y="355" on="1"/>
        <pt x="81" y="291" on="0"/>
        <pt x="125" y="173" on="0"/>
        <pt x="204" y="82" on="0"/>
        <pt x="313" y="28" on="0"/>
        <pt x="378" y="28" on="1"/>
        <pt x="445" y="28" on="0"/>
        <pt x="554" y="85" on="0"/>
        <pt x="632" y="177" on="0"/>
        <pt x="674" y="295" on="0"/>
        <pt x="674" y="355" on="1"/>
        <pt x="674" y="419" on="0"/>
        <pt x="629" y="537" on="0"/>
        <pt x="550" y="628" on="0"/>
        <pt x="441" y="682" on="0"/>
        <pt x="378" y="682" on="1"/>
        <pt x="311" y="682" on="0"/>
        <pt x="202" y="625" on="0"/>
        <pt x="124" y="533" on="0"/>
        <pt x="81" y="416" on="0"/>
      </contour>
    </TTGlyph>
    <TTGlyph name="Odieresis" xMin="46" yMin="-5" xMax="709" yMax="917">
      <contour>
        <pt x="300" y="835" on="1"/>
        <pt x="300" y="917" on="1"/>
        <pt x="331" y="917" on="1"/>
        <pt x="331" y="835" on="1"/>
      </contour>
      <contour>
        <pt x="426" y="835" on="1"/>
        <pt x="426" y="917" on="1"/>
        <pt x="457" y="917" on="1"/>
        <pt x="457" y="835" on="1"/>
      </contour>
      <contour>
        <pt x="378" y="-5" on="1"/>
        <pt x="304" y="-5" on="0"/>
        <pt x="182" y="57" on="0"/>
        <pt x="94" y="157" on="0"/>
        <pt x="46" y="287" on="0"/>
        <pt x="46" y="355" on="1"/>
        <pt x="46" y="426" on="0"/>
        <pt x="97" y="556" on="0"/>
        <pt x="186" y="656" on="0"/>
        <pt x="307" y="715" on="0"/>
        <pt x="378" y="715" on="1"/>
        <pt x="452" y="715" on="0"/>
        <pt x="574" y="652" on="0"/>
        <pt x="661" y="550" on="0"/>
        <pt x="709" y="421" on="0"/>
        <pt x="709" y="355" on="1"/>
        <pt x="709" y="283" on="0"/>
        <pt x="658" y="153" on="0"/>
        <pt x="569" y="54" on="0"/>
        <pt x="448" y="-5" on="0"/>
      </contour>
      <contour>
        <pt x="81" y="355" on="1"/>
        <pt x="81" y="291" on="0"/>
        <pt x="125" y="173" on="0"/>
        <pt x="204" y="82" on="0"/>
        <pt x="313" y="28" on="0"/>
        <pt x="378" y="28" on="1"/>
        <pt x="445" y="28" on="0"/>
        <pt x="554" y="85" on="0"/>
        <pt x="632" y="177" on="0"/>
        <pt x="674" y="295" on="0"/>
        <pt x="674" y="355" on="1"/>
        <pt x="674" y="419" on="0"/>
        <pt x="629" y="537" on="0"/>
        <pt x="550" y="628" on="0"/>
        <pt x="441" y="682" on="0"/>
        <pt x="378" y="682" on="1"/>
        <pt x="311" y="682" on="0"/>
        <pt x="202" y="625" on="0"/>
        <pt x="124" y="533" on="0"/>
        <pt x="81" y="416" on="0"/>
      </contour>
    </TTGlyph>
    <TTGlyph name="Odotbelow" xMin="46" yMin="-138" xMax="709" yMax="715">
      <contour>
        <pt x="361" y="-138" on="1"/>
        <pt x="361" y="-55" on="1"/>
        <pt x="393" y="-55" on="1"/>
        <pt x="393" y="-138" on="1"/>
      </contour>
      <contour>
        <pt x="378" y="-5" on="1"/>
        <pt x="304" y="-5" on="0"/>
        <pt x="182" y="57" on="0"/>
        <pt x="94" y="157" on="0"/>
        <pt x="46" y="287" on="0"/>
        <pt x="46" y="355" on="1"/>
        <pt x="46" y="426" on="0"/>
        <pt x="97" y="556" on="0"/>
        <pt x="186" y="656" on="0"/>
        <pt x="307" y="715" on="0"/>
        <pt x="378" y="715" on="1"/>
        <pt x="452" y="715" on="0"/>
        <pt x="574" y="652" on="0"/>
        <pt x="661" y="550" on="0"/>
        <pt x="709" y="421" on="0"/>
        <pt x="709" y="355" on="1"/>
        <pt x="709" y="283" on="0"/>
        <pt x="658" y="153" on="0"/>
        <pt x="569" y="54" on="0"/>
        <pt x="448" y="-5" on="0"/>
      </contour>
      <contour>
        <pt x="81" y="355" on="1"/>
        <pt x="81" y="291" on="0"/>
        <pt x="125" y="173" on="0"/>
        <pt x="204" y="82" on="0"/>
        <pt x="313" y="28" on="0"/>
        <pt x="378" y="28" on="1"/>
        <pt x="445" y="28" on="0"/>
        <pt x="554" y="85" on="0"/>
        <pt x="632" y="177" on="0"/>
        <pt x="674" y="295" on="0"/>
        <pt x="674" y="355" on="1"/>
        <pt x="674" y="419" on="0"/>
        <pt x="629" y="537" on="0"/>
        <pt x="550" y="628" on="0"/>
        <pt x="441" y="682" on="0"/>
        <pt x="378" y="682" on="1"/>
        <pt x="311" y="682" on="0"/>
        <pt x="202" y="625" on="0"/>
        <pt x="124" y="533" on="0"/>
        <pt x="81" y="416" on="0"/>
      </contour>
    </TTGlyph>
    <TTGlyph name="Ograve" xMin="46" yMin="-5" xMax="709" yMax="918">
      <contour>
        <pt x="378" y="-5" on="1"/>
        <pt x="304" y="-5" on="0"/>
        <pt x="182" y="57" on="0"/>
        <pt x="94" y="157" on="0"/>
        <pt x="46" y="287" on="0"/>
        <pt x="46" y="355" on="1"/>
        <pt x="46" y="426" on="0"/>
        <pt x="97" y="556" on="0"/>
        <pt x="186" y="656" on="0"/>
        <pt x="307" y="715" on="0"/>
        <pt x="378" y="715" on="1"/>
        <pt x="452" y="715" on="0"/>
        <pt x="574" y="652" on="0"/>
        <pt x="661" y="550" on="0"/>
        <pt x="709" y="421" on="0"/>
        <pt x="709" y="355" on="1"/>
        <pt x="709" y="283" on="0"/>
        <pt x="658" y="153" on="0"/>
        <pt x="569" y="54" on="0"/>
        <pt x="448" y="-5" on="0"/>
      </contour>
      <contour>
        <pt x="81" y="355" on="1"/>
        <pt x="81" y="291" on="0"/>
        <pt x="125" y="173" on="0"/>
        <pt x="204" y="82" on="0"/>
        <pt x="313" y="28" on="0"/>
        <pt x="378" y="28" on="1"/>
        <pt x="445" y="28" on="0"/>
        <pt x="554" y="85" on="0"/>
        <pt x="632" y="177" on="0"/>
        <pt x="674" y="295" on="0"/>
        <pt x="674" y="355" on="1"/>
        <pt x="674" y="419" on="0"/>
        <pt x="629" y="537" on="0"/>
        <pt x="550" y="628" on="0"/>
        <pt x="441" y="682" on="0"/>
        <pt x="378" y="682" on="1"/>
        <pt x="311" y="682" on="0"/>
        <pt x="202" y="625" on="0"/>
        <pt x="124" y="533" on="0"/>
        <pt x="81" y="416" on="0"/>
      </contour>
      <contour>
        <pt x="303" y="918" on="1"/>
        <pt x="347" y="918" on="1"/>
        <pt x="410" y="839" on="1"/>
        <pt x="386" y="826" on="1"/>
      </contour>
    </TTGlyph>
    <TTGlyph name="Ohungarumlaut" xMin="46" yMin="-5" xMax="709" yMax="918">
      <contour>
        <pt x="314" y="826" on="1"/>
        <pt x="292" y="839" on="1"/>
        <pt x="354" y="918" on="1"/>
        <pt x="397" y="918" on="1"/>
      </contour>
      <contour>
        <pt x="422" y="826" on="1"/>
        <pt x="399" y="839" on="1"/>
        <pt x="461" y="918" on="1"/>
        <pt x="504" y="918" on="1"/>
      </contour>
      <contour>
        <pt x="378" y="-5" on="1"/>
        <pt x="304" y="-5" on="0"/>
        <pt x="182" y="57" on="0"/>
        <pt x="94" y="157" on="0"/>
        <pt x="46" y="287" on="0"/>
        <pt x="46" y="355" on="1"/>
        <pt x="46" y="426" on="0"/>
        <pt x="97" y="556" on="0"/>
        <pt x="186" y="656" on="0"/>
        <pt x="307" y="715" on="0"/>
        <pt x="378" y="715" on="1"/>
        <pt x="452" y="715" on="0"/>
        <pt x="574" y="652" on="0"/>
        <pt x="661" y="550" on="0"/>
        <pt x="709" y="421" on="0"/>
        <pt x="709" y="355" on="1"/>
        <pt x="709" y="283" on="0"/>
        <pt x="658" y="153" on="0"/>
        <pt x="569" y="54" on="0"/>
        <pt x="448" y="-5" on="0"/>
      </contour>
      <contour>
        <pt x="81" y="355" on="1"/>
        <pt x="81" y="291" on="0"/>
        <pt x="125" y="173" on="0"/>
        <pt x="204" y="82" on="0"/>
        <pt x="313" y="28" on="0"/>
        <pt x="378" y="28" on="1"/>
        <pt x="445" y="28" on="0"/>
        <pt x="554" y="85" on="0"/>
        <pt x="632" y="177" on="0"/>
        <pt x="674" y="295" on="0"/>
        <pt x="674" y="355" on="1"/>
        <pt x="674" y="419" on="0"/>
        <pt x="629" y="537" on="0"/>
        <pt x="550" y="628" on="0"/>
        <pt x="441" y="682" on="0"/>
        <pt x="378" y="682" on="1"/>
        <pt x="311" y="682" on="0"/>
        <pt x="202" y="625" on="0"/>
        <pt x="124" y="533" on="0"/>
        <pt x="81" y="416" on="0"/>
      </contour>
    </TTGlyph>
    <TTGlyph name="Oinvertedbreve" xMin="46" yMin="-5" xMax="709" yMax="918">
      <contour>
        <pt x="376" y="896" on="1"/>
        <pt x="355" y="896" on="0"/>
        <pt x="321" y="857" on="0"/>
        <pt x="321" y="834" on="1"/>
        <pt x="295" y="834" on="1"/>
        <pt x="295" y="851" on="0"/>
        <pt x="308" y="882" on="0"/>
        <pt x="330" y="905" on="0"/>
        <pt x="359" y="918" on="0"/>
        <pt x="376" y="918" on="1"/>
        <pt x="392" y="918" on="0"/>
        <pt x="421" y="905" on="0"/>
        <pt x="444" y="882" on="0"/>
        <pt x="457" y="851" on="0"/>
        <pt x="457" y="834" on="1"/>
        <pt x="432" y="834" on="1"/>
        <pt x="429" y="860" on="0"/>
        <pt x="396" y="896" on="0"/>
      </contour>
      <contour>
        <pt x="378" y="-5" on="1"/>
        <pt x="304" y="-5" on="0"/>
        <pt x="182" y="57" on="0"/>
        <pt x="94" y="157" on="0"/>
        <pt x="46" y="287" on="0"/>
        <pt x="46" y="355" on="1"/>
        <pt x="46" y="426" on="0"/>
        <pt x="97" y="556" on="0"/>
        <pt x="186" y="656" on="0"/>
        <pt x="307" y="715" on="0"/>
        <pt x="378" y="715" on="1"/>
        <pt x="452" y="715" on="0"/>
        <pt x="574" y="652" on="0"/>
        <pt x="661" y="550" on="0"/>
        <pt x="709" y="421" on="0"/>
        <pt x="709" y="355" on="1"/>
        <pt x="709" y="283" on="0"/>
        <pt x="658" y="153" on="0"/>
        <pt x="569" y="54" on="0"/>
        <pt x="448" y="-5" on="0"/>
      </contour>
      <contour>
        <pt x="81" y="355" on="1"/>
        <pt x="81" y="291" on="0"/>
        <pt x="125" y="173" on="0"/>
        <pt x="204" y="82" on="0"/>
        <pt x="313" y="28" on="0"/>
        <pt x="378" y="28" on="1"/>
        <pt x="445" y="28" on="0"/>
        <pt x="554" y="85" on="0"/>
        <pt x="632" y="177" on="0"/>
        <pt x="674" y="295" on="0"/>
        <pt x="674" y="355" on="1"/>
        <pt x="674" y="419" on="0"/>
        <pt x="629" y="537" on="0"/>
        <pt x="550" y="628" on="0"/>
        <pt x="441" y="682" on="0"/>
        <pt x="378" y="682" on="1"/>
        <pt x="311" y="682" on="0"/>
        <pt x="202" y="625" on="0"/>
        <pt x="124" y="533" on="0"/>
        <pt x="81" y="416" on="0"/>
      </contour>
    </TTGlyph>
    <TTGlyph name="Omacron" xMin="46" yMin="-5" xMax="709" yMax="895">
      <contour>
        <pt x="237" y="867" on="1"/>
        <pt x="237" y="895" on="1"/>
        <pt x="520" y="895" on="1"/>
        <pt x="520" y="867" on="1"/>
      </contour>
      <contour>
        <pt x="378" y="-5" on="1"/>
        <pt x="304" y="-5" on="0"/>
        <pt x="182" y="57" on="0"/>
        <pt x="94" y="157" on="0"/>
        <pt x="46" y="287" on="0"/>
        <pt x="46" y="355" on="1"/>
        <pt x="46" y="426" on="0"/>
        <pt x="97" y="556" on="0"/>
        <pt x="186" y="656" on="0"/>
        <pt x="307" y="715" on="0"/>
        <pt x="378" y="715" on="1"/>
        <pt x="452" y="715" on="0"/>
        <pt x="574" y="652" on="0"/>
        <pt x="661" y="550" on="0"/>
        <pt x="709" y="421" on="0"/>
        <pt x="709" y="355" on="1"/>
        <pt x="709" y="283" on="0"/>
        <pt x="658" y="153" on="0"/>
        <pt x="569" y="54" on="0"/>
        <pt x="448" y="-5" on="0"/>
      </contour>
      <contour>
        <pt x="81" y="355" on="1"/>
        <pt x="81" y="291" on="0"/>
        <pt x="125" y="173" on="0"/>
        <pt x="204" y="82" on="0"/>
        <pt x="313" y="28" on="0"/>
        <pt x="378" y="28" on="1"/>
        <pt x="445" y="28" on="0"/>
        <pt x="554" y="85" on="0"/>
        <pt x="632" y="177" on="0"/>
        <pt x="674" y="295" on="0"/>
        <pt x="674" y="355" on="1"/>
        <pt x="674" y="419" on="0"/>
        <pt x="629" y="537" on="0"/>
        <pt x="550" y="628" on="0"/>
        <pt x="441" y="682" on="0"/>
        <pt x="378" y="682" on="1"/>
        <pt x="311" y="682" on="0"/>
        <pt x="202" y="625" on="0"/>
        <pt x="124" y="533" on="0"/>
        <pt x="81" y="416" on="0"/>
      </contour>
    </TTGlyph>
    <TTGlyph name="Omega" xMin="48" yMin="0" xMax="720" yMax="715">
      <contour>
        <pt x="48" y="33" on="1"/>
        <pt x="259" y="33" on="1"/>
        <pt x="211" y="55" on="0"/>
        <pt x="135" y="125" on="0"/>
        <pt x="82" y="212" on="0"/>
        <pt x="54" y="312" on="0"/>
        <pt x="54" y="365" on="1"/>
        <pt x="54" y="434" on="0"/>
        <pt x="104" y="561" on="0"/>
        <pt x="192" y="657" on="0"/>
        <pt x="313" y="715" on="0"/>
        <pt x="384" y="715" on="1"/>
        <pt x="455" y="715" on="0"/>
        <pt x="576" y="657" on="0"/>
        <pt x="664" y="561" on="0"/>
        <pt x="714" y="434" on="0"/>
        <pt x="714" y="365" on="1"/>
        <pt x="714" y="312" on="0"/>
        <pt x="686" y="212" on="0"/>
        <pt x="633" y="125" on="0"/>
        <pt x="557" y="55" on="0"/>
        <pt x="509" y="33" on="1"/>
        <pt x="720" y="33" on="1"/>
        <pt x="720" y="0" on="1"/>
        <pt x="431" y="0" on="1"/>
        <pt x="431" y="33" on="1"/>
        <pt x="491" y="46" on="0"/>
        <pt x="583" y="114" on="0"/>
        <pt x="646" y="206" on="0"/>
        <pt x="679" y="313" on="0"/>
        <pt x="679" y="365" on="1"/>
        <pt x="679" y="424" on="0"/>
        <pt x="638" y="537" on="0"/>
        <pt x="561" y="626" on="0"/>
        <pt x="452" y="681" on="0"/>
        <pt x="384" y="681" on="1"/>
        <pt x="316" y="681" on="0"/>
        <pt x="206" y="626" on="0"/>
        <pt x="130" y="537" on="0"/>
        <pt x="89" y="424" on="0"/>
        <pt x="89" y="365" on="1"/>
        <pt x="89" y="313" on="0"/>
        <pt x="121" y="206" on="0"/>
        <pt x="184" y="114" on="0"/>
        <pt x="277" y="46" on="0"/>
        <pt x="337" y="33" on="1"/>
        <pt x="337" y="0" on="1"/>
        <pt x="48" y="0" on="1"/>
      </contour>
    </TTGlyph>
    <TTGlyph name="Oogonek" xMin="46" yMin="-168" xMax="709" yMax="715">
      <contour>
        <pt x="345" y="-168" on="1"/>
        <pt x="316" y="-161" on="0"/>
        <pt x="286" y="-127" on="0"/>
        <pt x="286" y="-103" on="1"/>
        <pt x="286" y="-79" on="0"/>
        <pt x="319" y="-32" on="0"/>
        <pt x="357" y="-4" on="1"/>
        <pt x="288" y="1" on="0"/>
        <pt x="173" y="65" on="0"/>
        <pt x="91" y="164" on="0"/>
        <pt x="46" y="289" on="0"/>
        <pt x="46" y="355" on="1"/>
        <pt x="46" y="426" on="0"/>
        <pt x="97" y="556" on="0"/>
        <pt x="186" y="656" on="0"/>
        <pt x="307" y="715" on="0"/>
        <pt x="378" y="715" on="1"/>
        <pt x="452" y="715" on="0"/>
        <pt x="574" y="652" on="0"/>
        <pt x="661" y="550" on="0"/>
        <pt x="709" y="421" on="0"/>
        <pt x="709" y="355" on="1"/>
        <pt x="709" y="285" on="0"/>
        <pt x="661" y="158" on="0"/>
        <pt x="576" y="60" on="0"/>
        <pt x="460" y="-1" on="0"/>
        <pt x="393" y="-4" on="1"/>
        <pt x="348" y="-34" on="0"/>
        <pt x="312" y="-76" on="0"/>
        <pt x="312" y="-98" on="1"/>
        <pt x="312" y="-136" on="0"/>
        <pt x="359" y="-145" on="1"/>
      </contour>
      <contour>
        <pt x="81" y="355" on="1"/>
        <pt x="81" y="291" on="0"/>
        <pt x="125" y="173" on="0"/>
        <pt x="204" y="82" on="0"/>
        <pt x="313" y="28" on="0"/>
        <pt x="378" y="28" on="1"/>
        <pt x="445" y="28" on="0"/>
        <pt x="554" y="85" on="0"/>
        <pt x="632" y="177" on="0"/>
        <pt x="674" y="295" on="0"/>
        <pt x="674" y="355" on="1"/>
        <pt x="674" y="419" on="0"/>
        <pt x="629" y="537" on="0"/>
        <pt x="550" y="628" on="0"/>
        <pt x="441" y="682" on="0"/>
        <pt x="378" y="682" on="1"/>
        <pt x="311" y="682" on="0"/>
        <pt x="202" y="625" on="0"/>
        <pt x="124" y="533" on="0"/>
        <pt x="81" y="416" on="0"/>
      </contour>
    </TTGlyph>
    <TTGlyph name="Oslash" xMin="46" yMin="-5" xMax="709" yMax="715">
      <contour>
        <pt x="628" y="710" on="1"/>
        <pt x="581" y="638" on="1"/>
        <pt x="641" y="585" on="0"/>
        <pt x="709" y="434" on="0"/>
        <pt x="709" y="355" on="1"/>
        <pt x="709" y="283" on="0"/>
        <pt x="658" y="153" on="0"/>
        <pt x="569" y="54" on="0"/>
        <pt x="448" y="-5" on="0"/>
        <pt x="378" y="-5" on="1"/>
        <pt x="327" y="-5" on="0"/>
        <pt x="237" y="25" on="0"/>
        <pt x="200" y="51" on="1"/>
        <pt x="167" y="0" on="1"/>
        <pt x="127" y="0" on="1"/>
        <pt x="173" y="72" on="1"/>
        <pt x="113" y="123" on="0"/>
        <pt x="46" y="274" on="0"/>
        <pt x="46" y="355" on="1"/>
        <pt x="46" y="426" on="0"/>
        <pt x="97" y="556" on="0"/>
        <pt x="186" y="656" on="0"/>
        <pt x="307" y="715" on="0"/>
        <pt x="378" y="715" on="1"/>
        <pt x="429" y="715" on="0"/>
        <pt x="516" y="685" on="0"/>
        <pt x="554" y="659" on="1"/>
        <pt x="587" y="710" on="1"/>
      </contour>
      <contour>
        <pt x="674" y="355" on="1"/>
        <pt x="674" y="429" on="0"/>
        <pt x="614" y="562" on="0"/>
        <pt x="562" y="609" on="1"/>
        <pt x="218" y="79" on="1"/>
        <pt x="252" y="55" on="0"/>
        <pt x="333" y="28" on="0"/>
        <pt x="378" y="28" on="1"/>
        <pt x="445" y="28" on="0"/>
        <pt x="554" y="85" on="0"/>
        <pt x="632" y="177" on="0"/>
        <pt x="674" y="295" on="0"/>
      </contour>
      <contour>
        <pt x="81" y="355" on="1"/>
        <pt x="81" y="280" on="0"/>
        <pt x="139" y="147" on="0"/>
        <pt x="191" y="100" on="1"/>
        <pt x="536" y="631" on="1"/>
        <pt x="502" y="655" on="0"/>
        <pt x="423" y="682" on="0"/>
        <pt x="378" y="682" on="1"/>
        <pt x="311" y="682" on="0"/>
        <pt x="202" y="625" on="0"/>
        <pt x="124" y="533" on="0"/>
        <pt x="81" y="416" on="0"/>
      </contour>
    </TTGlyph>
    <TTGlyph name="Oslashacute" xMin="46" yMin="-5" xMax="709" yMax="918">
      <contour>
        <pt x="628" y="710" on="1"/>
        <pt x="581" y="638" on="1"/>
        <pt x="641" y="585" on="0"/>
        <pt x="709" y="434" on="0"/>
        <pt x="709" y="355" on="1"/>
        <pt x="709" y="283" on="0"/>
        <pt x="658" y="153" on="0"/>
        <pt x="569" y="54" on="0"/>
        <pt x="448" y="-5" on="0"/>
        <pt x="378" y="-5" on="1"/>
        <pt x="327" y="-5" on="0"/>
        <pt x="237" y="25" on="0"/>
        <pt x="200" y="51" on="1"/>
        <pt x="167" y="0" on="1"/>
        <pt x="127" y="0" on="1"/>
        <pt x="173" y="72" on="1"/>
        <pt x="113" y="123" on="0"/>
        <pt x="46" y="274" on="0"/>
        <pt x="46" y="355" on="1"/>
        <pt x="46" y="426" on="0"/>
        <pt x="97" y="556" on="0"/>
        <pt x="186" y="656" on="0"/>
        <pt x="307" y="715" on="0"/>
        <pt x="378" y="715" on="1"/>
        <pt x="429" y="715" on="0"/>
        <pt x="516" y="685" on="0"/>
        <pt x="554" y="659" on="1"/>
        <pt x="587" y="710" on="1"/>
      </contour>
      <contour>
        <pt x="674" y="355" on="1"/>
        <pt x="674" y="429" on="0"/>
        <pt x="614" y="562" on="0"/>
        <pt x="562" y="609" on="1"/>
        <pt x="218" y="79" on="1"/>
        <pt x="252" y="55" on="0"/>
        <pt x="333" y="28" on="0"/>
        <pt x="378" y="28" on="1"/>
        <pt x="445" y="28" on="0"/>
        <pt x="554" y="85" on="0"/>
        <pt x="632" y="177" on="0"/>
        <pt x="674" y="295" on="0"/>
      </contour>
      <contour>
        <pt x="81" y="355" on="1"/>
        <pt x="81" y="280" on="0"/>
        <pt x="139" y="147" on="0"/>
        <pt x="191" y="100" on="1"/>
        <pt x="536" y="631" on="1"/>
        <pt x="502" y="655" on="0"/>
        <pt x="423" y="682" on="0"/>
        <pt x="378" y="682" on="1"/>
        <pt x="311" y="682" on="0"/>
        <pt x="202" y="625" on="0"/>
        <pt x="124" y="533" on="0"/>
        <pt x="81" y="416" on="0"/>
      </contour>
      <contour>
        <pt x="370" y="826" on="1"/>
        <pt x="346" y="839" on="1"/>
        <pt x="408" y="918" on="1"/>
        <pt x="453" y="918" on="1"/>
      </contour>
    </TTGlyph>
    <TTGlyph name="Otilde" xMin="46" yMin="-5" xMax="709" yMax="918">
      <contour>
        <pt x="378" y="-5" on="1"/>
        <pt x="304" y="-5" on="0"/>
        <pt x="182" y="57" on="0"/>
        <pt x="94" y="157" on="0"/>
        <pt x="46" y="287" on="0"/>
        <pt x="46" y="355" on="1"/>
        <pt x="46" y="426" on="0"/>
        <pt x="97" y="556" on="0"/>
        <pt x="186" y="656" on="0"/>
        <pt x="307" y="715" on="0"/>
        <pt x="378" y="715" on="1"/>
        <pt x="452" y="715" on="0"/>
        <pt x="574" y="652" on="0"/>
        <pt x="661" y="550" on="0"/>
        <pt x="709" y="421" on="0"/>
        <pt x="709" y="355" on="1"/>
        <pt x="709" y="283" on="0"/>
        <pt x="658" y="153" on="0"/>
        <pt x="569" y="54" on="0"/>
        <pt x="448" y="-5" on="0"/>
      </contour>
      <contour>
        <pt x="81" y="355" on="1"/>
        <pt x="81" y="291" on="0"/>
        <pt x="125" y="173" on="0"/>
        <pt x="204" y="82" on="0"/>
        <pt x="313" y="28" on="0"/>
        <pt x="378" y="28" on="1"/>
        <pt x="445" y="28" on="0"/>
        <pt x="554" y="85" on="0"/>
        <pt x="632" y="177" on="0"/>
        <pt x="674" y="295" on="0"/>
        <pt x="674" y="355" on="1"/>
        <pt x="674" y="419" on="0"/>
        <pt x="629" y="537" on="0"/>
        <pt x="550" y="628" on="0"/>
        <pt x="441" y="682" on="0"/>
        <pt x="378" y="682" on="1"/>
        <pt x="311" y="682" on="0"/>
        <pt x="202" y="625" on="0"/>
        <pt x="124" y="533" on="0"/>
        <pt x="81" y="416" on="0"/>
      </contour>
      <contour>
        <pt x="439" y="844" on="1"/>
        <pt x="417" y="844" on="0"/>
        <pt x="384" y="856" on="0"/>
        <pt x="355" y="870" on="0"/>
        <pt x="329" y="882" on="0"/>
        <pt x="313" y="882" on="1"/>
        <pt x="297" y="882" on="0"/>
        <pt x="277" y="869" on="0"/>
        <pt x="267" y="852" on="0"/>
        <pt x="263" y="836" on="0"/>
        <pt x="263" y="834" on="1"/>
        <pt x="236" y="834" on="1"/>
        <pt x="236" y="837" on="0"/>
        <pt x="241" y="862" on="0"/>
        <pt x="258" y="888" on="0"/>
        <pt x="289" y="909" on="0"/>
        <pt x="315" y="909" on="1"/>
        <pt x="335" y="909" on="0"/>
        <pt x="365" y="897" on="0"/>
        <pt x="392" y="882" on="0"/>
        <pt x="421" y="870" on="0"/>
        <pt x="440" y="870" on="1"/>
        <pt x="461" y="870" on="0"/>
        <pt x="484" y="884" on="0"/>
        <pt x="496" y="901" on="0"/>
        <pt x="499" y="916" on="0"/>
        <pt x="499" y="918" on="1"/>
        <pt x="525" y="918" on="1"/>
        <pt x="525" y="914" on="0"/>
        <pt x="519" y="890" on="0"/>
        <pt x="501" y="864" on="0"/>
        <pt x="467" y="844" on="0"/>
      </contour>
    </TTGlyph>
    <TTGlyph name="P" xMin="96" yMin="0" xMax="590" yMax="710">
      <contour>
        <pt x="96" y="0" on="1"/>
        <pt x="96" y="710" on="1"/>
        <pt x="387" y="710" on="1"/>
        <pt x="431" y="710" on="0"/>
        <pt x="505" y="672" on="0"/>
        <pt x="559" y="611" on="0"/>
        <pt x="590" y="533" on="0"/>
        <pt x="590" y="493" on="1"/>
        <pt x="590" y="451" on="0"/>
        <pt x="561" y="372" on="0"/>
        <pt x="509" y="311" on="0"/>
        <pt x="437" y="274" on="0"/>
        <pt x="393" y="274" on="1"/>
        <pt x="131" y="274" on="1"/>
        <pt x="131" y="0" on="1"/>
      </contour>
      <contour>
        <pt x="131" y="306" on="1"/>
        <pt x="392" y="306" on="1"/>
        <pt x="430" y="306" on="0"/>
        <pt x="490" y="338" on="0"/>
        <pt x="532" y="391" on="0"/>
        <pt x="555" y="458" on="0"/>
        <pt x="555" y="493" on="1"/>
        <pt x="555" y="529" on="0"/>
        <pt x="528" y="596" on="0"/>
        <pt x="482" y="647" on="0"/>
        <pt x="421" y="678" on="0"/>
        <pt x="386" y="678" on="1"/>
        <pt x="131" y="678" on="1"/>
      </contour>
    </TTGlyph>
    <TTGlyph name="P.sc" xMin="92" yMin="0" xMax="501" yMax="542">
      <contour>
        <pt x="92" y="0" on="1"/>
        <pt x="92" y="542" on="1"/>
        <pt x="332" y="542" on="1"/>
        <pt x="369" y="542" on="0"/>
        <pt x="431" y="513" on="0"/>
        <pt x="476" y="466" on="0"/>
        <pt x="501" y="406" on="0"/>
        <pt x="501" y="375" on="1"/>
        <pt x="501" y="343" on="0"/>
        <pt x="477" y="282" on="0"/>
        <pt x="434" y="235" on="0"/>
        <pt x="374" y="207" on="0"/>
        <pt x="338" y="207" on="1"/>
        <pt x="124" y="207" on="1"/>
        <pt x="124" y="0" on="1"/>
      </contour>
      <contour>
        <pt x="124" y="237" on="1"/>
        <pt x="337" y="237" on="1"/>
        <pt x="368" y="237" on="0"/>
        <pt x="416" y="260" on="0"/>
        <pt x="450" y="299" on="0"/>
        <pt x="468" y="349" on="0"/>
        <pt x="468" y="375" on="1"/>
        <pt x="468" y="402" on="0"/>
        <pt x="447" y="452" on="0"/>
        <pt x="409" y="489" on="0"/>
        <pt x="359" y="512" on="0"/>
        <pt x="331" y="512" on="1"/>
        <pt x="124" y="512" on="1"/>
      </contour>
    </TTGlyph>
    <TTGlyph name="Q" xMin="46" yMin="-5" xMax="709" yMax="715">
      <contour>
        <pt x="581" y="72" on="1"/>
        <pt x="539" y="36" on="0"/>
        <pt x="436" y="-5" on="0"/>
        <pt x="378" y="-5" on="1"/>
        <pt x="304" y="-5" on="0"/>
        <pt x="182" y="57" on="0"/>
        <pt x="94" y="157" on="0"/>
        <pt x="46" y="287" on="0"/>
        <pt x="46" y="355" on="1"/>
        <pt x="46" y="426" on="0"/>
        <pt x="97" y="556" on="0"/>
        <pt x="186" y="656" on="0"/>
        <pt x="307" y="715" on="0"/>
        <pt x="378" y="715" on="1"/>
        <pt x="452" y="715" on="0"/>
        <pt x="574" y="652" on="0"/>
        <pt x="661" y="550" on="0"/>
        <pt x="709" y="421" on="0"/>
        <pt x="709" y="355" on="1"/>
        <pt x="709" y="279" on="0"/>
        <pt x="652" y="143" on="0"/>
        <pt x="603" y="92" on="1"/>
        <pt x="678" y="0" on="1"/>
        <pt x="640" y="0" on="1"/>
      </contour>
      <contour>
        <pt x="378" y="28" on="1"/>
        <pt x="432" y="28" on="0"/>
        <pt x="524" y="66" on="0"/>
        <pt x="560" y="98" on="1"/>
        <pt x="482" y="195" on="1"/>
        <pt x="519" y="195" on="1"/>
        <pt x="581" y="118" on="1"/>
        <pt x="626" y="166" on="0"/>
        <pt x="674" y="290" on="0"/>
        <pt x="674" y="355" on="1"/>
        <pt x="674" y="419" on="0"/>
        <pt x="629" y="537" on="0"/>
        <pt x="550" y="628" on="0"/>
        <pt x="441" y="682" on="0"/>
        <pt x="378" y="682" on="1"/>
        <pt x="311" y="682" on="0"/>
        <pt x="202" y="625" on="0"/>
        <pt x="124" y="533" on="0"/>
        <pt x="81" y="416" on="0"/>
        <pt x="81" y="355" on="1"/>
        <pt x="81" y="291" on="0"/>
        <pt x="125" y="173" on="0"/>
        <pt x="204" y="82" on="0"/>
        <pt x="313" y="28" on="0"/>
      </contour>
    </TTGlyph>
    <TTGlyph name="Q.sc" xMin="50" yMin="-4" xMax="597" yMax="545">
      <contour>
        <pt x="491" y="54" on="1"/>
        <pt x="457" y="27" on="0"/>
        <pt x="372" y="-4" on="0"/>
        <pt x="324" y="-4" on="1"/>
        <pt x="263" y="-4" on="0"/>
        <pt x="162" y="43" on="0"/>
        <pt x="90" y="120" on="0"/>
        <pt x="50" y="219" on="0"/>
        <pt x="50" y="271" on="1"/>
        <pt x="50" y="325" on="0"/>
        <pt x="92" y="424" on="0"/>
        <pt x="165" y="500" on="0"/>
        <pt x="265" y="545" on="0"/>
        <pt x="324" y="545" on="1"/>
        <pt x="385" y="545" on="0"/>
        <pt x="486" y="497" on="0"/>
        <pt x="558" y="420" on="0"/>
        <pt x="597" y="322" on="0"/>
        <pt x="597" y="271" on="1"/>
        <pt x="597" y="214" on="0"/>
        <pt x="551" y="110" on="0"/>
        <pt x="511" y="72" on="1"/>
        <pt x="574" y="0" on="1"/>
        <pt x="539" y="0" on="1"/>
      </contour>
      <contour>
        <pt x="324" y="27" on="1"/>
        <pt x="367" y="27" on="0"/>
        <pt x="442" y="55" on="0"/>
        <pt x="471" y="78" on="1"/>
        <pt x="405" y="154" on="1"/>
        <pt x="440" y="154" on="1"/>
        <pt x="491" y="95" on="1"/>
        <pt x="526" y="130" on="0"/>
        <pt x="565" y="223" on="0"/>
        <pt x="565" y="271" on="1"/>
        <pt x="565" y="319" on="0"/>
        <pt x="528" y="407" on="0"/>
        <pt x="464" y="475" on="0"/>
        <pt x="376" y="516" on="0"/>
        <pt x="324" y="516" on="1"/>
        <pt x="270" y="516" on="0"/>
        <pt x="180" y="473" on="0"/>
        <pt x="117" y="404" on="0"/>
        <pt x="82" y="316" on="0"/>
        <pt x="82" y="271" on="1"/>
        <pt x="82" y="223" on="0"/>
        <pt x="118" y="135" on="0"/>
        <pt x="182" y="68" on="0"/>
        <pt x="271" y="27" on="0"/>
      </contour>
    </TTGlyph>
    <TTGlyph name="R" xMin="96" yMin="0" xMax="595" yMax="710">
      <contour>
        <pt x="96" y="0" on="1"/>
        <pt x="96" y="710" on="1"/>
        <pt x="388" y="710" on="1"/>
        <pt x="432" y="710" on="0"/>
        <pt x="507" y="672" on="0"/>
        <pt x="561" y="611" on="0"/>
        <pt x="591" y="533" on="0"/>
        <pt x="591" y="493" on="1"/>
        <pt x="591" y="452" on="0"/>
        <pt x="566" y="378" on="0"/>
        <pt x="520" y="320" on="0"/>
        <pt x="456" y="282" on="0"/>
        <pt x="417" y="278" on="1"/>
        <pt x="595" y="0" on="1"/>
        <pt x="555" y="0" on="1"/>
        <pt x="379" y="274" on="1"/>
        <pt x="131" y="274" on="1"/>
        <pt x="131" y="0" on="1"/>
      </contour>
      <contour>
        <pt x="131" y="306" on="1"/>
        <pt x="394" y="306" on="1"/>
        <pt x="431" y="306" on="0"/>
        <pt x="492" y="338" on="0"/>
        <pt x="534" y="390" on="0"/>
        <pt x="557" y="458" on="0"/>
        <pt x="557" y="493" on="1"/>
        <pt x="557" y="529" on="0"/>
        <pt x="530" y="596" on="0"/>
        <pt x="484" y="647" on="0"/>
        <pt x="422" y="678" on="0"/>
        <pt x="387" y="678" on="1"/>
        <pt x="131" y="678" on="1"/>
      </contour>
    </TTGlyph>
    <TTGlyph name="R.sc" xMin="92" yMin="0" xMax="507" yMax="542">
      <contour>
        <pt x="92" y="0" on="1"/>
        <pt x="92" y="542" on="1"/>
        <pt x="334" y="542" on="1"/>
        <pt x="371" y="542" on="0"/>
        <pt x="433" y="513" on="0"/>
        <pt x="478" y="466" on="0"/>
        <pt x="503" y="406" on="0"/>
        <pt x="503" y="375" on="1"/>
        <pt x="503" y="345" on="0"/>
        <pt x="482" y="289" on="0"/>
        <pt x="445" y="244" on="0"/>
        <pt x="392" y="215" on="0"/>
        <pt x="361" y="212" on="1"/>
        <pt x="507" y="0" on="1"/>
        <pt x="469" y="0" on="1"/>
        <pt x="326" y="207" on="1"/>
        <pt x="124" y="207" on="1"/>
        <pt x="124" y="0" on="1"/>
      </contour>
      <contour>
        <pt x="124" y="237" on="1"/>
        <pt x="338" y="237" on="1"/>
        <pt x="368" y="237" on="0"/>
        <pt x="417" y="260" on="0"/>
        <pt x="451" y="299" on="0"/>
        <pt x="470" y="349" on="0"/>
        <pt x="470" y="375" on="1"/>
        <pt x="470" y="402" on="0"/>
        <pt x="449" y="451" on="0"/>
        <pt x="412" y="489" on="0"/>
        <pt x="361" y="512" on="0"/>
        <pt x="332" y="512" on="1"/>
        <pt x="124" y="512" on="1"/>
      </contour>
    </TTGlyph>
    <TTGlyph name="Racute" xMin="96" yMin="0" xMax="595" yMax="920">
      <contour>
        <pt x="308" y="828" on="1"/>
        <pt x="284" y="841" on="1"/>
        <pt x="346" y="920" on="1"/>
        <pt x="391" y="920" on="1"/>
      </contour>
      <contour>
        <pt x="96" y="0" on="1"/>
        <pt x="96" y="710" on="1"/>
        <pt x="388" y="710" on="1"/>
        <pt x="432" y="710" on="0"/>
        <pt x="507" y="672" on="0"/>
        <pt x="561" y="611" on="0"/>
        <pt x="591" y="533" on="0"/>
        <pt x="591" y="493" on="1"/>
        <pt x="591" y="452" on="0"/>
        <pt x="566" y="378" on="0"/>
        <pt x="520" y="320" on="0"/>
        <pt x="456" y="282" on="0"/>
        <pt x="417" y="278" on="1"/>
        <pt x="595" y="0" on="1"/>
        <pt x="555" y="0" on="1"/>
        <pt x="379" y="274" on="1"/>
        <pt x="131" y="274" on="1"/>
        <pt x="131" y="0" on="1"/>
      </contour>
      <contour>
        <pt x="131" y="306" on="1"/>
        <pt x="394" y="306" on="1"/>
        <pt x="431" y="306" on="0"/>
        <pt x="492" y="338" on="0"/>
        <pt x="534" y="390" on="0"/>
        <pt x="557" y="458" on="0"/>
        <pt x="557" y="493" on="1"/>
        <pt x="557" y="529" on="0"/>
        <pt x="530" y="596" on="0"/>
        <pt x="484" y="647" on="0"/>
        <pt x="422" y="678" on="0"/>
        <pt x="387" y="678" on="1"/>
        <pt x="131" y="678" on="1"/>
      </contour>
    </TTGlyph>
    <TTGlyph name="Rcaron" xMin="96" yMin="0" xMax="595" yMax="920">
      <contour>
        <pt x="231" y="920" on="1"/>
        <pt x="316" y="857" on="1"/>
        <pt x="401" y="920" on="1"/>
        <pt x="424" y="906" on="1"/>
        <pt x="329" y="828" on="1"/>
        <pt x="303" y="828" on="1"/>
        <pt x="209" y="906" on="1"/>
      </contour>
      <contour>
        <pt x="96" y="0" on="1"/>
        <pt x="96" y="710" on="1"/>
        <pt x="388" y="710" on="1"/>
        <pt x="432" y="710" on="0"/>
        <pt x="507" y="672" on="0"/>
        <pt x="561" y="611" on="0"/>
        <pt x="591" y="533" on="0"/>
        <pt x="591" y="493" on="1"/>
        <pt x="591" y="452" on="0"/>
        <pt x="566" y="378" on="0"/>
        <pt x="520" y="320" on="0"/>
        <pt x="456" y="282" on="0"/>
        <pt x="417" y="278" on="1"/>
        <pt x="595" y="0" on="1"/>
        <pt x="555" y="0" on="1"/>
        <pt x="379" y="274" on="1"/>
        <pt x="131" y="274" on="1"/>
        <pt x="131" y="0" on="1"/>
      </contour>
      <contour>
        <pt x="131" y="306" on="1"/>
        <pt x="394" y="306" on="1"/>
        <pt x="431" y="306" on="0"/>
        <pt x="492" y="338" on="0"/>
        <pt x="534" y="390" on="0"/>
        <pt x="557" y="458" on="0"/>
        <pt x="557" y="493" on="1"/>
        <pt x="557" y="529" on="0"/>
        <pt x="530" y="596" on="0"/>
        <pt x="484" y="647" on="0"/>
        <pt x="422" y="678" on="0"/>
        <pt x="387" y="678" on="1"/>
        <pt x="131" y="678" on="1"/>
      </contour>
    </TTGlyph>
    <TTGlyph name="Rcommaaccent" xMin="96" yMin="-176" xMax="595" yMax="710">
      <contour>
        <pt x="298" y="-176" on="1"/>
        <pt x="310" y="-114" on="1"/>
        <pt x="298" y="-114" on="1"/>
        <pt x="298" y="-50" on="1"/>
        <pt x="335" y="-50" on="1"/>
        <pt x="335" y="-114" on="1"/>
        <pt x="318" y="-176" on="1"/>
      </contour>
      <contour>
        <pt x="96" y="0" on="1"/>
        <pt x="96" y="710" on="1"/>
        <pt x="388" y="710" on="1"/>
        <pt x="432" y="710" on="0"/>
        <pt x="507" y="672" on="0"/>
        <pt x="561" y="611" on="0"/>
        <pt x="591" y="533" on="0"/>
        <pt x="591" y="493" on="1"/>
        <pt x="591" y="452" on="0"/>
        <pt x="566" y="378" on="0"/>
        <pt x="520" y="320" on="0"/>
        <pt x="456" y="282" on="0"/>
        <pt x="417" y="278" on="1"/>
        <pt x="595" y="0" on="1"/>
        <pt x="555" y="0" on="1"/>
        <pt x="379" y="274" on="1"/>
        <pt x="131" y="274" on="1"/>
        <pt x="131" y="0" on="1"/>
      </contour>
      <contour>
        <pt x="131" y="306" on="1"/>
        <pt x="394" y="306" on="1"/>
        <pt x="431" y="306" on="0"/>
        <pt x="492" y="338" on="0"/>
        <pt x="534" y="390" on="0"/>
        <pt x="557" y="458" on="0"/>
        <pt x="557" y="493" on="1"/>
        <pt x="557" y="529" on="0"/>
        <pt x="530" y="596" on="0"/>
        <pt x="484" y="647" on="0"/>
        <pt x="422" y="678" on="0"/>
        <pt x="387" y="678" on="1"/>
        <pt x="131" y="678" on="1"/>
      </contour>
    </TTGlyph>
    <TTGlyph name="Rdblgrave" xMin="96" yMin="0" xMax="595" yMax="918">
      <contour>
        <pt x="297" y="918" on="1"/>
        <pt x="339" y="918" on="1"/>
        <pt x="401" y="839" on="1"/>
        <pt x="379" y="826" on="1"/>
      </contour>
      <contour>
        <pt x="189" y="918" on="1"/>
        <pt x="232" y="918" on="1"/>
        <pt x="294" y="839" on="1"/>
        <pt x="272" y="826" on="1"/>
      </contour>
      <contour>
        <pt x="96" y="0" on="1"/>
        <pt x="96" y="710" on="1"/>
        <pt x="388" y="710" on="1"/>
        <pt x="432" y="710" on="0"/>
        <pt x="507" y="672" on="0"/>
        <pt x="561" y="611" on="0"/>
        <pt x="591" y="533" on="0"/>
        <pt x="591" y="493" on="1"/>
        <pt x="591" y="452" on="0"/>
        <pt x="566" y="378" on="0"/>
        <pt x="520" y="320" on="0"/>
        <pt x="456" y="282" on="0"/>
        <pt x="417" y="278" on="1"/>
        <pt x="595" y="0" on="1"/>
        <pt x="555" y="0" on="1"/>
        <pt x="379" y="274" on="1"/>
        <pt x="131" y="274" on="1"/>
        <pt x="131" y="0" on="1"/>
      </contour>
      <contour>
        <pt x="131" y="306" on="1"/>
        <pt x="394" y="306" on="1"/>
        <pt x="431" y="306" on="0"/>
        <pt x="492" y="338" on="0"/>
        <pt x="534" y="390" on="0"/>
        <pt x="557" y="458" on="0"/>
        <pt x="557" y="493" on="1"/>
        <pt x="557" y="529" on="0"/>
        <pt x="530" y="596" on="0"/>
        <pt x="484" y="647" on="0"/>
        <pt x="422" y="678" on="0"/>
        <pt x="387" y="678" on="1"/>
        <pt x="131" y="678" on="1"/>
      </contour>
    </TTGlyph>
    <TTGlyph name="Rdotbelow" xMin="96" yMin="-138" xMax="595" yMax="710">
      <contour>
        <pt x="96" y="0" on="1"/>
        <pt x="96" y="710" on="1"/>
        <pt x="388" y="710" on="1"/>
        <pt x="432" y="710" on="0"/>
        <pt x="507" y="672" on="0"/>
        <pt x="561" y="611" on="0"/>
        <pt x="591" y="533" on="0"/>
        <pt x="591" y="493" on="1"/>
        <pt x="591" y="452" on="0"/>
        <pt x="566" y="378" on="0"/>
        <pt x="520" y="320" on="0"/>
        <pt x="456" y="282" on="0"/>
        <pt x="417" y="278" on="1"/>
        <pt x="595" y="0" on="1"/>
        <pt x="555" y="0" on="1"/>
        <pt x="379" y="274" on="1"/>
        <pt x="131" y="274" on="1"/>
        <pt x="131" y="0" on="1"/>
      </contour>
      <contour>
        <pt x="131" y="306" on="1"/>
        <pt x="394" y="306" on="1"/>
        <pt x="431" y="306" on="0"/>
        <pt x="492" y="338" on="0"/>
        <pt x="534" y="390" on="0"/>
        <pt x="557" y="458" on="0"/>
        <pt x="557" y="493" on="1"/>
        <pt x="557" y="529" on="0"/>
        <pt x="530" y="596" on="0"/>
        <pt x="484" y="647" on="0"/>
        <pt x="422" y="678" on="0"/>
        <pt x="387" y="678" on="1"/>
        <pt x="131" y="678" on="1"/>
      </contour>
      <contour>
        <pt x="309" y="-138" on="1"/>
        <pt x="309" y="-55" on="1"/>
        <pt x="341" y="-55" on="1"/>
        <pt x="341" y="-138" on="1"/>
      </contour>
    </TTGlyph>
    <TTGlyph name="Rinvertedbreve" xMin="96" yMin="0" xMax="595" yMax="918">
      <contour>
        <pt x="321" y="896" on="1"/>
        <pt x="300" y="896" on="0"/>
        <pt x="266" y="857" on="0"/>
        <pt x="266" y="834" on="1"/>
        <pt x="240" y="834" on="1"/>
        <pt x="240" y="851" on="0"/>
        <pt x="253" y="882" on="0"/>
        <pt x="275" y="905" on="0"/>
        <pt x="304" y="918" on="0"/>
        <pt x="321" y="918" on="1"/>
        <pt x="337" y="918" on="0"/>
        <pt x="366" y="905" on="0"/>
        <pt x="389" y="882" on="0"/>
        <pt x="402" y="851" on="0"/>
        <pt x="402" y="834" on="1"/>
        <pt x="377" y="834" on="1"/>
        <pt x="374" y="860" on="0"/>
        <pt x="341" y="896" on="0"/>
      </contour>
      <contour>
        <pt x="96" y="0" on="1"/>
        <pt x="96" y="710" on="1"/>
        <pt x="388" y="710" on="1"/>
        <pt x="432" y="710" on="0"/>
        <pt x="507" y="672" on="0"/>
        <pt x="561" y="611" on="0"/>
        <pt x="591" y="533" on="0"/>
        <pt x="591" y="493" on="1"/>
        <pt x="591" y="452" on="0"/>
        <pt x="566" y="378" on="0"/>
        <pt x="520" y="320" on="0"/>
        <pt x="456" y="282" on="0"/>
        <pt x="417" y="278" on="1"/>
        <pt x="595" y="0" on="1"/>
        <pt x="555" y="0" on="1"/>
        <pt x="379" y="274" on="1"/>
        <pt x="131" y="274" on="1"/>
        <pt x="131" y="0" on="1"/>
      </contour>
      <contour>
        <pt x="131" y="306" on="1"/>
        <pt x="394" y="306" on="1"/>
        <pt x="431" y="306" on="0"/>
        <pt x="492" y="338" on="0"/>
        <pt x="534" y="390" on="0"/>
        <pt x="557" y="458" on="0"/>
        <pt x="557" y="493" on="1"/>
        <pt x="557" y="529" on="0"/>
        <pt x="530" y="596" on="0"/>
        <pt x="484" y="647" on="0"/>
        <pt x="422" y="678" on="0"/>
        <pt x="387" y="678" on="1"/>
        <pt x="131" y="678" on="1"/>
      </contour>
    </TTGlyph>
    <TTGlyph name="S" xMin="37" yMin="-5" xMax="567" yMax="715">
      <contour>
        <pt x="508" y="605" on="1"/>
        <pt x="469" y="648" on="0"/>
        <pt x="375" y="683" on="0"/>
        <pt x="312" y="683" on="1"/>
        <pt x="199" y="683" on="0"/>
        <pt x="97" y="597" on="0"/>
        <pt x="97" y="525" on="1"/>
        <pt x="97" y="489" on="0"/>
        <pt x="122" y="440" on="0"/>
        <pt x="174" y="406" on="0"/>
        <pt x="256" y="383" on="0"/>
        <pt x="313" y="371" on="1"/>
        <pt x="371" y="359" on="0"/>
        <pt x="465" y="331" on="0"/>
        <pt x="531" y="288" on="0"/>
        <pt x="567" y="224" on="0"/>
        <pt x="567" y="177" on="1"/>
        <pt x="567" y="132" on="0"/>
        <pt x="532" y="64" on="0"/>
        <pt x="466" y="18" on="0"/>
        <pt x="373" y="-5" on="0"/>
        <pt x="316" y="-5" on="1"/>
        <pt x="231" y="-5" on="0"/>
        <pt x="95" y="48" on="0"/>
        <pt x="37" y="103" on="1"/>
        <pt x="58" y="128" on="1"/>
        <pt x="108" y="77" on="0"/>
        <pt x="236" y="25" on="0"/>
        <pt x="317" y="25" on="1"/>
        <pt x="417" y="25" on="0"/>
        <pt x="532" y="98" on="0"/>
        <pt x="532" y="173" on="1"/>
        <pt x="532" y="211" on="0"/>
        <pt x="504" y="264" on="0"/>
        <pt x="447" y="301" on="0"/>
        <pt x="360" y="328" on="0"/>
        <pt x="301" y="340" on="1"/>
        <pt x="243" y="352" on="0"/>
        <pt x="154" y="378" on="0"/>
        <pt x="93" y="418" on="0"/>
        <pt x="62" y="476" on="0"/>
        <pt x="62" y="520" on="1"/>
        <pt x="62" y="567" on="0"/>
        <pt x="98" y="640" on="0"/>
        <pt x="163" y="689" on="0"/>
        <pt x="255" y="715" on="0"/>
        <pt x="311" y="715" on="1"/>
        <pt x="380" y="715" on="0"/>
        <pt x="484" y="675" on="0"/>
        <pt x="527" y="631" on="1"/>
      </contour>
    </TTGlyph>
    <TTGlyph name="S.sc" xMin="44" yMin="-4" xMax="481" yMax="545">
      <contour>
        <pt x="432" y="456" on="1"/>
        <pt x="400" y="488" on="0"/>
        <pt x="323" y="517" on="0"/>
        <pt x="271" y="517" on="1"/>
        <pt x="179" y="517" on="0"/>
        <pt x="97" y="453" on="0"/>
        <pt x="97" y="399" on="1"/>
        <pt x="97" y="373" on="0"/>
        <pt x="117" y="337" on="0"/>
        <pt x="161" y="312" on="0"/>
        <pt x="227" y="294" on="0"/>
        <pt x="274" y="285" on="1"/>
        <pt x="322" y="276" on="0"/>
        <pt x="398" y="255" on="0"/>
        <pt x="452" y="222" on="0"/>
        <pt x="481" y="173" on="0"/>
        <pt x="481" y="137" on="1"/>
        <pt x="481" y="66" on="0"/>
        <pt x="369" y="-4" on="0"/>
        <pt x="274" y="-4" on="1"/>
        <pt x="204" y="-4" on="0"/>
        <pt x="92" y="36" on="0"/>
        <pt x="44" y="77" on="1"/>
        <pt x="63" y="102" on="1"/>
        <pt x="103" y="64" on="0"/>
        <pt x="208" y="24" on="0"/>
        <pt x="275" y="24" on="1"/>
        <pt x="353" y="24" on="0"/>
        <pt x="448" y="77" on="0"/>
        <pt x="448" y="133" on="1"/>
        <pt x="448" y="161" on="0"/>
        <pt x="425" y="200" on="0"/>
        <pt x="379" y="228" on="0"/>
        <pt x="308" y="248" on="0"/>
        <pt x="260" y="257" on="1"/>
        <pt x="212" y="266" on="0"/>
        <pt x="139" y="287" on="0"/>
        <pt x="89" y="318" on="0"/>
        <pt x="64" y="364" on="0"/>
        <pt x="64" y="398" on="1"/>
        <pt x="64" y="434" on="0"/>
        <pt x="94" y="488" on="0"/>
        <pt x="148" y="526" on="0"/>
        <pt x="224" y="545" on="0"/>
        <pt x="270" y="545" on="1"/>
        <pt x="327" y="545" on="0"/>
        <pt x="414" y="515" on="0"/>
        <pt x="449" y="482" on="1"/>
      </contour>
    </TTGlyph>
    <TTGlyph name="Sacute" xMin="37" yMin="-5" xMax="567" yMax="938">
      <contour>
        <pt x="301" y="846" on="1"/>
        <pt x="277" y="859" on="1"/>
        <pt x="339" y="938" on="1"/>
        <pt x="384" y="938" on="1"/>
      </contour>
      <contour>
        <pt x="508" y="605" on="1"/>
        <pt x="469" y="648" on="0"/>
        <pt x="375" y="683" on="0"/>
        <pt x="312" y="683" on="1"/>
        <pt x="199" y="683" on="0"/>
        <pt x="97" y="597" on="0"/>
        <pt x="97" y="525" on="1"/>
        <pt x="97" y="489" on="0"/>
        <pt x="122" y="440" on="0"/>
        <pt x="174" y="406" on="0"/>
        <pt x="256" y="383" on="0"/>
        <pt x="313" y="371" on="1"/>
        <pt x="371" y="359" on="0"/>
        <pt x="465" y="331" on="0"/>
        <pt x="531" y="288" on="0"/>
        <pt x="567" y="224" on="0"/>
        <pt x="567" y="177" on="1"/>
        <pt x="567" y="132" on="0"/>
        <pt x="532" y="64" on="0"/>
        <pt x="466" y="18" on="0"/>
        <pt x="373" y="-5" on="0"/>
        <pt x="316" y="-5" on="1"/>
        <pt x="231" y="-5" on="0"/>
        <pt x="95" y="48" on="0"/>
        <pt x="37" y="103" on="1"/>
        <pt x="58" y="128" on="1"/>
        <pt x="108" y="77" on="0"/>
        <pt x="236" y="25" on="0"/>
        <pt x="317" y="25" on="1"/>
        <pt x="417" y="25" on="0"/>
        <pt x="532" y="98" on="0"/>
        <pt x="532" y="173" on="1"/>
        <pt x="532" y="211" on="0"/>
        <pt x="504" y="264" on="0"/>
        <pt x="447" y="301" on="0"/>
        <pt x="360" y="328" on="0"/>
        <pt x="301" y="340" on="1"/>
        <pt x="243" y="352" on="0"/>
        <pt x="154" y="378" on="0"/>
        <pt x="93" y="418" on="0"/>
        <pt x="62" y="476" on="0"/>
        <pt x="62" y="520" on="1"/>
        <pt x="62" y="567" on="0"/>
        <pt x="98" y="640" on="0"/>
        <pt x="163" y="689" on="0"/>
        <pt x="255" y="715" on="0"/>
        <pt x="311" y="715" on="1"/>
        <pt x="380" y="715" on="0"/>
        <pt x="484" y="675" on="0"/>
        <pt x="527" y="631" on="1"/>
      </contour>
    </TTGlyph>
    <TTGlyph name="Scaron" xMin="37" yMin="-5" xMax="567" yMax="938">
      <contour>
        <pt x="225" y="938" on="1"/>
        <pt x="310" y="875" on="1"/>
        <pt x="395" y="938" on="1"/>
        <pt x="418" y="924" on="1"/>
        <pt x="323" y="846" on="1"/>
        <pt x="297" y="846" on="1"/>
        <pt x="203" y="924" on="1"/>
      </contour>
      <contour>
        <pt x="508" y="605" on="1"/>
        <pt x="469" y="648" on="0"/>
        <pt x="375" y="683" on="0"/>
        <pt x="312" y="683" on="1"/>
        <pt x="199" y="683" on="0"/>
        <pt x="97" y="597" on="0"/>
        <pt x="97" y="525" on="1"/>
        <pt x="97" y="489" on="0"/>
        <pt x="122" y="440" on="0"/>
        <pt x="174" y="406" on="0"/>
        <pt x="256" y="383" on="0"/>
        <pt x="313" y="371" on="1"/>
        <pt x="371" y="359" on="0"/>
        <pt x="465" y="331" on="0"/>
        <pt x="531" y="288" on="0"/>
        <pt x="567" y="224" on="0"/>
        <pt x="567" y="177" on="1"/>
        <pt x="567" y="132" on="0"/>
        <pt x="532" y="64" on="0"/>
        <pt x="466" y="18" on="0"/>
        <pt x="373" y="-5" on="0"/>
        <pt x="316" y="-5" on="1"/>
        <pt x="231" y="-5" on="0"/>
        <pt x="95" y="48" on="0"/>
        <pt x="37" y="103" on="1"/>
        <pt x="58" y="128" on="1"/>
        <pt x="108" y="77" on="0"/>
        <pt x="236" y="25" on="0"/>
        <pt x="317" y="25" on="1"/>
        <pt x="417" y="25" on="0"/>
        <pt x="532" y="98" on="0"/>
        <pt x="532" y="173" on="1"/>
        <pt x="532" y="211" on="0"/>
        <pt x="504" y="264" on="0"/>
        <pt x="447" y="301" on="0"/>
        <pt x="360" y="328" on="0"/>
        <pt x="301" y="340" on="1"/>
        <pt x="243" y="352" on="0"/>
        <pt x="154" y="378" on="0"/>
        <pt x="93" y="418" on="0"/>
        <pt x="62" y="476" on="0"/>
        <pt x="62" y="520" on="1"/>
        <pt x="62" y="567" on="0"/>
        <pt x="98" y="640" on="0"/>
        <pt x="163" y="689" on="0"/>
        <pt x="255" y="715" on="0"/>
        <pt x="311" y="715" on="1"/>
        <pt x="380" y="715" on="0"/>
        <pt x="484" y="675" on="0"/>
        <pt x="527" y="631" on="1"/>
      </contour>
    </TTGlyph>
    <TTGlyph name="Schwa" xMin="32" yMin="-9" xMax="692" yMax="715">
      <contour>
        <pt x="366" y="-9" on="1"/>
        <pt x="295" y="-9" on="0"/>
        <pt x="173" y="48" on="0"/>
        <pt x="83" y="145" on="0"/>
        <pt x="32" y="276" on="0"/>
        <pt x="32" y="351" on="1"/>
        <pt x="32" y="368" on="1"/>
        <pt x="654" y="368" on="1"/>
        <pt x="649" y="435" on="0"/>
        <pt x="599" y="550" on="0"/>
        <pt x="519" y="634" on="0"/>
        <pt x="415" y="681" on="0"/>
        <pt x="357" y="681" on="1"/>
        <pt x="318" y="681" on="0"/>
        <pt x="244" y="659" on="0"/>
        <pt x="179" y="620" on="0"/>
        <pt x="130" y="565" on="0"/>
        <pt x="117" y="531" on="1"/>
        <pt x="83" y="546" on="1"/>
        <pt x="98" y="582" on="0"/>
        <pt x="155" y="644" on="0"/>
        <pt x="229" y="689" on="0"/>
        <pt x="316" y="715" on="0"/>
        <pt x="361" y="715" on="1"/>
        <pt x="429" y="715" on="0"/>
        <pt x="550" y="657" on="0"/>
        <pt x="640" y="557" on="0"/>
        <pt x="692" y="423" on="0"/>
        <pt x="692" y="347" on="1"/>
        <pt x="692" y="273" on="0"/>
        <pt x="641" y="143" on="0"/>
        <pt x="553" y="47" on="0"/>
        <pt x="434" y="-9" on="0"/>
      </contour>
      <contour>
        <pt x="364" y="25" on="1"/>
        <pt x="423" y="25" on="0"/>
        <pt x="526" y="72" on="0"/>
        <pt x="604" y="155" on="0"/>
        <pt x="652" y="268" on="0"/>
        <pt x="655" y="335" on="1"/>
        <pt x="70" y="335" on="1"/>
        <pt x="74" y="267" on="0"/>
        <pt x="123" y="154" on="0"/>
        <pt x="201" y="71" on="0"/>
        <pt x="304" y="25" on="0"/>
      </contour>
    </TTGlyph>
    <TTGlyph name="Scircumflex" xMin="37" yMin="-5" xMax="567" yMax="938">
      <contour>
        <pt x="203" y="861" on="1"/>
        <pt x="297" y="938" on="1"/>
        <pt x="323" y="938" on="1"/>
        <pt x="418" y="861" on="1"/>
        <pt x="395" y="846" on="1"/>
        <pt x="310" y="909" on="1"/>
        <pt x="225" y="846" on="1"/>
      </contour>
      <contour>
        <pt x="508" y="605" on="1"/>
        <pt x="469" y="648" on="0"/>
        <pt x="375" y="683" on="0"/>
        <pt x="312" y="683" on="1"/>
        <pt x="199" y="683" on="0"/>
        <pt x="97" y="597" on="0"/>
        <pt x="97" y="525" on="1"/>
        <pt x="97" y="489" on="0"/>
        <pt x="122" y="440" on="0"/>
        <pt x="174" y="406" on="0"/>
        <pt x="256" y="383" on="0"/>
        <pt x="313" y="371" on="1"/>
        <pt x="371" y="359" on="0"/>
        <pt x="465" y="331" on="0"/>
        <pt x="531" y="288" on="0"/>
        <pt x="567" y="224" on="0"/>
        <pt x="567" y="177" on="1"/>
        <pt x="567" y="132" on="0"/>
        <pt x="532" y="64" on="0"/>
        <pt x="466" y="18" on="0"/>
        <pt x="373" y="-5" on="0"/>
        <pt x="316" y="-5" on="1"/>
        <pt x="231" y="-5" on="0"/>
        <pt x="95" y="48" on="0"/>
        <pt x="37" y="103" on="1"/>
        <pt x="58" y="128" on="1"/>
        <pt x="108" y="77" on="0"/>
        <pt x="236" y="25" on="0"/>
        <pt x="317" y="25" on="1"/>
        <pt x="417" y="25" on="0"/>
        <pt x="532" y="98" on="0"/>
        <pt x="532" y="173" on="1"/>
        <pt x="532" y="211" on="0"/>
        <pt x="504" y="264" on="0"/>
        <pt x="447" y="301" on="0"/>
        <pt x="360" y="328" on="0"/>
        <pt x="301" y="340" on="1"/>
        <pt x="243" y="352" on="0"/>
        <pt x="154" y="378" on="0"/>
        <pt x="93" y="418" on="0"/>
        <pt x="62" y="476" on="0"/>
        <pt x="62" y="520" on="1"/>
        <pt x="62" y="567" on="0"/>
        <pt x="98" y="640" on="0"/>
        <pt x="163" y="689" on="0"/>
        <pt x="255" y="715" on="0"/>
        <pt x="311" y="715" on="1"/>
        <pt x="380" y="715" on="0"/>
        <pt x="484" y="675" on="0"/>
        <pt x="527" y="631" on="1"/>
      </contour>
    </TTGlyph>
    <TTGlyph name="Sdotbelow" xMin="37" yMin="-138" xMax="567" yMax="715">
      <contour>
        <pt x="508" y="605" on="1"/>
        <pt x="469" y="648" on="0"/>
        <pt x="375" y="683" on="0"/>
        <pt x="312" y="683" on="1"/>
        <pt x="199" y="683" on="0"/>
        <pt x="97" y="597" on="0"/>
        <pt x="97" y="525" on="1"/>
        <pt x="97" y="489" on="0"/>
        <pt x="122" y="440" on="0"/>
        <pt x="174" y="406" on="0"/>
        <pt x="256" y="383" on="0"/>
        <pt x="313" y="371" on="1"/>
        <pt x="371" y="359" on="0"/>
        <pt x="465" y="331" on="0"/>
        <pt x="531" y="288" on="0"/>
        <pt x="567" y="224" on="0"/>
        <pt x="567" y="177" on="1"/>
        <pt x="567" y="132" on="0"/>
        <pt x="532" y="64" on="0"/>
        <pt x="466" y="18" on="0"/>
        <pt x="373" y="-5" on="0"/>
        <pt x="316" y="-5" on="1"/>
        <pt x="231" y="-5" on="0"/>
        <pt x="95" y="48" on="0"/>
        <pt x="37" y="103" on="1"/>
        <pt x="58" y="128" on="1"/>
        <pt x="108" y="77" on="0"/>
        <pt x="236" y="25" on="0"/>
        <pt x="317" y="25" on="1"/>
        <pt x="417" y="25" on="0"/>
        <pt x="532" y="98" on="0"/>
        <pt x="532" y="173" on="1"/>
        <pt x="532" y="211" on="0"/>
        <pt x="504" y="264" on="0"/>
        <pt x="447" y="301" on="0"/>
        <pt x="360" y="328" on="0"/>
        <pt x="301" y="340" on="1"/>
        <pt x="243" y="352" on="0"/>
        <pt x="154" y="378" on="0"/>
        <pt x="93" y="418" on="0"/>
        <pt x="62" y="476" on="0"/>
        <pt x="62" y="520" on="1"/>
        <pt x="62" y="567" on="0"/>
        <pt x="98" y="640" on="0"/>
        <pt x="163" y="689" on="0"/>
        <pt x="255" y="715" on="0"/>
        <pt x="311" y="715" on="1"/>
        <pt x="380" y="715" on="0"/>
        <pt x="484" y="675" on="0"/>
        <pt x="527" y="631" on="1"/>
      </contour>
      <contour>
        <pt x="296" y="-138" on="1"/>
        <pt x="296" y="-55" on="1"/>
        <pt x="328" y="-55" on="1"/>
        <pt x="328" y="-138" on="1"/>
      </contour>
    </TTGlyph>
    <TTGlyph name="T" xMin="18" yMin="0" xMax="585" yMax="710">
      <contour>
        <pt x="585" y="678" on="1"/>
        <pt x="319" y="678" on="1"/>
        <pt x="319" y="0" on="1"/>
        <pt x="284" y="0" on="1"/>
        <pt x="284" y="678" on="1"/>
        <pt x="18" y="678" on="1"/>
        <pt x="18" y="710" on="1"/>
        <pt x="585" y="710" on="1"/>
      </contour>
    </TTGlyph>
    <TTGlyph name="T.sc" xMin="25" yMin="0" xMax="495" yMax="542">
      <contour>
        <pt x="495" y="512" on="1"/>
        <pt x="276" y="512" on="1"/>
        <pt x="276" y="0" on="1"/>
        <pt x="244" y="0" on="1"/>
        <pt x="244" y="512" on="1"/>
        <pt x="25" y="512" on="1"/>
        <pt x="25" y="542" on="1"/>
        <pt x="495" y="542" on="1"/>
      </contour>
    </TTGlyph>
    <TTGlyph name="Tbar" xMin="37" yMin="0" xMax="604" yMax="710">
      <contour>
        <pt x="604" y="678" on="1"/>
        <pt x="338" y="678" on="1"/>
        <pt x="338" y="418" on="1"/>
        <pt x="573" y="418" on="1"/>
        <pt x="573" y="393" on="1"/>
        <pt x="338" y="393" on="1"/>
        <pt x="338" y="0" on="1"/>
        <pt x="303" y="0" on="1"/>
        <pt x="303" y="393" on="1"/>
        <pt x="67" y="393" on="1"/>
        <pt x="67" y="418" on="1"/>
        <pt x="303" y="418" on="1"/>
        <pt x="303" y="678" on="1"/>
        <pt x="37" y="678" on="1"/>
        <pt x="37" y="710" on="1"/>
        <pt x="604" y="710" on="1"/>
      </contour>
    </TTGlyph>
    <TTGlyph name="Tcaron" xMin="18" yMin="0" xMax="585" yMax="918">
      <contour>
        <pt x="217" y="918" on="1"/>
        <pt x="302" y="855" on="1"/>
        <pt x="387" y="918" on="1"/>
        <pt x="410" y="904" on="1"/>
        <pt x="315" y="826" on="1"/>
        <pt x="289" y="826" on="1"/>
        <pt x="195" y="904" on="1"/>
      </contour>
      <contour>
        <pt x="585" y="678" on="1"/>
        <pt x="319" y="678" on="1"/>
        <pt x="319" y="0" on="1"/>
        <pt x="284" y="0" on="1"/>
        <pt x="284" y="678" on="1"/>
        <pt x="18" y="678" on="1"/>
        <pt x="18" y="710" on="1"/>
        <pt x="585" y="710" on="1"/>
      </contour>
    </TTGlyph>
    <TTGlyph name="Tdotbelow" xMin="18" yMin="-138" xMax="585" yMax="710">
      <contour>
        <pt x="285" y="-138" on="1"/>
        <pt x="285" y="-55" on="1"/>
        <pt x="317" y="-55" on="1"/>
        <pt x="317" y="-138" on="1"/>
      </contour>
      <contour>
        <pt x="585" y="678" on="1"/>
        <pt x="319" y="678" on="1"/>
        <pt x="319" y="0" on="1"/>
        <pt x="284" y="0" on="1"/>
        <pt x="284" y="678" on="1"/>
        <pt x="18" y="678" on="1"/>
        <pt x="18" y="710" on="1"/>
        <pt x="585" y="710" on="1"/>
      </contour>
    </TTGlyph>
    <TTGlyph name="Thorn" xMin="96" yMin="0" xMax="570" yMax="710">
      <contour>
        <pt x="367" y="563" on="1"/>
        <pt x="411" y="563" on="0"/>
        <pt x="486" y="525" on="0"/>
        <pt x="540" y="463" on="0"/>
        <pt x="570" y="385" on="0"/>
        <pt x="570" y="345" on="1"/>
        <pt x="570" y="303" on="0"/>
        <pt x="542" y="224" on="0"/>
        <pt x="490" y="164" on="0"/>
        <pt x="418" y="127" on="0"/>
        <pt x="374" y="127" on="1"/>
        <pt x="131" y="127" on="1"/>
        <pt x="131" y="0" on="1"/>
        <pt x="96" y="0" on="1"/>
        <pt x="96" y="710" on="1"/>
        <pt x="131" y="710" on="1"/>
        <pt x="131" y="563" on="1"/>
      </contour>
      <contour>
        <pt x="373" y="159" on="1"/>
        <pt x="411" y="159" on="0"/>
        <pt x="471" y="191" on="0"/>
        <pt x="513" y="244" on="0"/>
        <pt x="536" y="310" on="0"/>
        <pt x="536" y="345" on="1"/>
        <pt x="536" y="381" on="0"/>
        <pt x="509" y="448" on="0"/>
        <pt x="463" y="499" on="0"/>
        <pt x="401" y="530" on="0"/>
        <pt x="366" y="530" on="1"/>
        <pt x="131" y="530" on="1"/>
        <pt x="131" y="159" on="1"/>
      </contour>
    </TTGlyph>
    <TTGlyph name="U" xMin="85" yMin="-5" xMax="671" yMax="710">
      <contour>
        <pt x="378" y="28" on="1"/>
        <pt x="454" y="28" on="0"/>
        <pt x="555" y="85" on="0"/>
        <pt x="613" y="177" on="0"/>
        <pt x="637" y="294" on="0"/>
        <pt x="637" y="354" on="1"/>
        <pt x="637" y="710" on="1"/>
        <pt x="671" y="710" on="1"/>
        <pt x="671" y="354" on="1"/>
        <pt x="671" y="283" on="0"/>
        <pt x="641" y="153" on="0"/>
        <pt x="572" y="54" on="0"/>
        <pt x="461" y="-5" on="0"/>
        <pt x="379" y="-5" on="1"/>
        <pt x="295" y="-5" on="0"/>
        <pt x="182" y="57" on="0"/>
        <pt x="114" y="158" on="0"/>
        <pt x="85" y="287" on="0"/>
        <pt x="85" y="354" on="1"/>
        <pt x="85" y="710" on="1"/>
        <pt x="120" y="710" on="1"/>
        <pt x="120" y="354" on="1"/>
        <pt x="120" y="292" on="0"/>
        <pt x="144" y="175" on="0"/>
        <pt x="204" y="84" on="0"/>
        <pt x="303" y="28" on="0"/>
      </contour>
    </TTGlyph>
    <TTGlyph name="U.sc" xMin="82" yMin="-4" xMax="567" yMax="542">
      <contour>
        <pt x="324" y="27" on="1"/>
        <pt x="386" y="27" on="0"/>
        <pt x="467" y="69" on="0"/>
        <pt x="515" y="138" on="0"/>
        <pt x="535" y="225" on="0"/>
        <pt x="535" y="270" on="1"/>
        <pt x="535" y="542" on="1"/>
        <pt x="567" y="542" on="1"/>
        <pt x="567" y="270" on="1"/>
        <pt x="567" y="216" on="0"/>
        <pt x="542" y="116" on="0"/>
        <pt x="485" y="41" on="0"/>
        <pt x="392" y="-4" on="0"/>
        <pt x="325" y="-4" on="1"/>
        <pt x="255" y="-4" on="0"/>
        <pt x="162" y="43" on="0"/>
        <pt x="106" y="120" on="0"/>
        <pt x="82" y="219" on="0"/>
        <pt x="82" y="270" on="1"/>
        <pt x="82" y="542" on="1"/>
        <pt x="114" y="542" on="1"/>
        <pt x="114" y="270" on="1"/>
        <pt x="114" y="224" on="0"/>
        <pt x="134" y="136" on="0"/>
        <pt x="182" y="68" on="0"/>
        <pt x="263" y="27" on="0"/>
      </contour>
    </TTGlyph>
    <TTGlyph name="Uacute" xMin="85" yMin="-5" xMax="671" yMax="918">
      <contour>
        <pt x="371" y="826" on="1"/>
        <pt x="347" y="839" on="1"/>
        <pt x="409" y="918" on="1"/>
        <pt x="454" y="918" on="1"/>
      </contour>
      <contour>
        <pt x="378" y="28" on="1"/>
        <pt x="454" y="28" on="0"/>
        <pt x="555" y="85" on="0"/>
        <pt x="613" y="177" on="0"/>
        <pt x="637" y="294" on="0"/>
        <pt x="637" y="354" on="1"/>
        <pt x="637" y="710" on="1"/>
        <pt x="671" y="710" on="1"/>
        <pt x="671" y="354" on="1"/>
        <pt x="671" y="283" on="0"/>
        <pt x="641" y="153" on="0"/>
        <pt x="572" y="54" on="0"/>
        <pt x="461" y="-5" on="0"/>
        <pt x="379" y="-5" on="1"/>
        <pt x="295" y="-5" on="0"/>
        <pt x="182" y="57" on="0"/>
        <pt x="114" y="158" on="0"/>
        <pt x="85" y="287" on="0"/>
        <pt x="85" y="354" on="1"/>
        <pt x="85" y="710" on="1"/>
        <pt x="120" y="710" on="1"/>
        <pt x="120" y="354" on="1"/>
        <pt x="120" y="292" on="0"/>
        <pt x="144" y="175" on="0"/>
        <pt x="204" y="84" on="0"/>
        <pt x="303" y="28" on="0"/>
      </contour>
    </TTGlyph>
    <TTGlyph name="Ubreve" xMin="85" yMin="-5" xMax="671" yMax="918">
      <contour>
        <pt x="378" y="28" on="1"/>
        <pt x="454" y="28" on="0"/>
        <pt x="555" y="85" on="0"/>
        <pt x="613" y="177" on="0"/>
        <pt x="637" y="294" on="0"/>
        <pt x="637" y="354" on="1"/>
        <pt x="637" y="710" on="1"/>
        <pt x="671" y="710" on="1"/>
        <pt x="671" y="354" on="1"/>
        <pt x="671" y="283" on="0"/>
        <pt x="641" y="153" on="0"/>
        <pt x="572" y="54" on="0"/>
        <pt x="461" y="-5" on="0"/>
        <pt x="379" y="-5" on="1"/>
        <pt x="295" y="-5" on="0"/>
        <pt x="182" y="57" on="0"/>
        <pt x="114" y="158" on="0"/>
        <pt x="85" y="287" on="0"/>
        <pt x="85" y="354" on="1"/>
        <pt x="85" y="710" on="1"/>
        <pt x="120" y="710" on="1"/>
        <pt x="120" y="354" on="1"/>
        <pt x="120" y="292" on="0"/>
        <pt x="144" y="175" on="0"/>
        <pt x="204" y="84" on="0"/>
        <pt x="303" y="28" on="0"/>
      </contour>
      <contour>
        <pt x="379" y="856" on="1"/>
        <pt x="399" y="856" on="0"/>
        <pt x="432" y="892" on="0"/>
        <pt x="435" y="918" on="1"/>
        <pt x="460" y="918" on="1"/>
        <pt x="460" y="901" on="0"/>
        <pt x="447" y="870" on="0"/>
        <pt x="424" y="847" on="0"/>
        <pt x="395" y="834" on="0"/>
        <pt x="379" y="834" on="1"/>
        <pt x="362" y="834" on="0"/>
        <pt x="333" y="847" on="0"/>
        <pt x="311" y="870" on="0"/>
        <pt x="298" y="901" on="0"/>
        <pt x="298" y="918" on="1"/>
        <pt x="324" y="918" on="1"/>
        <pt x="324" y="895" on="0"/>
        <pt x="358" y="856" on="0"/>
      </contour>
    </TTGlyph>
    <TTGlyph name="Ucircumflex" xMin="85" yMin="-5" xMax="671" yMax="918">
      <contour>
        <pt x="272" y="841" on="1"/>
        <pt x="366" y="918" on="1"/>
        <pt x="392" y="918" on="1"/>
        <pt x="487" y="841" on="1"/>
        <pt x="464" y="826" on="1"/>
        <pt x="379" y="889" on="1"/>
        <pt x="294" y="826" on="1"/>
      </contour>
      <contour>
        <pt x="378" y="28" on="1"/>
        <pt x="454" y="28" on="0"/>
        <pt x="555" y="85" on="0"/>
        <pt x="613" y="177" on="0"/>
        <pt x="637" y="294" on="0"/>
        <pt x="637" y="354" on="1"/>
        <pt x="637" y="710" on="1"/>
        <pt x="671" y="710" on="1"/>
        <pt x="671" y="354" on="1"/>
        <pt x="671" y="283" on="0"/>
        <pt x="641" y="153" on="0"/>
        <pt x="572" y="54" on="0"/>
        <pt x="461" y="-5" on="0"/>
        <pt x="379" y="-5" on="1"/>
        <pt x="295" y="-5" on="0"/>
        <pt x="182" y="57" on="0"/>
        <pt x="114" y="158" on="0"/>
        <pt x="85" y="287" on="0"/>
        <pt x="85" y="354" on="1"/>
        <pt x="85" y="710" on="1"/>
        <pt x="120" y="710" on="1"/>
        <pt x="120" y="354" on="1"/>
        <pt x="120" y="292" on="0"/>
        <pt x="144" y="175" on="0"/>
        <pt x="204" y="84" on="0"/>
        <pt x="303" y="28" on="0"/>
      </contour>
    </TTGlyph>
    <TTGlyph name="Udblgrave" xMin="85" yMin="-5" xMax="671" yMax="918">
      <contour>
        <pt x="358" y="918" on="1"/>
        <pt x="400" y="918" on="1"/>
        <pt x="462" y="839" on="1"/>
        <pt x="440" y="826" on="1"/>
      </contour>
      <contour>
        <pt x="250" y="918" on="1"/>
        <pt x="293" y="918" on="1"/>
        <pt x="355" y="839" on="1"/>
        <pt x="333" y="826" on="1"/>
      </contour>
      <contour>
        <pt x="378" y="28" on="1"/>
        <pt x="454" y="28" on="0"/>
        <pt x="555" y="85" on="0"/>
        <pt x="613" y="177" on="0"/>
        <pt x="637" y="294" on="0"/>
        <pt x="637" y="354" on="1"/>
        <pt x="637" y="710" on="1"/>
        <pt x="671" y="710" on="1"/>
        <pt x="671" y="354" on="1"/>
        <pt x="671" y="283" on="0"/>
        <pt x="641" y="153" on="0"/>
        <pt x="572" y="54" on="0"/>
        <pt x="461" y="-5" on="0"/>
        <pt x="379" y="-5" on="1"/>
        <pt x="295" y="-5" on="0"/>
        <pt x="182" y="57" on="0"/>
        <pt x="114" y="158" on="0"/>
        <pt x="85" y="287" on="0"/>
        <pt x="85" y="354" on="1"/>
        <pt x="85" y="710" on="1"/>
        <pt x="120" y="710" on="1"/>
        <pt x="120" y="354" on="1"/>
        <pt x="120" y="292" on="0"/>
        <pt x="144" y="175" on="0"/>
        <pt x="204" y="84" on="0"/>
        <pt x="303" y="28" on="0"/>
      </contour>
    </TTGlyph>
    <TTGlyph name="Udieresis" xMin="85" yMin="-5" xMax="671" yMax="917">
      <contour>
        <pt x="300" y="835" on="1"/>
        <pt x="300" y="917" on="1"/>
        <pt x="331" y="917" on="1"/>
        <pt x="331" y="835" on="1"/>
      </contour>
      <contour>
        <pt x="426" y="835" on="1"/>
        <pt x="426" y="917" on="1"/>
        <pt x="457" y="917" on="1"/>
        <pt x="457" y="835" on="1"/>
      </contour>
      <contour>
        <pt x="378" y="28" on="1"/>
        <pt x="454" y="28" on="0"/>
        <pt x="555" y="85" on="0"/>
        <pt x="613" y="177" on="0"/>
        <pt x="637" y="294" on="0"/>
        <pt x="637" y="354" on="1"/>
        <pt x="637" y="710" on="1"/>
        <pt x="671" y="710" on="1"/>
        <pt x="671" y="354" on="1"/>
        <pt x="671" y="283" on="0"/>
        <pt x="641" y="153" on="0"/>
        <pt x="572" y="54" on="0"/>
        <pt x="461" y="-5" on="0"/>
        <pt x="379" y="-5" on="1"/>
        <pt x="295" y="-5" on="0"/>
        <pt x="182" y="57" on="0"/>
        <pt x="114" y="158" on="0"/>
        <pt x="85" y="287" on="0"/>
        <pt x="85" y="354" on="1"/>
        <pt x="85" y="710" on="1"/>
        <pt x="120" y="710" on="1"/>
        <pt x="120" y="354" on="1"/>
        <pt x="120" y="292" on="0"/>
        <pt x="144" y="175" on="0"/>
        <pt x="204" y="84" on="0"/>
        <pt x="303" y="28" on="0"/>
      </contour>
    </TTGlyph>
    <TTGlyph name="Udotbelow" xMin="85" yMin="-138" xMax="671" yMax="710">
      <contour>
        <pt x="378" y="28" on="1"/>
        <pt x="454" y="28" on="0"/>
        <pt x="555" y="85" on="0"/>
        <pt x="613" y="177" on="0"/>
        <pt x="637" y="294" on="0"/>
        <pt x="637" y="354" on="1"/>
        <pt x="637" y="710" on="1"/>
        <pt x="671" y="710" on="1"/>
        <pt x="671" y="354" on="1"/>
        <pt x="671" y="283" on="0"/>
        <pt x="641" y="153" on="0"/>
        <pt x="572" y="54" on="0"/>
        <pt x="461" y="-5" on="0"/>
        <pt x="379" y="-5" on="1"/>
        <pt x="295" y="-5" on="0"/>
        <pt x="182" y="57" on="0"/>
        <pt x="114" y="158" on="0"/>
        <pt x="85" y="287" on="0"/>
        <pt x="85" y="354" on="1"/>
        <pt x="85" y="710" on="1"/>
        <pt x="120" y="710" on="1"/>
        <pt x="120" y="354" on="1"/>
        <pt x="120" y="292" on="0"/>
        <pt x="144" y="175" on="0"/>
        <pt x="204" y="84" on="0"/>
        <pt x="303" y="28" on="0"/>
      </contour>
      <contour>
        <pt x="366" y="-138" on="1"/>
        <pt x="366" y="-55" on="1"/>
        <pt x="398" y="-55" on="1"/>
        <pt x="398" y="-138" on="1"/>
      </contour>
    </TTGlyph>
    <TTGlyph name="Ugrave" xMin="85" yMin="-5" xMax="671" yMax="918">
      <contour>
        <pt x="378" y="28" on="1"/>
        <pt x="454" y="28" on="0"/>
        <pt x="555" y="85" on="0"/>
        <pt x="613" y="177" on="0"/>
        <pt x="637" y="294" on="0"/>
        <pt x="637" y="354" on="1"/>
        <pt x="637" y="710" on="1"/>
        <pt x="671" y="710" on="1"/>
        <pt x="671" y="354" on="1"/>
        <pt x="671" y="283" on="0"/>
        <pt x="641" y="153" on="0"/>
        <pt x="572" y="54" on="0"/>
        <pt x="461" y="-5" on="0"/>
        <pt x="379" y="-5" on="1"/>
        <pt x="295" y="-5" on="0"/>
        <pt x="182" y="57" on="0"/>
        <pt x="114" y="158" on="0"/>
        <pt x="85" y="287" on="0"/>
        <pt x="85" y="354" on="1"/>
        <pt x="85" y="710" on="1"/>
        <pt x="120" y="710" on="1"/>
        <pt x="120" y="354" on="1"/>
        <pt x="120" y="292" on="0"/>
        <pt x="144" y="175" on="0"/>
        <pt x="204" y="84" on="0"/>
        <pt x="303" y="28" on="0"/>
      </contour>
      <contour>
        <pt x="304" y="918" on="1"/>
        <pt x="348" y="918" on="1"/>
        <pt x="411" y="839" on="1"/>
        <pt x="387" y="826" on="1"/>
      </contour>
    </TTGlyph>
    <TTGlyph name="Uhungarumlaut" xMin="85" yMin="-5" xMax="671" yMax="918">
      <contour>
        <pt x="378" y="28" on="1"/>
        <pt x="454" y="28" on="0"/>
        <pt x="555" y="85" on="0"/>
        <pt x="613" y="177" on="0"/>
        <pt x="637" y="294" on="0"/>
        <pt x="637" y="354" on="1"/>
        <pt x="637" y="710" on="1"/>
        <pt x="671" y="710" on="1"/>
        <pt x="671" y="354" on="1"/>
        <pt x="671" y="283" on="0"/>
        <pt x="641" y="153" on="0"/>
        <pt x="572" y="54" on="0"/>
        <pt x="461" y="-5" on="0"/>
        <pt x="379" y="-5" on="1"/>
        <pt x="295" y="-5" on="0"/>
        <pt x="182" y="57" on="0"/>
        <pt x="114" y="158" on="0"/>
        <pt x="85" y="287" on="0"/>
        <pt x="85" y="354" on="1"/>
        <pt x="85" y="710" on="1"/>
        <pt x="120" y="710" on="1"/>
        <pt x="120" y="354" on="1"/>
        <pt x="120" y="292" on="0"/>
        <pt x="144" y="175" on="0"/>
        <pt x="204" y="84" on="0"/>
        <pt x="303" y="28" on="0"/>
      </contour>
      <contour>
        <pt x="315" y="826" on="1"/>
        <pt x="293" y="839" on="1"/>
        <pt x="355" y="918" on="1"/>
        <pt x="398" y="918" on="1"/>
      </contour>
      <contour>
        <pt x="423" y="826" on="1"/>
        <pt x="400" y="839" on="1"/>
        <pt x="462" y="918" on="1"/>
        <pt x="505" y="918" on="1"/>
      </contour>
    </TTGlyph>
    <TTGlyph name="Uinvertedbreve" xMin="85" yMin="-5" xMax="671" yMax="918">
      <contour>
        <pt x="378" y="896" on="1"/>
        <pt x="357" y="896" on="0"/>
        <pt x="323" y="857" on="0"/>
        <pt x="323" y="834" on="1"/>
        <pt x="297" y="834" on="1"/>
        <pt x="297" y="851" on="0"/>
        <pt x="310" y="882" on="0"/>
        <pt x="332" y="905" on="0"/>
        <pt x="361" y="918" on="0"/>
        <pt x="378" y="918" on="1"/>
        <pt x="394" y="918" on="0"/>
        <pt x="423" y="905" on="0"/>
        <pt x="446" y="882" on="0"/>
        <pt x="459" y="851" on="0"/>
        <pt x="459" y="834" on="1"/>
        <pt x="434" y="834" on="1"/>
        <pt x="431" y="860" on="0"/>
        <pt x="398" y="896" on="0"/>
      </contour>
      <contour>
        <pt x="378" y="28" on="1"/>
        <pt x="454" y="28" on="0"/>
        <pt x="555" y="85" on="0"/>
        <pt x="613" y="177" on="0"/>
        <pt x="637" y="294" on="0"/>
        <pt x="637" y="354" on="1"/>
        <pt x="637" y="710" on="1"/>
        <pt x="671" y="710" on="1"/>
        <pt x="671" y="354" on="1"/>
        <pt x="671" y="283" on="0"/>
        <pt x="641" y="153" on="0"/>
        <pt x="572" y="54" on="0"/>
        <pt x="461" y="-5" on="0"/>
        <pt x="379" y="-5" on="1"/>
        <pt x="295" y="-5" on="0"/>
        <pt x="182" y="57" on="0"/>
        <pt x="114" y="158" on="0"/>
        <pt x="85" y="287" on="0"/>
        <pt x="85" y="354" on="1"/>
        <pt x="85" y="710" on="1"/>
        <pt x="120" y="710" on="1"/>
        <pt x="120" y="354" on="1"/>
        <pt x="120" y="292" on="0"/>
        <pt x="144" y="175" on="0"/>
        <pt x="204" y="84" on="0"/>
        <pt x="303" y="28" on="0"/>
      </contour>
    </TTGlyph>
    <TTGlyph name="Umacron" xMin="85" yMin="-5" xMax="671" yMax="895">
      <contour>
        <pt x="378" y="28" on="1"/>
        <pt x="454" y="28" on="0"/>
        <pt x="555" y="85" on="0"/>
        <pt x="613" y="177" on="0"/>
        <pt x="637" y="294" on="0"/>
        <pt x="637" y="354" on="1"/>
        <pt x="637" y="710" on="1"/>
        <pt x="671" y="710" on="1"/>
        <pt x="671" y="354" on="1"/>
        <pt x="671" y="283" on="0"/>
        <pt x="641" y="153" on="0"/>
        <pt x="572" y="54" on="0"/>
        <pt x="461" y="-5" on="0"/>
        <pt x="379" y="-5" on="1"/>
        <pt x="295" y="-5" on="0"/>
        <pt x="182" y="57" on="0"/>
        <pt x="114" y="158" on="0"/>
        <pt x="85" y="287" on="0"/>
        <pt x="85" y="354" on="1"/>
        <pt x="85" y="710" on="1"/>
        <pt x="120" y="710" on="1"/>
        <pt x="120" y="354" on="1"/>
        <pt x="120" y="292" on="0"/>
        <pt x="144" y="175" on="0"/>
        <pt x="204" y="84" on="0"/>
        <pt x="303" y="28" on="0"/>
      </contour>
      <contour>
        <pt x="237" y="867" on="1"/>
        <pt x="237" y="895" on="1"/>
        <pt x="520" y="895" on="1"/>
        <pt x="520" y="867" on="1"/>
      </contour>
    </TTGlyph>
    <TTGlyph name="Uogonek" xMin="85" yMin="-168" xMax="671" yMax="710">
      <contour>
        <pt x="378" y="28" on="1"/>
        <pt x="454" y="28" on="0"/>
        <pt x="555" y="85" on="0"/>
        <pt x="613" y="177" on="0"/>
        <pt x="637" y="294" on="0"/>
        <pt x="637" y="354" on="1"/>
        <pt x="637" y="710" on="1"/>
        <pt x="671" y="710" on="1"/>
        <pt x="671" y="354" on="1"/>
        <pt x="671" y="285" on="0"/>
        <pt x="642" y="157" on="0"/>
        <pt x="577" y="59" on="0"/>
        <pt x="471" y="-2" on="0"/>
        <pt x="393" y="-4" on="1"/>
        <pt x="348" y="-34" on="0"/>
        <pt x="312" y="-76" on="0"/>
        <pt x="312" y="-98" on="1"/>
        <pt x="312" y="-136" on="0"/>
        <pt x="359" y="-145" on="1"/>
        <pt x="345" y="-168" on="1"/>
        <pt x="316" y="-161" on="0"/>
        <pt x="286" y="-127" on="0"/>
        <pt x="286" y="-103" on="1"/>
        <pt x="286" y="-79" on="0"/>
        <pt x="319" y="-32" on="0"/>
        <pt x="357" y="-4" on="1"/>
        <pt x="279" y="0" on="0"/>
        <pt x="174" y="64" on="0"/>
        <pt x="111" y="164" on="0"/>
        <pt x="85" y="289" on="0"/>
        <pt x="85" y="354" on="1"/>
        <pt x="85" y="710" on="1"/>
        <pt x="120" y="710" on="1"/>
        <pt x="120" y="354" on="1"/>
        <pt x="120" y="292" on="0"/>
        <pt x="144" y="175" on="0"/>
        <pt x="204" y="84" on="0"/>
        <pt x="303" y="28" on="0"/>
      </contour>
    </TTGlyph>
    <TTGlyph name="Uring" xMin="85" yMin="-5" xMax="671" yMax="918">
      <contour>
        <pt x="317" y="859" on="1"/>
        <pt x="317" y="885" on="0"/>
        <pt x="352" y="918" on="0"/>
        <pt x="378" y="918" on="1"/>
        <pt x="405" y="918" on="0"/>
        <pt x="440" y="885" on="0"/>
        <pt x="440" y="859" on="1"/>
        <pt x="440" y="833" on="0"/>
        <pt x="405" y="799" on="0"/>
        <pt x="378" y="799" on="1"/>
        <pt x="352" y="799" on="0"/>
        <pt x="317" y="833" on="0"/>
      </contour>
      <contour>
        <pt x="378" y="899" on="1"/>
        <pt x="361" y="899" on="0"/>
        <pt x="338" y="877" on="0"/>
        <pt x="338" y="859" on="1"/>
        <pt x="338" y="842" on="0"/>
        <pt x="361" y="818" on="0"/>
        <pt x="378" y="818" on="1"/>
        <pt x="394" y="818" on="0"/>
        <pt x="419" y="841" on="0"/>
        <pt x="419" y="859" on="1"/>
        <pt x="419" y="877" on="0"/>
        <pt x="395" y="899" on="0"/>
      </contour>
      <contour>
        <pt x="378" y="28" on="1"/>
        <pt x="454" y="28" on="0"/>
        <pt x="555" y="85" on="0"/>
        <pt x="613" y="177" on="0"/>
        <pt x="637" y="294" on="0"/>
        <pt x="637" y="354" on="1"/>
        <pt x="637" y="710" on="1"/>
        <pt x="671" y="710" on="1"/>
        <pt x="671" y="354" on="1"/>
        <pt x="671" y="283" on="0"/>
        <pt x="641" y="153" on="0"/>
        <pt x="572" y="54" on="0"/>
        <pt x="461" y="-5" on="0"/>
        <pt x="379" y="-5" on="1"/>
        <pt x="295" y="-5" on="0"/>
        <pt x="182" y="57" on="0"/>
        <pt x="114" y="158" on="0"/>
        <pt x="85" y="287" on="0"/>
        <pt x="85" y="354" on="1"/>
        <pt x="85" y="710" on="1"/>
        <pt x="120" y="710" on="1"/>
        <pt x="120" y="354" on="1"/>
        <pt x="120" y="292" on="0"/>
        <pt x="144" y="175" on="0"/>
        <pt x="204" y="84" on="0"/>
        <pt x="303" y="28" on="0"/>
      </contour>
    </TTGlyph>
    <TTGlyph name="Utilde" xMin="85" yMin="-5" xMax="671" yMax="918">
      <contour>
        <pt x="378" y="28" on="1"/>
        <pt x="454" y="28" on="0"/>
        <pt x="555" y="85" on="0"/>
        <pt x="613" y="177" on="0"/>
        <pt x="637" y="294" on="0"/>
        <pt x="637" y="354" on="1"/>
        <pt x="637" y="710" on="1"/>
        <pt x="671" y="710" on="1"/>
        <pt x="671" y="354" on="1"/>
        <pt x="671" y="283" on="0"/>
        <pt x="641" y="153" on="0"/>
        <pt x="572" y="54" on="0"/>
        <pt x="461" y="-5" on="0"/>
        <pt x="379" y="-5" on="1"/>
        <pt x="295" y="-5" on="0"/>
        <pt x="182" y="57" on="0"/>
        <pt x="114" y="158" on="0"/>
        <pt x="85" y="287" on="0"/>
        <pt x="85" y="354" on="1"/>
        <pt x="85" y="710" on="1"/>
        <pt x="120" y="710" on="1"/>
        <pt x="120" y="354" on="1"/>
        <pt x="120" y="292" on="0"/>
        <pt x="144" y="175" on="0"/>
        <pt x="204" y="84" on="0"/>
        <pt x="303" y="28" on="0"/>
      </contour>
      <contour>
        <pt x="440" y="844" on="1"/>
        <pt x="418" y="844" on="0"/>
        <pt x="385" y="856" on="0"/>
        <pt x="356" y="870" on="0"/>
        <pt x="330" y="882" on="0"/>
        <pt x="314" y="882" on="1"/>
        <pt x="298" y="882" on="0"/>
        <pt x="278" y="869" on="0"/>
        <pt x="268" y="852" on="0"/>
        <pt x="264" y="836" on="0"/>
        <pt x="264" y="834" on="1"/>
        <pt x="237" y="834" on="1"/>
        <pt x="237" y="837" on="0"/>
        <pt x="242" y="862" on="0"/>
        <pt x="259" y="888" on="0"/>
        <pt x="290" y="909" on="0"/>
        <pt x="316" y="909" on="1"/>
        <pt x="336" y="909" on="0"/>
        <pt x="366" y="897" on="0"/>
        <pt x="393" y="882" on="0"/>
        <pt x="422" y="870" on="0"/>
        <pt x="441" y="870" on="1"/>
        <pt x="462" y="870" on="0"/>
        <pt x="485" y="884" on="0"/>
        <pt x="497" y="901" on="0"/>
        <pt x="500" y="916" on="0"/>
        <pt x="500" y="918" on="1"/>
        <pt x="526" y="918" on="1"/>
        <pt x="526" y="914" on="0"/>
        <pt x="520" y="890" on="0"/>
        <pt x="502" y="864" on="0"/>
        <pt x="468" y="844" on="0"/>
      </contour>
    </TTGlyph>
    <TTGlyph name="V" xMin="17" yMin="0" xMax="661" yMax="710">
      <contour>
        <pt x="53" y="710" on="1"/>
        <pt x="339" y="43" on="1"/>
        <pt x="624" y="710" on="1"/>
        <pt x="661" y="710" on="1"/>
        <pt x="356" y="0" on="1"/>
        <pt x="322" y="0" on="1"/>
        <pt x="17" y="710" on="1"/>
      </contour>
    </TTGlyph>
    <TTGlyph name="V.sc" xMin="25" yMin="0" xMax="559" yMax="542">
      <contour>
        <pt x="59" y="542" on="1"/>
        <pt x="292" y="44" on="1"/>
        <pt x="524" y="542" on="1"/>
        <pt x="559" y="542" on="1"/>
        <pt x="307" y="0" on="1"/>
        <pt x="276" y="0" on="1"/>
        <pt x="25" y="542" on="1"/>
      </contour>
    </TTGlyph>
    <TTGlyph name="W" xMin="17" yMin="0" xMax="1024" yMax="710">
      <contour>
        <pt x="374" y="704" on="1"/>
        <pt x="409" y="704" on="1"/>
        <pt x="519" y="442" on="1"/>
        <pt x="631" y="704" on="1"/>
        <pt x="666" y="704" on="1"/>
        <pt x="540" y="411" on="1"/>
        <pt x="700" y="41" on="1"/>
        <pt x="986" y="710" on="1"/>
        <pt x="1024" y="710" on="1"/>
        <pt x="717" y="0" on="1"/>
        <pt x="683" y="0" on="1"/>
        <pt x="520" y="378" on="1"/>
        <pt x="357" y="0" on="1"/>
        <pt x="323" y="0" on="1"/>
        <pt x="17" y="710" on="1"/>
        <pt x="54" y="710" on="1"/>
        <pt x="341" y="41" on="1"/>
        <pt x="500" y="411" on="1"/>
      </contour>
    </TTGlyph>
    <TTGlyph name="W.alt" xMin="27" yMin="0" xMax="1011" yMax="710">
      <contour>
        <pt x="1011" y="710" on="1"/>
        <pt x="782" y="0" on="1"/>
        <pt x="746" y="0" on="1"/>
        <pt x="515" y="654" on="1"/>
        <pt x="292" y="0" on="1"/>
        <pt x="255" y="0" on="1"/>
        <pt x="27" y="710" on="1"/>
        <pt x="64" y="710" on="1"/>
        <pt x="275" y="47" on="1"/>
        <pt x="495" y="710" on="1"/>
        <pt x="532" y="710" on="1"/>
        <pt x="762" y="47" on="1"/>
        <pt x="972" y="710" on="1"/>
      </contour>
    </TTGlyph>
    <TTGlyph name="W.sc" xMin="26" yMin="0" xMax="860" yMax="542">
      <contour>
        <pt x="320" y="538" on="1"/>
        <pt x="352" y="538" on="1"/>
        <pt x="442" y="339" on="1"/>
        <pt x="533" y="538" on="1"/>
        <pt x="565" y="538" on="1"/>
        <pt x="461" y="311" on="1"/>
        <pt x="590" y="40" on="1"/>
        <pt x="824" y="542" on="1"/>
        <pt x="860" y="542" on="1"/>
        <pt x="607" y="0" on="1"/>
        <pt x="576" y="0" on="1"/>
        <pt x="443" y="284" on="1"/>
        <pt x="310" y="0" on="1"/>
        <pt x="279" y="0" on="1"/>
        <pt x="26" y="542" on="1"/>
        <pt x="61" y="542" on="1"/>
        <pt x="296" y="40" on="1"/>
        <pt x="423" y="311" on="1"/>
      </contour>
    </TTGlyph>
</ttFont>
